<?xml version="1.0" encoding="UTF-8" standalone="no"?>
<!-- Created with Inkscape (http://www.inkscape.org/) -->

<svg
   xmlns:dc="http://purl.org/dc/elements/1.1/"
   xmlns:cc="http://creativecommons.org/ns#"
   xmlns:rdf="http://www.w3.org/1999/02/22-rdf-syntax-ns#"
   xmlns:svg="http://www.w3.org/2000/svg"
   xmlns="http://www.w3.org/2000/svg"
   xmlns:sodipodi="http://sodipodi.sourceforge.net/DTD/sodipodi-0.dtd"
   xmlns:inkscape="http://www.inkscape.org/namespaces/inkscape"
   width="179.23779"
   height="201.86671"
   id="svg4158"
   version="1.1"
   inkscape:version="0.48.4 r9939"
   sodipodi:docname="code.svg">
  <defs
     id="defs4160" />
  <sodipodi:namedview
     id="base"
     pagecolor="#ffffff"
     bordercolor="#666666"
     borderopacity="1.0"
     inkscape:pageopacity="0.0"
     inkscape:pageshadow="2"
     inkscape:zoom="1.7885839"
     inkscape:cx="337.30563"
     inkscape:cy="99.806279"
     inkscape:document-units="px"
     inkscape:current-layer="layer1"
     showgrid="false"
     fit-margin-top="0"
     fit-margin-left="0"
     fit-margin-right="0"
     fit-margin-bottom="0"
     inkscape:window-width="1920"
     inkscape:window-height="1144"
     inkscape:window-x="0"
     inkscape:window-y="27"
     inkscape:window-maximized="1" />
  <g
     inkscape:label="Layer 1"
     inkscape:groupmode="layer"
     id="layer1"
     transform="translate(-321.48079,-459.3945)">
    <g
       id="text4818"
       style="font-size:6.58916855px;font-style:normal;font-weight:normal;line-height:125%;letter-spacing:0px;word-spacing:0px;fill:#000000;fill-opacity:1;stroke:none;font-family:Sans" />
    <path
       style="fill:#1c241f;fill-opacity:1;stroke:none"
       d="m 321.91767,459.3945 c -0.24151,0 -0.43688,0.005 -0.43688,0.0108 l 0,56.50199 0,2.52078 0,142.80084 c 0,0.0141 0.19537,0.0323 0.43688,0.0323 l 178.36403,0 c 0.24152,0 0.43688,-0.0182 0.43688,-0.0323 l 0,-142.80084 0,-2.52078 0,-56.50199 c 0,-0.006 -0.19536,-0.0108 -0.43688,-0.0108 l -178.36403,0 z"
       id="path4062"
       inkscape:connector-curvature="0" />
    <path
       inkscape:connector-curvature="0"
       style="fill:#ffffff;fill-opacity:1;stroke:none"
       d="m 323.58298,493.13209 175.39649,0 c 0.2375,0 0.42869,0.0112 0.42869,0.025 l 0,143.01815 c 0,0.0139 -0.19119,0.025 -0.42869,0.025 l -175.39649,0 c -0.23749,0 -0.42869,-0.0112 -0.42869,-0.025 l 0,-143.01815 c 0,-0.0139 0.1912,-0.025 0.42869,-0.025 z"
       id="rect4064" />
    <path
       inkscape:connector-curvature="0"
       style="fill:#333333;fill-opacity:1;stroke:none"
       d="m 323.58298,461.01626 175.39649,0 c 0.2375,0 0.42869,0.003 0.42869,0.006 l 0,34.72396 c 0,0.004 -0.19119,0.006 -0.42869,0.006 l -175.39649,0 c -0.23749,0 -0.42869,-0.003 -0.42869,-0.006 l 0,-34.72396 c 0,-0.004 0.1912,-0.006 0.42869,-0.006 z"
       id="rect4066" />
    <path
       inkscape:connector-curvature="0"
       style="fill:#333333;fill-opacity:1;stroke:none"
       d="m 323.26535,635.64711 175.39649,0 c 0.23749,0 0.42869,0.002 0.42869,0.004 l 0,23.54579 c 0,0.003 -0.1912,0.004 -0.42869,0.004 l -175.39649,0 c -0.23749,0 -0.42869,-0.002 -0.42869,-0.004 l 0,-23.54579 c 0,-0.003 0.1912,-0.004 0.42869,-0.004 z"
       id="rect4088" />
    <g
       id="text4292"
       style="font-size:16.09392357px;font-style:normal;font-variant:normal;font-weight:bold;font-stretch:normal;line-height:125%;letter-spacing:0px;word-spacing:0px;fill:#333333;fill-opacity:1;stroke:none;font-family:Bitstream Charter;-inkscape-font-specification:Bitstream Charter Bold"
       transform="scale(0.9310016,1.074112)">
      <text
         xml:space="preserve"
         style="font-size:96px;font-style:normal;font-variant:normal;font-weight:normal;font-stretch:normal;text-align:start;line-height:125%;letter-spacing:0px;word-spacing:0px;writing-mode:lr-tb;text-anchor:start;fill:#333333;fill-opacity:1;stroke:none;font-family:Bitstream Vera Sans;-inkscape-font-specification:Bitstream Vera Sans"
         x="334.50497"
         y="592.31018"
         id="text3875"
         sodipodi:linespacing="125%"
         transform="scale(1.074112,0.93100161)"><tspan
           sodipodi:role="line"
           id="tspan3877"
           x="334.50497"
           y="592.31018">#</tspan></text>
    </g>
    <path
       id="rect4142"
       d="m 414.81602,514.8164 70.20724,0 c 0.10603,0 0.19139,0.004 0.19139,0.009 l 0,11.16997 c 0,0.005 -0.0854,0.009 -0.19139,0.009 l -70.20724,0 c -0.10602,0 -0.19138,-0.004 -0.19138,-0.009 l 0,-11.16997 c 0,-0.005 0.0854,-0.009 0.19138,-0.009 z"
       style="fill:#333333;fill-opacity:1;stroke:none"
       inkscape:connector-curvature="0" />
    <path
       inkscape:connector-curvature="0"
       style="fill:#333333;fill-opacity:1;stroke:none"
       d="m 414.81602,534.86818 70.20724,0 c 0.10603,0 0.19139,0.004 0.19139,0.009 l 0,11.16997 c 0,0.005 -0.0854,0.009 -0.19139,0.009 l -70.20724,0 c -0.10602,0 -0.19138,-0.004 -0.19138,-0.009 l 0,-11.16997 c 0,-0.005 0.0854,-0.009 0.19138,-0.009 z"
       id="path3187" />
    <path
       inkscape:connector-curvature="0"
       style="fill:#333333;fill-opacity:1;stroke:none"
       d="m 414.81602,552.41824 70.20724,0 c 0.10603,0 0.19139,0.004 0.19139,0.009 l 0,11.16997 c 0,0.005 -0.0854,0.009 -0.19139,0.009 l -70.20724,0 c -0.10602,0 -0.19138,-0.004 -0.19138,-0.009 l 0,-11.16997 c 0,-0.005 0.0854,-0.009 0.19138,-0.009 z"
       id="path4300" />
    <path
       id="path4302"
       d="m 414.81602,572.47002 70.20724,0 c 0.10603,0 0.19139,0.004 0.19139,0.009 l 0,11.16997 c 0,0.005 -0.0854,0.009 -0.19139,0.009 l -70.20724,0 c -0.10602,0 -0.19138,-0.004 -0.19138,-0.009 l 0,-11.16997 c 0,-0.005 0.0854,-0.009 0.19138,-0.009 z"
       style="fill:#333333;fill-opacity:1;stroke:none"
       inkscape:connector-curvature="0" />
    <path
       id="path4304"
       d="m 414.81602,590.66838 70.20724,0 c 0.10603,0 0.19139,0.004 0.19139,0.009 l 0,11.16997 c 0,0.005 -0.0854,0.009 -0.19139,0.009 l -70.20724,0 c -0.10602,0 -0.19138,-0.004 -0.19138,-0.009 l 0,-11.16997 c 0,-0.005 0.0854,-0.009 0.19138,-0.009 z"
       style="fill:#333333;fill-opacity:1;stroke:none"
       inkscape:connector-curvature="0" />
    <path
       inkscape:connector-curvature="0"
       style="fill:#333333;fill-opacity:1;stroke:none"
       d="m 343.69554,610.72016 141.13437,0 c 0.21314,0 0.38474,0.004 0.38474,0.009 l 0,11.16997 c 0,0.005 -0.17168,0.009 -0.38474,0.009 l -141.13437,0 c -0.21313,0 -0.38473,-0.004 -0.38473,-0.009 l 0,-11.16997 c 0,-0.005 0.17168,-0.009 0.38473,-0.009 z"
       id="path4306" />
    <path
       id="rect4308"
       d="m 331.18189,465.79221 25.49051,0 c 0.30196,0 0.54505,8.8e-4 0.54505,0.002 l 0,24.94734 c 0,10e-4 -0.24309,0.002 -0.54505,0.002 l -25.49051,0 c -0.30196,0 -0.54505,-8.9e-4 -0.54505,-0.002 l 0,-24.94734 c 0,-0.001 0.24309,-0.002 0.54505,-0.002 z"
       style="fill:none;stroke:#ffffff;stroke-width:0.8603093;stroke-opacity:1"
       inkscape:connector-curvature="0" />
    <path
       id="path4892"
       style="font-size:6.58916855px;font-style:normal;font-variant:normal;font-weight:normal;font-stretch:normal;line-height:125%;letter-spacing:0px;word-spacing:0px;fill:#ffffff;fill-opacity:1;stroke:none;font-family:Nimbus Mono L;-inkscape-font-specification:Nimbus Mono L"
       d="m 338.66422,471.79819 0.36899,0.96861 -0.50077,0 c -0.11861,0 -0.17791,0.0461 -0.17791,0.13178 0,0.0923 0.0593,0.13838 0.17791,0.13838 l 1.02791,0 c 0.1186,0 0.1779,-0.0461 0.1779,-0.13838 0,-0.0856 -0.0593,-0.13178 -0.1779,-0.13178 l -0.2438,0 -1.29807,-3.43955 -1.34419,0 c -0.1186,0 -0.17791,0.0461 -0.17791,0.13179 0,0.0922 0.0593,0.13837 0.17791,0.13837 l 0.7907,0 -1.17946,3.16939 -0.20426,0 c -0.11861,0 -0.17791,0.0461 -0.17791,0.13178 0,0.0923 0.0593,0.13838 0.17791,0.13838 l 0.99496,0 c 0.1186,0 0.17791,-0.0461 0.17791,-0.13838 0,-0.0856 -0.0593,-0.13178 -0.17791,-0.13178 l -0.52054,0 0.35581,-0.96861 1.75272,0 m -0.0988,-0.27015 -1.54845,0 0.71163,-1.93063 0.0988,0 0.73799,1.93063"
       inkscape:connector-curvature="0" />
    <path
       style="fill:none;stroke:#ffffff;stroke-width:0.85131484;stroke-linecap:butt;stroke-linejoin:miter;stroke-miterlimit:4;stroke-opacity:1;stroke-dasharray:1.70262969, 0.85131484;stroke-dashoffset:0"
       d="m 340.06249,471.35797 c 12.17499,-0.32939 12.17499,-0.32939 12.17499,-0.32939"
       id="path4828"
       inkscape:connector-curvature="0" />
    <path
       inkscape:connector-curvature="0"
       id="path4830"
       d="m 335.42122,474.98131 c 16.79918,-0.32939 16.79918,-0.32939 16.79918,-0.32939"
       style="fill:none;stroke:#ffffff;stroke-width:1;stroke-linecap:butt;stroke-linejoin:miter;stroke-miterlimit:4;stroke-opacity:1;stroke-dasharray:2, 1;stroke-dashoffset:0" />
    <path
       style="fill:none;stroke:#ffffff;stroke-width:1;stroke-linecap:butt;stroke-linejoin:miter;stroke-miterlimit:4;stroke-opacity:1;stroke-dasharray:2, 1;stroke-dashoffset:0"
       d="m 335.42122,478.42827 c 16.79918,-0.32939 16.79918,-0.32939 16.79918,-0.32939"
       id="path4832"
       inkscape:connector-curvature="0" />
    <path
       inkscape:connector-curvature="0"
       id="path4834"
       d="m 335.42122,482.38787 c 16.79918,-0.32939 16.79918,-0.32939 16.79918,-0.32939"
       style="fill:none;stroke:#ffffff;stroke-width:1;stroke-linecap:butt;stroke-linejoin:miter;stroke-miterlimit:4;stroke-opacity:1;stroke-dasharray:2, 1;stroke-dashoffset:0" />
    <path
       style="fill:none;stroke:#ffffff;stroke-width:0.74317223;stroke-linecap:butt;stroke-linejoin:miter;stroke-miterlimit:4;stroke-opacity:1;stroke-dasharray:1.48634451, 0.74317225;stroke-dashoffset:0"
       d="m 335.42122,486.34747 c 9.27827,-0.32939 9.27827,-0.32939 9.27827,-0.32939"
       id="path4836"
       inkscape:connector-curvature="0" />
    <g
       id="text4838"
       style="font-size:3.38951826px;font-style:normal;font-weight:normal;line-height:125%;letter-spacing:0px;word-spacing:0px;fill:#ffffff;fill-opacity:1;stroke:none;font-family:Sans">
      <path
         id="path4895"
         style="font-variant:normal;font-stretch:normal;fill:#ffffff;font-family:Nimbus Mono L;-inkscape-font-specification:Nimbus Mono L"
         d="m 346.48564,486.12385 0.11185,0 c 0.061,0 0.0915,-0.0237 0.0915,-0.0712 0,-0.0373 -0.0237,-0.061 -0.0644,-0.0678 l 0,-0.9389 c 0,-0.31184 -0.23049,-0.54571 -0.53894,-0.54571 -0.38301,0 -0.66095,0.37623 -0.66095,0.89144 l 0,0.55249 c 0,0.24066 0.061,0.45081 0.18303,0.62706 0.12202,0.17287 0.27116,0.25422 0.47453,0.25422 0.25083,0 0.50843,-0.10847 0.50843,-0.21354 0,-0.0339 -0.0305,-0.0644 -0.0678,-0.0644 -0.0237,0 -0.0271,0.003 -0.0644,0.0373 -0.0712,0.061 -0.21015,0.10169 -0.3559,0.10169 -0.16948,0 -0.28811,-0.061 -0.37963,-0.19321 -0.10168,-0.15252 -0.1593,-0.34573 -0.1593,-0.5491 l 0,-0.54232 c 0,-0.44742 0.21693,-0.76264 0.52537,-0.76264 0.23049,0 0.39658,0.16947 0.39658,0.40674 l 0,0.15931 c -0.34573,-0.003 -0.59656,0.20337 -0.59656,0.48809 0,0.24065 0.19659,0.42369 0.46098,0.42369 0.0339,0 0.0678,-0.003 0.13558,-0.0102 l 0,0.017 m 0,-0.15931 c -0.0407,0.0102 -0.0881,0.0136 -0.12542,0.0136 -0.19659,0 -0.33217,-0.11864 -0.33217,-0.28811 0,-0.20337 0.1932,-0.34912 0.45759,-0.34912 l 0,0.62367"
         inkscape:connector-curvature="0" />
      <path
         id="path4897"
         style="font-variant:normal;font-stretch:normal;fill:#ffffff;font-family:Nimbus Mono L;-inkscape-font-specification:Nimbus Mono L"
         d="m 348.05027,484.66296 c -0.28472,0.0339 -0.48809,0.23388 -0.48809,0.47793 0,0.1288 0.061,0.25082 0.15931,0.31861 0.0881,0.0542 0.18642,0.0881 0.40335,0.1288 0.2271,0.0441 0.28133,0.061 0.35929,0.10508 0.0813,0.0508 0.1288,0.13897 0.1288,0.24065 0,0.21354 -0.21015,0.36607 -0.49826,0.36607 -0.25082,0 -0.47792,-0.12541 -0.49148,-0.27116 -0.007,-0.061 -0.0237,-0.0847 -0.0678,-0.0847 -0.0475,0 -0.0712,0.0305 -0.0712,0.0915 l 0,0.26777 c 0,0.061 0.0237,0.0915 0.0712,0.0915 0.0441,0 0.0678,-0.0305 0.0678,-0.0915 l 0,-0.0542 c 0.0881,0.0983 0.27116,0.17625 0.42708,0.18303 l 0,0.40335 c 0,0.061 0.0237,0.0915 0.0712,0.0915 0.0441,0 0.0678,-0.0305 0.0678,-0.0915 l 0,-0.40335 c 0.34573,-0.0373 0.56266,-0.23049 0.56266,-0.49826 0,-0.14575 -0.061,-0.26777 -0.16609,-0.33895 -0.0949,-0.0644 -0.18303,-0.0915 -0.42708,-0.13897 -0.19998,-0.0373 -0.27116,-0.0576 -0.33895,-0.0983 -0.0712,-0.0441 -0.11863,-0.12541 -0.11863,-0.21353 0,-0.19321 0.18981,-0.35251 0.42369,-0.35251 0.20676,0 0.39996,0.10507 0.41691,0.22709 0.007,0.0542 0.0271,0.0746 0.0712,0.0746 0.0441,0 0.0678,-0.0305 0.0678,-0.0915 l 0,-0.20338 c 0,-0.061 -0.0203,-0.0915 -0.0678,-0.0915 -0.0441,0 -0.0678,0.0339 -0.0712,0.0983 -0.12202,-0.0949 -0.19998,-0.1288 -0.35251,-0.14236 l 0,-0.17625 c 0,-0.061 -0.0237,-0.0915 -0.0678,-0.0915 -0.0474,0 -0.0712,0.0305 -0.0712,0.0915 l 0,0.17625"
         inkscape:connector-curvature="0" />
      <path
         id="path4899"
         style="font-variant:normal;font-stretch:normal;fill:#ffffff;font-family:Nimbus Mono L;-inkscape-font-specification:Nimbus Mono L"
         d="m 350.15045,484.53077 -0.60334,0.75586 c -0.0237,0.0271 -0.0305,0.0407 -0.0305,0.061 0,0.0373 0.0305,0.0678 0.0678,0.0678 0.0271,0 0.0441,-0.0102 0.0678,-0.0441 l 0.49826,-0.62706 0.49826,0.62706 c 0.0237,0.0339 0.0407,0.0441 0.0678,0.0441 0.0373,0 0.0678,-0.0305 0.0678,-0.0678 0,-0.017 -0.0102,-0.0373 -0.0305,-0.061 l -0.60333,-0.75586"
         inkscape:connector-curvature="0" />
      <path
         id="path4901"
         style="font-variant:normal;font-stretch:normal;fill:#ffffff;font-family:Nimbus Mono L;-inkscape-font-specification:Nimbus Mono L"
         d="m 352.77261,485.2019 -1.18633,0 0,0.32539 c 0,0.061 0.0237,0.0915 0.0712,0.0915 0.0441,0 0.0678,-0.0305 0.0678,-0.0915 l 0,-0.18642 0.85077,0 -1.02025,1.15243 0,0.12203 1.26768,0 0,-0.32879 c 0,-0.061 -0.0237,-0.0915 -0.0678,-0.0915 -0.0474,0 -0.0712,0.0305 -0.0712,0.0915 l 0,0.18982 -0.93889,0 1.02702,-1.15244 0,-0.12202"
         inkscape:connector-curvature="0" />
    </g>
    <text
       xml:space="preserve"
       style="font-size:32px;font-style:normal;font-variant:normal;font-weight:bold;font-stretch:normal;text-align:start;line-height:125%;letter-spacing:0px;word-spacing:0px;writing-mode:lr-tb;text-anchor:start;fill:#ffffff;fill-opacity:1;stroke:none;font-family:Serif;-inkscape-font-specification:Serif Bold"
       x="375.7962"
       y="490.10782"
       id="text3832"
       sodipodi:linespacing="125%"><tspan
         sodipodi:role="line"
         id="tspan3834"
         x="375.7962"
         y="490.10782">CODE</tspan></text>
  </g>
  <metadata
     id="metadata49">
    <rdf:RDF>
      <cc:Work>
        <dc:format>image/svg+xml</dc:format>
        <dc:type
           rdf:resource="http://purl.org/dc/dcmitype/StillImage" />
        <cc:license
           rdf:resource="http://creativecommons.org/licenses/publicdomain/" />
        <dc:publisher>
          <cc:Agent
             rdf:about="http://openclipart.org/">
            <dc:title>Open Clip Art Library</dc:title>
          </cc:Agent>
        </dc:publisher>
        <dc:title>Text file icon</dc:title>
        <dc:date>2011-04-04T09:54:06</dc:date>
        <dc:description>Text file icon</dc:description>
        <dc:source>http://openclipart.org/detail/130963/text-file-icon-by-gsagri04</dc:source>
        <dc:creator>
          <cc:Agent>
            <dc:title>gsagri04</dc:title>
          </cc:Agent>
        </dc:creator>
        <dc:subject>
          <rdf:Bag>
            <rdf:li>Txt</rdf:li>
            <rdf:li>clip art</rdf:li>
            <rdf:li>clipart</rdf:li>
            <rdf:li>code</rdf:li>
            <rdf:li>file</rdf:li>
            <rdf:li>icon</rdf:li>
            <rdf:li>office</rdf:li>
            <rdf:li>png</rdf:li>
            <rdf:li>svg</rdf:li>
            <rdf:li>text</rdf:li>
          </rdf:Bag>
        </dc:subject>
      </cc:Work>
      <cc:License
         rdf:about="http://creativecommons.org/licenses/publicdomain/">
        <cc:permits
           rdf:resource="http://creativecommons.org/ns#Reproduction" />
        <cc:permits
           rdf:resource="http://creativecommons.org/ns#Distribution" />
        <cc:permits
           rdf:resource="http://creativecommons.org/ns#DerivativeWorks" />
      </cc:License>
    </rdf:RDF>
  </metadata>
</svg>
