<?xml version="1.0" encoding="UTF-8" standalone="no"?>
<!-- Created with Inkscape (http://www.inkscape.org/) -->

<svg
   xmlns:dc="http://purl.org/dc/elements/1.1/"
   xmlns:cc="http://creativecommons.org/ns#"
   xmlns:rdf="http://www.w3.org/1999/02/22-rdf-syntax-ns#"
   xmlns:svg="http://www.w3.org/2000/svg"
   xmlns="http://www.w3.org/2000/svg"
   xmlns:sodipodi="http://sodipodi.sourceforge.net/DTD/sodipodi-0.dtd"
   xmlns:inkscape="http://www.inkscape.org/namespaces/inkscape"
   width="164.15062"
   height="166.76881"
   id="svg3481"
   version="1.1"
   inkscape:version="0.48.4 r9939"
   sodipodi:docname="perfect_score.svg">
  <title
     id="title2897">Perfect Score</title>
  <defs
     id="defs3483">
    <inkscape:perspective
       sodipodi:type="inkscape:persp3d"
       inkscape:vp_x="0 : 161.16631 : 1"
       inkscape:vp_y="0 : 1000 : 0"
       inkscape:vp_z="251.82127 : 161.16631 : 1"
       inkscape:persp3d-origin="125.91064 : 107.4442 : 1"
       id="perspective91" />
  </defs>
  <sodipodi:namedview
     id="base"
     pagecolor="#ffffff"
     bordercolor="#666666"
     borderopacity="1.0"
     inkscape:pageopacity="0.0"
     inkscape:pageshadow="2"
     inkscape:zoom="0.98994949"
     inkscape:cx="104.49212"
     inkscape:cy="-61.595441"
     inkscape:document-units="px"
     inkscape:current-layer="layer1"
     showgrid="false"
     inkscape:window-width="1920"
     inkscape:window-height="1144"
     inkscape:window-x="0"
     inkscape:window-y="27"
     inkscape:window-maximized="1"
     fit-margin-top="0"
     fit-margin-left="0"
     fit-margin-right="0"
     fit-margin-bottom="0" />
  <g
     inkscape:label="Layer 1"
     inkscape:groupmode="layer"
     id="layer1"
     transform="translate(-272.52818,-332.56939)">
    <g
       transform="matrix(0.3756517,0.20831304,-0.21518836,0.38804999,401.39102,102.01273)"
       inkscape:label="Layer 1"
       id="layer1-9">
      <g
         id="g5250">
        <path
           sodipodi:type="star"
           style="color:#000000;fill:#ffe621;fill-opacity:1;fill-rule:nonzero;stroke:#ff0000;stroke-width:4;stroke-linecap:butt;stroke-linejoin:miter;stroke-miterlimit:4;stroke-opacity:1;stroke-dasharray:none;stroke-dashoffset:0;marker:none;visibility:visible;display:inline;overflow:visible;enable-background:accumulate"
           id="path5248"
           sodipodi:sides="5"
           sodipodi:cx="44.95179"
           sodipodi:cy="-18.233969"
           sodipodi:r1="200.01593"
           sodipodi:r2="61.838535"
           sodipodi:arg1="1.8470148"
           sodipodi:arg2="2.4553545"
           inkscape:flatsided="false"
           inkscape:rounded="0"
           inkscape:randomized="0"
           d="M -9.5964395,174.20008 -2.888672,20.948867 -154.9202,-10.647026 -7.0968176,-51.624789 -24.027661,-205.97903 60.624443,-78.053467 202.19213,-141.85374 106.68663,-21.813631 211.11112,93.109872 67.433366,39.373177 z"
           transform="matrix(0.99999973,-7.3832694e-4,7.3832694e-4,0.99999973,210.50383,702.33045)" />
        <g
           id="g3175"
           transform="matrix(0.57964866,-0.16816761,0.16816761,0.57964866,-159.20848,719.01843)">
          <path
             inkscape:connector-curvature="0"
             d="m 669.89366,61.378242 c -3.58244,5.296459 -6.84655,10.794481 -10.29849,16.174891 -2.80808,4.004437 -5.20252,8.255389 -7.53968,12.542351 -2.47136,4.160007 -5.04717,8.256587 -7.536,12.407336 -2.77108,4.43827 -5.1015,9.13064 -7.44249,13.80443 -2.17225,4.02482 -4.06145,8.19017 -6.10395,12.27966 -1.99168,4.69912 -4.06772,9.36092 -6.12646,14.03173 -1.94047,4.45173 -3.99201,8.84332 -6.41897,13.05159 -2.0486,3.49188 -4.50729,6.71232 -6.66065,10.1378 -0.93575,1.48236 -1.75828,3.03025 -2.65501,4.53567 0,0 -13.63491,6.01422 -13.63491,6.01422 l 0,0 c 0.9712,-1.48329 1.77224,-3.05347 2.71682,-4.55234 2.11736,-3.51218 4.70297,-6.69942 6.8467,-10.19173 2.49996,-4.12277 4.52104,-8.47464 6.4617,-12.88403 2.09241,-4.67891 4.28128,-9.31694 6.11808,-14.10333 2.05137,-4.07773 3.85198,-8.27807 6.06412,-12.27502 2.43615,-4.66286 4.7159,-9.41479 7.45076,-13.91188 2.45589,-4.14523 4.95682,-8.26012 7.5162,-12.342189 2.40283,-4.338831 4.66624,-8.758189 7.68731,-12.723844 3.43392,-5.242953 6.68976,-10.589672 9.89973,-15.972811 0,0 13.65519,-6.022504 13.65519,-6.022504 z"
             id="path3161"
             style="color:#000000;fill:#ff0000;stroke:#ff0000;stroke-width:4;stroke-linecap:butt;stroke-linejoin:miter;stroke-miterlimit:4;stroke-opacity:1;stroke-dasharray:none;stroke-dashoffset:0;marker:none;visibility:visible;display:inline;overflow:visible;enable-background:accumulate" />
          <path
             inkscape:connector-curvature="0"
             d="m 670.4188,62.652075 c 0.59398,4.423992 1.7427,8.738701 2.74688,13.079342 0.8077,5.066524 2.39436,9.951596 3.97537,14.818086 1.31378,4.024853 3.04584,7.881354 4.5486,11.833557 1.96358,5.34517 3.43269,10.84444 4.97988,16.3184 1.43682,4.66618 2.4436,9.45152 4.07051,14.05743 1.21245,3.58658 2.47118,7.15 3.92636,10.64488 0.91795,2.75915 1.98597,5.45262 3.02871,8.16589 0.94417,3.41452 1.95309,6.81015 2.89451,10.22531 0.71698,2.66648 1.46439,5.31787 2.22077,7.9732 0.75791,2.21754 1.41224,4.47138 2.01991,6.73509 0.28441,0.88548 0.6197,1.73094 1.06819,2.54368 0,0 -12.99088,7.44835 -12.99088,7.44835 l 0,0 c -0.48971,-0.92911 -0.87701,-1.87898 -1.18963,-2.88473 -0.57102,-2.26694 -1.26534,-4.50429 -2.01645,-6.71698 -0.69898,-2.68048 -1.43795,-5.3478 -2.16189,-8.02137 -0.84474,-3.385 -1.84442,-6.72992 -2.80229,-10.08397 -1.05927,-2.7007 -2.22402,-5.34895 -3.00941,-8.15032 -1.40494,-3.54777 -2.69456,-7.13146 -3.86148,-10.7661 -1.6017,-4.6554 -2.66172,-9.46322 -3.9919,-14.19966 -1.54002,-5.42487 -2.96396,-10.88603 -5.00049,-16.1549 -1.54385,-3.96647 -3.40348,-7.79891 -4.63593,-11.887125 -1.52146,-4.934052 -3.08712,-9.871267 -3.90911,-14.980305 -1.03351,-4.327266 -2.20753,-8.621135 -3.16572,-12.965634 0,0 13.25549,-7.032121 13.25549,-7.032121 z"
             id="path3163"
             style="color:#000000;fill:#ff0000;stroke:#ff0000;stroke-width:4;stroke-linecap:butt;stroke-linejoin:miter;stroke-miterlimit:4;stroke-opacity:1;stroke-dasharray:none;stroke-dashoffset:0;marker:none;visibility:visible;display:inline;overflow:visible;enable-background:accumulate" />
          <path
             inkscape:connector-curvature="0"
             d="m 636.35424,116.24121 c 4.86999,-0.64054 9.76492,-1.08907 14.66715,-1.38944 6.20553,-0.32892 12.43137,-0.4637 18.61871,-1.06062 3.62728,-0.41371 7.24419,-0.91276 10.88945,-1.13939 2.08137,-0.10636 4.16613,-0.0991 6.24953,-0.0973 0.33119,6.5e-4 0.66239,10e-4 0.99359,0.002 0,0 -12.09849,8.78865 -12.09849,8.78865 l 0,0 c -0.33068,1.4e-4 -0.66137,2.8e-4 -0.99205,4.2e-4 -2.05269,0.006 -4.10667,0.0183 -6.15614,0.14678 -3.53481,0.23909 -7.0537,0.65222 -10.58398,0.94655 -6.24913,0.43033 -12.51048,0.69781 -18.76003,1.12654 -4.92643,0.30456 -9.87972,0.65295 -14.71118,1.71325 0,0 11.88344,-9.03733 11.88344,-9.03733 z"
             id="path3165"
             style="color:#000000;fill:#ff0000;stroke:#ff0000;stroke-width:4;stroke-linecap:butt;stroke-linejoin:miter;stroke-miterlimit:4;stroke-opacity:1;stroke-dasharray:none;stroke-dashoffset:0;marker:none;visibility:visible;display:inline;overflow:visible;enable-background:accumulate" />
          <path
             inkscape:connector-curvature="0"
             d="m 754.17715,59.983729 c -0.16948,4.884822 -0.15737,9.774854 -0.17343,14.662198 -0.008,7.14493 0.40548,14.284265 0.63144,21.425357 0.27808,7.077486 1.18803,14.102996 1.74589,21.159356 0.3958,5.31235 0.62225,10.63561 0.70636,15.96149 0.20074,4.05438 -0.0589,8.09045 -0.38813,12.12837 -0.39362,3.10426 -0.9589,6.18134 -1.28432,9.29441 -0.16705,0.95475 -0.0766,1.88952 0.0456,2.83817 0,0 -13.2415,6.98797 -13.2415,6.98797 l 0,0 c -0.16827,-1.06335 -0.35253,-2.11887 -0.15377,-3.19702 0.32289,-3.13663 0.92231,-6.22768 1.42493,-9.33864 0.3784,-4.00285 0.63583,-7.99659 0.49914,-12.02102 -0.035,-5.33013 -0.0904,-10.66308 -0.45683,-15.98297 -0.52491,-7.0931 -1.41894,-14.15496 -1.67785,-21.26738 -0.22327,-7.12761 -0.73809,-14.244118 -0.83262,-21.373599 -0.0159,-4.828404 -0.002,-9.659687 -0.17343,-14.485467 0,0 13.32853,-6.791225 13.32853,-6.791225 z"
             id="path3171"
             style="color:#000000;fill:#ff0000;stroke:#ff0000;stroke-width:4;stroke-linecap:butt;stroke-linejoin:miter;stroke-miterlimit:4;stroke-opacity:1;stroke-dasharray:none;stroke-dashoffset:0;marker:none;visibility:visible;display:inline;overflow:visible;enable-background:accumulate" />
          <path
             inkscape:connector-curvature="0"
             d="m 716.32242,101.28676 c 8.80948,-0.24787 17.61827,-0.45942 26.42535,-0.075 7.2607,0.28083 14.45198,1.29283 21.66611,2.07419 8.06005,0.8048 16.10224,1.77387 24.15969,2.59763 5.58995,0.50751 11.20356,0.64482 16.81352,0.67615 0,0 -11.96221,8.6568 -11.96221,8.6568 l 0,0 c -5.55611,-0.17944 -11.11242,-0.446 -16.64979,-0.94581 -8.00093,-0.84186 -15.9565,-2.1069 -23.98477,-2.71918 -7.19121,-0.6908 -14.3773,-1.44461 -21.57686,-2.04095 -8.95408,-0.43966 -17.94188,-0.23853 -26.86507,0.65946 0,0 11.97403,-8.88332 11.97403,-8.88332 z"
             id="path3173"
             style="color:#000000;fill:#ff0000;stroke:#ff0000;stroke-width:4;stroke-linecap:butt;stroke-linejoin:miter;stroke-miterlimit:4;stroke-opacity:1;stroke-dasharray:none;stroke-dashoffset:0;marker:none;visibility:visible;display:inline;overflow:visible;enable-background:accumulate" />
        </g>
      </g>
    </g>
  </g>
  <metadata
     id="metadata91">
    <rdf:RDF>
      <cc:Work>
        <dc:format>image/svg+xml</dc:format>
        <dc:type
           rdf:resource="http://purl.org/dc/dcmitype/StillImage" />
        <cc:license
           rdf:resource="http://creativecommons.org/licenses/publicdomain/" />
        <dc:publisher>
          <cc:Agent
             rdf:about="http://openclipart.org/">
            <dc:title>Open Clip Art Library</dc:title>
          </cc:Agent>
        </dc:publisher>
        <dc:title>Perfect Score</dc:title>
        <dc:date>2010-05-29T02:22:18</dc:date>
        <dc:description>A perfect score, A+.</dc:description>
        <dc:source>http://openclipart.org/detail/63553/perfect-score-by-mazeo</dc:source>
        <dc:creator>
          <cc:Agent>
            <dc:title>mazeo</dc:title>
          </cc:Agent>
        </dc:creator>
        <dc:subject>
          <rdf:Bag>
            <rdf:li>100</rdf:li>
            <rdf:li>a plus</rdf:li>
            <rdf:li>a-plus</rdf:li>
            <rdf:li>assignment</rdf:li>
            <rdf:li>class</rdf:li>
            <rdf:li>clip art</rdf:li>
            <rdf:li>clipart</rdf:li>
            <rdf:li>grade</rdf:li>
            <rdf:li>homework</rdf:li>
            <rdf:li>paper</rdf:li>
            <rdf:li>perfect score</rdf:li>
            <rdf:li>quiz</rdf:li>
            <rdf:li>school</rdf:li>
            <rdf:li>score</rdf:li>
            <rdf:li>test</rdf:li>
          </rdf:Bag>
        </dc:subject>
      </cc:Work>
      <cc:License
         rdf:about="http://creativecommons.org/licenses/publicdomain/">
        <cc:permits
           rdf:resource="http://creativecommons.org/ns#Reproduction" />
        <cc:permits
           rdf:resource="http://creativecommons.org/ns#Distribution" />
        <cc:permits
           rdf:resource="http://creativecommons.org/ns#DerivativeWorks" />
      </cc:License>
    </rdf:RDF>
  </metadata>
</svg>
