<?xml version="1.0" encoding="UTF-8" standalone="no"?>
<svg
   xmlns:dc="http://purl.org/dc/elements/1.1/"
   xmlns:cc="http://creativecommons.org/ns#"
   xmlns:rdf="http://www.w3.org/1999/02/22-rdf-syntax-ns#"
   xmlns:svg="http://www.w3.org/2000/svg"
   xmlns="http://www.w3.org/2000/svg"
   xmlns:sodipodi="http://sodipodi.sourceforge.net/DTD/sodipodi-0.dtd"
   xmlns:inkscape="http://www.inkscape.org/namespaces/inkscape"
   viewBox="0 0 288.8187 432.0075"
   id="svg2"
   version="1.1"
   inkscape:version="0.48.4 r9939"
   width="100%"
   height="100%"
   sodipodi:docname="clipboard.svg">
  <metadata
     id="metadata58">
    <rdf:RDF>
      <cc:Work
         rdf:about="">
        <dc:format>image/svg+xml</dc:format>
        <dc:type
           rdf:resource="http://purl.org/dc/dcmitype/StillImage" />
      </cc:Work>
    </rdf:RDF>
  </metadata>
  <defs
     id="defs56" />
  <sodipodi:namedview
     pagecolor="#ffffff"
     bordercolor="#666666"
     borderopacity="1"
     objecttolerance="10"
     gridtolerance="10"
     guidetolerance="10"
     inkscape:pageopacity="0"
     inkscape:pageshadow="2"
     inkscape:window-width="1920"
     inkscape:window-height="1144"
     id="namedview54"
     showgrid="false"
     inkscape:zoom="1.5451324"
     inkscape:cx="184.78055"
     inkscape:cy="232.12125"
     inkscape:window-x="0"
     inkscape:window-y="27"
     inkscape:window-maximized="1"
     inkscape:current-layer="svg2" />
  <path
     style="fill:#000000"
     inkscape:connector-curvature="0"
     id="path6"
     d="m 16.60985,34.07899 h 255.5985 a 16.6099,16.6099 0 0 1 16.61,16.61 v 364.709 a 16.6099,16.6099 0 0 1 -16.61,16.609 H 16.60985 A 16.6099,16.6099 0 0 1 5e-5,415.39799 v -364.709 a 16.6099,16.6099 0 0 1 16.6098,-16.61" />
  <path
     style="fill:#333333"
     inkscape:connector-curvature="0"
     id="path8"
     d="m 17.87525,36.04899 h 253.0681 a 16.4454,16.4454 0 0 1 16.446,16.446 v 361.097 a 16.4454,16.4454 0 0 1 -16.446,16.446 H 17.87525 a 16.4454,16.4454 0 0 1 -16.4455,-16.446 v -361.097 a 16.4454,16.4454 0 0 1 16.4455,-16.446" />
  <g
     transform="translate(-55.59064 -288.77201)"
     id="g10">
    <path
       fill="#666"
       rx="0"
       ry="0"
       d="m82.3102,347.532h235.3798v332.894h-235.3798z"
       id="path12" />
    <path
       fill="#fff"
       d="m85.7381,352.38h228.5239v323.198h-228.5239z"
       id="path14" />
    <path
       fill="#b6b6b6"
       fill-rule="evenodd"
       stroke-width="1.25"
       d="m172.713,429.286h125.297v4.163h-125.297z"
       id="path16" />
    <path
       fill="#b6b6b6"
       fill-rule="evenodd"
       stroke-width="1.25"
       d="m172.713,450.469h125.297v4.162h-125.297z"
       id="path18" />
    <path
       fill="#b6b6b6"
       d="m196.3593,288.772c-15.8513,0-28.5959,12.7446-28.5959,28.5959v7.3145c0,2.1595 .2458,4.2351 .695,6.2554h-24.5912c-4.5473,0-8.2081,3.6608-8.2081,8.2081v7.6785v5.5603v10.3263h8.2081h112.2654h8.2081v-10.3263v-5.5603v-7.6785c0-4.5473-3.6608-8.2081-8.2081-8.2081h-24.5581c.4486-2.0189 .695-4.0976 .695-6.2554v-7.3145c0-15.8513-12.7777-28.5959-28.629-28.5959h-7.2814zm3.6407,18.9315c7.3591,0 13.3381,5.979 13.3381,13.3381c0,7.3591-5.979,13.305-13.3381,13.305c-7.3591,0-13.305-5.9459-13.305-13.305c0-7.3591 5.946-13.3381 13.305-13.3381z"
       id="path20" />
    <path
       fill="none"
       stroke="#4d4d4d"
       stroke-width="4"
       d="m102.559,418.807h55.418v55.418h-55.418z"
       id="path22" />
    <path
       fill="none"
       stroke="#4d4d4d"
       stroke-width="4"
       d="m102.559,597.045h55.418v55.419h-55.418z"
       id="path24" />
    <path
       fill="#b6b6b6"
       fill-rule="evenodd"
       stroke-width="1.25"
       d="m172.713,471.651h125.297v4.162h-125.297z"
       id="path26" />
    <path
       fill="#b6b6b6"
       fill-rule="evenodd"
       stroke-width="1.25"
       d="m172.713,514.015h125.297v4.163h-125.297z"
       id="path28" />
    <path
       fill="#b6b6b6"
       fill-rule="evenodd"
       stroke-width="1.25"
       d="m172.713,535.197h125.297v4.163h-125.297z"
       id="path30" />
    <path
       fill="#b6b6b6"
       fill-rule="evenodd"
       stroke-width="1.25"
       d="m172.713,556.379h125.297v4.163h-125.297z"
       id="path32" />
    <path
       fill="#b6b6b6"
       fill-rule="evenodd"
       stroke-width="1.25"
       d="m172.713,598.744h125.297v4.162h-125.297z"
       id="path34" />
    <path
       fill="#b6b6b6"
       fill-rule="evenodd"
       stroke-width="1.25"
       d="m172.713,619.926h125.297v4.162h-125.297z"
       id="path36" />
    <path
       fill="#b6b6b6"
       fill-rule="evenodd"
       stroke-width="1.25"
       d="m172.713,641.108h125.297v4.163h-125.297z"
       id="path38" />
    <path
       fill="none"
       stroke="#4d4d4d"
       stroke-width="4"
       d="m102.559,507.926h55.418v55.419h-55.418z"
       id="path40" />
    <path
       fill="#f00"
       d="m162.5092,394.8405-12.3352,4.8743c-.6033,1.1073-1.1554,2.2532-1.6569,3.4242c-1.5008,3.4303-3.1551,6.7554-4.8454,10.0697c-2.5451,5.2208-4.9179,10.553-7.5804,15.7018c-2.8101,5.8285-5.6709,11.6221-8.2858,17.5686c-.301,.6777-.6019,1.3514-.9068,2.027c-1.2608-2.3466-2.5255-4.6882-3.7174-7.0787l-.5602-1.1981c-.1647-.3927-.309-.7855-.4831-1.173c-.4132-.9195-.9611-1.7822-1.2515-2.7664l-12.0572,6.4755c1.1154,1.5147 2.0463,3.1512 2.916,4.8557c1.5671,2.7049 3.1235,5.4221 4.5667,8.2144c1.0721,2.0733 2.0882,4.1843 3.0618,6.3192c.0541,.1086 .4583,.9382 .5694,1.0737c3.4586,4.2143 10.9518-5.255 12.7622-6.3915c.2499-.1568 .2115-.601 .3187-.9008c.1448-.4051 .2889-.808 .4363-1.212c1.6052-4.3536 3.5676-8.5195 5.3137-12.8001c2.499-5.8729 5.1482-11.6594 7.9237-17.3699c2.7165-5.3009 5.4-10.6192 8.1479-15.8991c1.9514-3.3746 3.6803-6.9018 5.4992-10.3664c.6192-1.2319 1.3982-2.3353 2.1644-3.4482z"
       id="path42" />
  </g>
  <g
     transform="matrix(.5879 0 0 .5879 438.22741 178.44524)"
     id="g44">
    <path
       fill="#f00"
       d="m-645.2135,240.095c2.7163,2.3071 5.7846,4.1435 8.6179,6.2907c1.0666,.8083 2.0853,1.6779 3.1279,2.5168c8.0327,6.3913 16.0799,12.7575 24.2754,18.9396c6.8048,5.1361 13.7058,10.1469 20.7269,14.9837c2.9104,2.0047 5.8679,3.9845 8.4676,6.3938c.0151,.014 2.6937,2.6827 2.8129,2.8015c1.3275,1.4915 2.5811,3.0469 3.7653,4.6539l-18.4225,7.145c-.9443-1.5761-1.9961-3.0868-3.1372-4.5277c-3.0758-3.4614-6.3817-6.6712-10.1578-9.3825c-6.509-5.245-12.8537-10.6876-19.4394-15.8378c-4.3275-3.3813-8.6412-6.7805-13.1007-9.9882c-3.1381-2.2572-5.282-3.6577-8.427-5.8459c-1.184-.8238-2.3571-1.6633-3.5357-2.4949c-4.3042-2.6545-8.7242-5.4615-13.6198-6.8783z"
       id="path46" />
    <path
       fill="#f00"
       d="m-656.586,300.5341c4.2452-6.2537 8.6436-12.4027 12.9317-18.6283c5.1738-7.6836 10.8338-15.0603 17.3208-21.6893c1.1842-1.2101 2.4386-2.3493 3.6579-3.524c6.8504-6.1562 14.1552-11.7816 21.6797-17.0834c9.7659-6.3351 20.0972-11.8546 30.2432-17.4899c.9625-.5346 1.996-.9299 2.9925-1.3982c4.2017-1.9746 1.2363-.6132 5.1881-2.4068c3.6513-1.6115 7.3379-3.1396 11.0121-4.6968c1.8486-.7304 3.4866-1.7769 5.1766-2.7965c0,0-20.1916,16.3367-20.1916,16.3367c-1.6357,.8808-3.3501,1.5927-5.0613,2.3143c-3.4986,1.4852-7.0506,2.8429-10.5294,4.376c-2.2952,1.0069-2.3952,1.0354-4.7941,2.1581c-.9226,.4318-3.6307,1.8409-2.7597,1.3127c33.3695-20.2377 18.2854-10.5143 10.7812-6.3716c-7.7891,5.1878-15.1789,10.9534-22.3409,16.9741c-1.2775,1.1463-2.5954,2.2491-3.8324,3.439c-6.5964,6.3456-12.4518,13.4292-17.2587,21.224c-.8654,1.3662-1.7164,2.7416-2.5962,4.0986c-2.7387,4.224-5.8238,8.3286-7.5335,13.1149c0,0-24.0859,10.7366-24.0859,10.7366z"
       id="path48" />
  </g>
  <g
     transform="translate(-55.59064 -288.77201)"
     id="g50">
    <path
       fill="#f00"
       d="m178.8216,493.9513-13.1765,1.5157c-.8693,.9134-1.6993,1.8774-2.4867,2.8787c-2.3375,2.925-4.7961,5.7086-7.2865,8.4726c-3.8096,4.3842-7.4817,8.9206-11.386,13.2048c-4.2229,4.9026-8.4857,9.7583-12.5506,14.8254c-.4661,.5767-.9312,1.1496-1.4005,1.7232c-.6105-2.593-1.2261-5.1821-1.7586-7.7997l-.2311-1.3023c-.0574-.422-.0952-.8387-.1631-1.258c-.1611-.9951-.467-1.9702-.4929-2.9961l-13.3224,3.1342c.6853,1.7518 1.161,3.5734 1.5599,5.445c.8136,3.0183 1.6138,6.0458 2.285,9.1165c.499,2.2802 .934,4.5822 1.322,6.8963c.0241,.1189 .1998,1.0249 .2721,1.1844c2.2499,4.9659 11.9387-2.2414 13.9816-2.8706c.2819-.0867 .3598-.5258 .541-.7876c.2448-.3539 .4882-.7057 .7352-1.0577c2.6773-3.7898 5.6511-7.3058 8.4456-10.9887c3.9339-5.026 7.9904-9.9296 12.1493-14.7273c3.9958-4.4172 7.9644-8.8598 11.9853-13.2485c2.7583-2.7546 5.3412-5.7141 7.9948-8.5899c.9169-1.0297 1.9549-1.8939 2.9831-2.7705z"
       id="path52" />
  </g>
</svg>
