<?xml version="1.0" encoding="UTF-8" standalone="no"?>
<svg
   xmlns:dc="http://purl.org/dc/elements/1.1/"
   xmlns:cc="http://creativecommons.org/ns#"
   xmlns:rdf="http://www.w3.org/1999/02/22-rdf-syntax-ns#"
   xmlns:svg="http://www.w3.org/2000/svg"
   xmlns="http://www.w3.org/2000/svg"
   xmlns:sodipodi="http://sodipodi.sourceforge.net/DTD/sodipodi-0.dtd"
   xmlns:inkscape="http://www.inkscape.org/namespaces/inkscape"
   viewBox="0 0 288.8187 432.0075"
   id="svg2"
   version="1.1"
   inkscape:version="0.48.4 r9939"
   width="100%"
   height="100%"
   sodipodi:docname="review2.svg">
  <metadata
     id="metadata58">
    <rdf:RDF>
      <cc:Work
         rdf:about="">
        <dc:format>image/svg+xml</dc:format>
        <dc:type
           rdf:resource="http://purl.org/dc/dcmitype/StillImage" />
        <dc:title />
      </cc:Work>
    </rdf:RDF>
  </metadata>
  <defs
     id="defs56" />
  <sodipodi:namedview
     pagecolor="#ffffff"
     bordercolor="#666666"
     borderopacity="1"
     objecttolerance="10"
     gridtolerance="10"
     guidetolerance="10"
     inkscape:pageopacity="0"
     inkscape:pageshadow="2"
     inkscape:window-width="1920"
     inkscape:window-height="1144"
     id="namedview54"
     showgrid="false"
     inkscape:zoom="1.5451324"
     inkscape:cx="187.36933"
     inkscape:cy="232.12125"
     inkscape:window-x="0"
     inkscape:window-y="27"
     inkscape:window-maximized="1"
     inkscape:current-layer="svg2" />
  <g
     id="g3004">
    <path
       d="m 16.60985,34.07899 h 255.5985 a 16.6099,16.6099 0 0 1 16.61,16.61 v 364.709 a 16.6099,16.6099 0 0 1 -16.61,16.609 H 16.60985 A 16.6099,16.6099 0 0 1 5e-5,415.39799 v -364.709 a 16.6099,16.6099 0 0 1 16.6098,-16.61"
       id="path6"
       inkscape:connector-curvature="0"
       style="fill:#000000" />
    <path
       d="m 17.87525,36.04899 h 253.0681 a 16.4454,16.4454 0 0 1 16.446,16.446 v 361.097 a 16.4454,16.4454 0 0 1 -16.446,16.446 H 17.87525 a 16.4454,16.4454 0 0 1 -16.4455,-16.446 v -361.097 a 16.4454,16.4454 0 0 1 16.4455,-16.446"
       id="path8"
       inkscape:connector-curvature="0"
       style="fill:#333333" />
    <path
       rx="0"
       ry="0"
       d="m 26.71956,58.75999 h 235.3798 v 332.894 H 26.71956 z"
       id="path12"
       inkscape:connector-curvature="0"
       style="fill:#666666" />
    <path
       d="m 30.14746,63.60799 h 228.5239 v 323.198 H 30.14746 z"
       id="path14"
       inkscape:connector-curvature="0"
       style="fill:#ffffff" />
    <path
       d="m 117.12236,140.51399 h 125.297 v 4.163 h -125.297 z"
       id="path16"
       inkscape:connector-curvature="0"
       style="fill:#b6b6b6;fill-rule:evenodd;stroke-width:1.25" />
    <path
       d="m 117.12236,161.69699 h 125.297 v 4.162 h -125.297 z"
       id="path18"
       inkscape:connector-curvature="0"
       style="fill:#b6b6b6;fill-rule:evenodd;stroke-width:1.25" />
    <path
       d="m 140.76866,-1e-5 c -15.8513,0 -28.5959,12.7446 -28.5959,28.5959 v 7.3145 c 0,2.1595 0.2458,4.2351 0.695,6.2554 h -24.5912 c -4.5473,0 -8.2081,3.6608 -8.2081,8.2081 v 7.6785 5.5603 10.3263 h 8.2081 112.2654 8.2081 v -10.3263 -5.5603 -7.6785 c 0,-4.5473 -3.6608,-8.2081 -8.2081,-8.2081 h -24.5581 c 0.4486,-2.0189 0.695,-4.0976 0.695,-6.2554 v -7.3145 c 0,-15.8513 -12.7777,-28.5959 -28.629,-28.5959 h -7.2814 z m 3.6407,18.9315 c 7.3591,0 13.3381,5.979 13.3381,13.3381 0,7.3591 -5.979,13.305 -13.3381,13.305 -7.3591,0 -13.305,-5.9459 -13.305,-13.305 0,-7.3591 5.946,-13.3381 13.305,-13.3381 z"
       id="path20"
       inkscape:connector-curvature="0"
       style="fill:#b6b6b6" />
    <path
       d="m 46.96836,130.03499 h 55.418 v 55.418 h -55.418 z"
       id="path22"
       inkscape:connector-curvature="0"
       style="fill:none;stroke:#4d4d4d;stroke-width:4" />
    <path
       d="m 46.96836,308.27299 h 55.418 v 55.419 h -55.418 z"
       id="path24"
       inkscape:connector-curvature="0"
       style="fill:none;stroke:#4d4d4d;stroke-width:4" />
    <path
       d="m 117.12236,182.87899 h 125.297 v 4.162 h -125.297 z"
       id="path26"
       inkscape:connector-curvature="0"
       style="fill:#b6b6b6;fill-rule:evenodd;stroke-width:1.25" />
    <path
       d="m 117.12236,225.24299 h 125.297 v 4.163 h -125.297 z"
       id="path28"
       inkscape:connector-curvature="0"
       style="fill:#b6b6b6;fill-rule:evenodd;stroke-width:1.25" />
    <path
       d="m 117.12236,246.42499 h 125.297 v 4.163 h -125.297 z"
       id="path30"
       inkscape:connector-curvature="0"
       style="fill:#b6b6b6;fill-rule:evenodd;stroke-width:1.25" />
    <path
       d="m 117.12236,267.60699 h 125.297 v 4.163 h -125.297 z"
       id="path32"
       inkscape:connector-curvature="0"
       style="fill:#b6b6b6;fill-rule:evenodd;stroke-width:1.25" />
    <path
       d="m 117.12236,309.97199 h 125.297 v 4.162 h -125.297 z"
       id="path34"
       inkscape:connector-curvature="0"
       style="fill:#b6b6b6;fill-rule:evenodd;stroke-width:1.25" />
    <path
       d="m 117.12236,331.15399 h 125.297 v 4.162 h -125.297 z"
       id="path36"
       inkscape:connector-curvature="0"
       style="fill:#b6b6b6;fill-rule:evenodd;stroke-width:1.25" />
    <path
       d="m 117.12236,352.33599 h 125.297 v 4.163 h -125.297 z"
       id="path38"
       inkscape:connector-curvature="0"
       style="fill:#b6b6b6;fill-rule:evenodd;stroke-width:1.25" />
    <path
       d="m 46.96836,219.15399 h 55.418 v 55.419 h -55.418 z"
       id="path40"
       inkscape:connector-curvature="0"
       style="fill:none;stroke:#4d4d4d;stroke-width:4" />
    <path
       d="m 106.91856,106.06849 -12.3352,4.8743 c -0.6033,1.1073 -1.1554,2.2532 -1.6569,3.4242 -1.5008,3.4303 -3.1551,6.7554 -4.8454,10.0697 -2.5451,5.2208 -4.9179,10.553 -7.5804,15.7018 -2.8101,5.8285 -5.6709,11.6221 -8.2858,17.5686 -0.301,0.6777 -0.6019,1.3514 -0.9068,2.027 -1.2608,-2.3466 -2.5255,-4.6882 -3.7174,-7.0787 l -0.5602,-1.1981 c -0.1647,-0.3927 -0.309,-0.7855 -0.4831,-1.173 -0.4132,-0.9195 -0.9611,-1.7822 -1.2515,-2.7664 l -12.0572,6.4755 c 1.1154,1.5147 2.0463,3.1512 2.916,4.8557 1.5671,2.7049 3.1235,5.4221 4.5667,8.2144 1.0721,2.0733 2.0882,4.1843 3.0618,6.3192 0.0541,0.1086 0.4583,0.9382 0.5694,1.0737 3.4586,4.2143 10.9518,-5.255 12.7622,-6.3915 0.2499,-0.1568 0.2115,-0.601 0.3187,-0.9008 0.1448,-0.4051 0.2889,-0.808 0.4363,-1.212 1.6052,-4.3536 3.5676,-8.5195 5.3137,-12.8001 2.499,-5.8729 5.1482,-11.6594 7.9237,-17.3699 2.7165,-5.3009 5.4,-10.6192 8.1479,-15.8991 1.9514,-3.3746 3.6803,-6.9018 5.4992,-10.3664 0.6192,-1.2319 1.3982,-2.3353 2.1644,-3.4482 z"
       id="path42"
       inkscape:connector-curvature="0"
       style="fill:#008000" />
    <g
       style="fill:#008000"
       id="g44"
       transform="matrix(0.5879,0,0,0.5879,440.16899,89.779698)">
      <path
         style="fill:#008000"
         inkscape:connector-curvature="0"
         id="path46"
         d="m -645.2135,240.095 c 2.7163,2.3071 5.7846,4.1435 8.6179,6.2907 1.0666,0.8083 2.0853,1.6779 3.1279,2.5168 8.0327,6.3913 16.0799,12.7575 24.2754,18.9396 6.8048,5.1361 13.7058,10.1469 20.7269,14.9837 2.9104,2.0047 5.8679,3.9845 8.4676,6.3938 0.0151,0.014 2.6937,2.6827 2.8129,2.8015 1.3275,1.4915 2.5811,3.0469 3.7653,4.6539 l -18.4225,7.145 c -0.9443,-1.5761 -1.9961,-3.0868 -3.1372,-4.5277 -3.0758,-3.4614 -6.3817,-6.6712 -10.1578,-9.3825 -6.509,-5.245 -12.8537,-10.6876 -19.4394,-15.8378 -4.3275,-3.3813 -8.6412,-6.7805 -13.1007,-9.9882 -3.1381,-2.2572 -5.282,-3.6577 -8.427,-5.8459 -1.184,-0.8238 -2.3571,-1.6633 -3.5357,-2.4949 -4.3042,-2.6545 -8.7242,-5.4615 -13.6198,-6.8783 z" />
      <path
         style="fill:#008000"
         inkscape:connector-curvature="0"
         id="path48"
         d="m -656.586,300.5341 c 4.2452,-6.2537 8.6436,-12.4027 12.9317,-18.6283 5.1738,-7.6836 10.8338,-15.0603 17.3208,-21.6893 1.1842,-1.2101 2.4386,-2.3493 3.6579,-3.524 6.8504,-6.1562 14.1552,-11.7816 21.6797,-17.0834 9.7659,-6.3351 20.0972,-11.8546 30.2432,-17.4899 0.9625,-0.5346 1.996,-0.9299 2.9925,-1.3982 4.2017,-1.9746 1.2363,-0.6132 5.1881,-2.4068 3.6513,-1.6115 7.3379,-3.1396 11.0121,-4.6968 1.8486,-0.7304 3.4866,-1.7769 5.1766,-2.7965 0,0 -20.1916,16.3367 -20.1916,16.3367 -1.6357,0.8808 -3.3501,1.5927 -5.0613,2.3143 -3.4986,1.4852 -7.0506,2.8429 -10.5294,4.376 -2.2952,1.0069 -2.3952,1.0354 -4.7941,2.1581 -0.9226,0.4318 -3.6307,1.8409 -2.7597,1.3127 33.3695,-20.2377 18.2854,-10.5143 10.7812,-6.3716 -7.7891,5.1878 -15.1789,10.9534 -22.3409,16.9741 -1.2775,1.1463 -2.5954,2.2491 -3.8324,3.439 -6.5964,6.3456 -12.4518,13.4292 -17.2587,21.224 -0.8654,1.3662 -1.7164,2.7416 -2.5962,4.0986 -2.7387,4.224 -5.8238,8.3286 -7.5335,13.1149 0,0 -24.0859,10.7366 -24.0859,10.7366 z" />
    </g>
    <g
       style="fill:#008000"
       id="g50"
       transform="translate(-61.415382,-192.98734)">
      <path
         style="fill:#008000"
         inkscape:connector-curvature="0"
         id="path52"
         d="m 178.8216,493.9513 -13.1765,1.5157 c -0.8693,0.9134 -1.6993,1.8774 -2.4867,2.8787 -2.3375,2.925 -4.7961,5.7086 -7.2865,8.4726 -3.8096,4.3842 -7.4817,8.9206 -11.386,13.2048 -4.2229,4.9026 -8.4857,9.7583 -12.5506,14.8254 -0.4661,0.5767 -0.9312,1.1496 -1.4005,1.7232 -0.6105,-2.593 -1.2261,-5.1821 -1.7586,-7.7997 l -0.2311,-1.3023 c -0.0574,-0.422 -0.0952,-0.8387 -0.1631,-1.258 -0.1611,-0.9951 -0.467,-1.9702 -0.4929,-2.9961 l -13.3224,3.1342 c 0.6853,1.7518 1.161,3.5734 1.5599,5.445 0.8136,3.0183 1.6138,6.0458 2.285,9.1165 0.499,2.2802 0.934,4.5822 1.322,6.8963 0.0241,0.1189 0.1998,1.0249 0.2721,1.1844 2.2499,4.9659 11.9387,-2.2414 13.9816,-2.8706 0.2819,-0.0867 0.3598,-0.5258 0.541,-0.7876 0.2448,-0.3539 0.4882,-0.7057 0.7352,-1.0577 2.6773,-3.7898 5.6511,-7.3058 8.4456,-10.9887 3.9339,-5.026 7.9904,-9.9296 12.1493,-14.7273 3.9958,-4.4172 7.9644,-8.8598 11.9853,-13.2485 2.7583,-2.7546 5.3412,-5.7141 7.9948,-8.5899 0.9169,-1.0297 1.9549,-1.8939 2.9831,-2.7705 z" />
    </g>
  </g>
</svg>
