<?xml version="1.0" encoding="UTF-8" standalone="no"?>
<svg
   xmlns:dc="http://purl.org/dc/elements/1.1/"
   xmlns:cc="http://creativecommons.org/ns#"
   xmlns:rdf="http://www.w3.org/1999/02/22-rdf-syntax-ns#"
   xmlns:svg="http://www.w3.org/2000/svg"
   xmlns="http://www.w3.org/2000/svg"
   xmlns:sodipodi="http://sodipodi.sourceforge.net/DTD/sodipodi-0.dtd"
   xmlns:inkscape="http://www.inkscape.org/namespaces/inkscape"
   viewBox="0 0 288.8187 432.0075"
   id="svg2"
   version="1.1"
   inkscape:version="0.48.4 r9939"
   width="100%"
   height="100%"
   sodipodi:docname="clipboard.svg">
  <metadata
     id="metadata58">
    <rdf:RDF>
      <cc:Work
         rdf:about="">
        <dc:format>image/svg+xml</dc:format>
        <dc:type
           rdf:resource="http://purl.org/dc/dcmitype/StillImage" />
        <dc:title></dc:title>
      </cc:Work>
    </rdf:RDF>
  </metadata>
  <defs
     id="defs56" />
  <sodipodi:namedview
     pagecolor="#ffffff"
     bordercolor="#666666"
     borderopacity="1"
     objecttolerance="10"
     gridtolerance="10"
     guidetolerance="10"
     inkscape:pageopacity="0"
     inkscape:pageshadow="2"
     inkscape:window-width="1920"
     inkscape:window-height="1144"
     id="namedview54"
     showgrid="false"
     inkscape:zoom="1.5451324"
     inkscape:cx="71.198051"
     inkscape:cy="232.12125"
     inkscape:window-x="0"
     inkscape:window-y="27"
     inkscape:window-maximized="1"
     inkscape:current-layer="svg2" />
  <g
     id="g3792">
    <path
       d="m 16.60985,34.07899 h 255.5985 a 16.6099,16.6099 0 0 1 16.61,16.61 v 364.709 a 16.6099,16.6099 0 0 1 -16.61,16.609 H 16.60985 A 16.6099,16.6099 0 0 1 5e-5,415.39799 v -364.709 a 16.6099,16.6099 0 0 1 16.6098,-16.61"
       id="path6"
       inkscape:connector-curvature="0"
       style="fill:#000000" />
    <path
       d="m 17.87525,36.04899 h 253.0681 a 16.4454,16.4454 0 0 1 16.446,16.446 v 361.097 a 16.4454,16.4454 0 0 1 -16.446,16.446 H 17.87525 a 16.4454,16.4454 0 0 1 -16.4455,-16.446 v -361.097 a 16.4454,16.4454 0 0 1 16.4455,-16.446"
       id="path8"
       inkscape:connector-curvature="0"
       style="fill:#333333" />
    <path
       rx="0"
       ry="0"
       d="m 26.71956,58.75999 h 235.3798 v 332.894 H 26.71956 z"
       id="path12"
       inkscape:connector-curvature="0"
       style="fill:#666666" />
    <path
       d="m 30.14746,63.60799 h 228.5239 v 323.198 H 30.14746 z"
       id="path14"
       inkscape:connector-curvature="0"
       style="fill:#ffffff" />
    <path
       d="m 117.12236,140.51399 h 125.297 v 4.163 h -125.297 z"
       id="path16"
       inkscape:connector-curvature="0"
       style="fill:#b6b6b6;fill-rule:evenodd;stroke-width:1.25" />
    <path
       d="m 117.12236,161.69699 h 125.297 v 4.162 h -125.297 z"
       id="path18"
       inkscape:connector-curvature="0"
       style="fill:#b6b6b6;fill-rule:evenodd;stroke-width:1.25" />
    <path
       d="m 140.76866,-1e-5 c -15.8513,0 -28.5959,12.7446 -28.5959,28.5959 v 7.3145 c 0,2.1595 0.2458,4.2351 0.695,6.2554 h -24.5912 c -4.5473,0 -8.2081,3.6608 -8.2081,8.2081 v 7.6785 5.5603 10.3263 h 8.2081 112.2654 8.2081 v -10.3263 -5.5603 -7.6785 c 0,-4.5473 -3.6608,-8.2081 -8.2081,-8.2081 h -24.5581 c 0.4486,-2.0189 0.695,-4.0976 0.695,-6.2554 v -7.3145 c 0,-15.8513 -12.7777,-28.5959 -28.629,-28.5959 h -7.2814 z m 3.6407,18.9315 c 7.3591,0 13.3381,5.979 13.3381,13.3381 0,7.3591 -5.979,13.305 -13.3381,13.305 -7.3591,0 -13.305,-5.9459 -13.305,-13.305 0,-7.3591 5.946,-13.3381 13.305,-13.3381 z"
       id="path20"
       inkscape:connector-curvature="0"
       style="fill:#b6b6b6" />
    <path
       d="m 46.96836,130.03499 h 55.418 v 55.418 h -55.418 z"
       id="path22"
       inkscape:connector-curvature="0"
       style="fill:none;stroke:#4d4d4d;stroke-width:4" />
    <path
       d="m 46.96836,308.27299 h 55.418 v 55.419 h -55.418 z"
       id="path24"
       inkscape:connector-curvature="0"
       style="fill:none;stroke:#4d4d4d;stroke-width:4" />
    <path
       d="m 117.12236,182.87899 h 125.297 v 4.162 h -125.297 z"
       id="path26"
       inkscape:connector-curvature="0"
       style="fill:#b6b6b6;fill-rule:evenodd;stroke-width:1.25" />
    <path
       d="m 117.12236,225.24299 h 125.297 v 4.163 h -125.297 z"
       id="path28"
       inkscape:connector-curvature="0"
       style="fill:#b6b6b6;fill-rule:evenodd;stroke-width:1.25" />
    <path
       d="m 117.12236,246.42499 h 125.297 v 4.163 h -125.297 z"
       id="path30"
       inkscape:connector-curvature="0"
       style="fill:#b6b6b6;fill-rule:evenodd;stroke-width:1.25" />
    <path
       d="m 117.12236,267.60699 h 125.297 v 4.163 h -125.297 z"
       id="path32"
       inkscape:connector-curvature="0"
       style="fill:#b6b6b6;fill-rule:evenodd;stroke-width:1.25" />
    <path
       d="m 117.12236,309.97199 h 125.297 v 4.162 h -125.297 z"
       id="path34"
       inkscape:connector-curvature="0"
       style="fill:#b6b6b6;fill-rule:evenodd;stroke-width:1.25" />
    <path
       d="m 117.12236,331.15399 h 125.297 v 4.162 h -125.297 z"
       id="path36"
       inkscape:connector-curvature="0"
       style="fill:#b6b6b6;fill-rule:evenodd;stroke-width:1.25" />
    <path
       d="m 117.12236,352.33599 h 125.297 v 4.163 h -125.297 z"
       id="path38"
       inkscape:connector-curvature="0"
       style="fill:#b6b6b6;fill-rule:evenodd;stroke-width:1.25" />
    <path
       d="m 46.96836,219.15399 h 55.418 v 55.419 h -55.418 z"
       id="path40"
       inkscape:connector-curvature="0"
       style="fill:none;stroke:#4d4d4d;stroke-width:4" />
    <path
       d="m 106.91856,106.06849 -12.3352,4.8743 c -0.6033,1.1073 -1.1554,2.2532 -1.6569,3.4242 -1.5008,3.4303 -3.1551,6.7554 -4.8454,10.0697 -2.5451,5.2208 -4.9179,10.553 -7.5804,15.7018 -2.8101,5.8285 -5.6709,11.6221 -8.2858,17.5686 -0.301,0.6777 -0.6019,1.3514 -0.9068,2.027 -1.2608,-2.3466 -2.5255,-4.6882 -3.7174,-7.0787 l -0.5602,-1.1981 c -0.1647,-0.3927 -0.309,-0.7855 -0.4831,-1.173 -0.4132,-0.9195 -0.9611,-1.7822 -1.2515,-2.7664 l -12.0572,6.4755 c 1.1154,1.5147 2.0463,3.1512 2.916,4.8557 1.5671,2.7049 3.1235,5.4221 4.5667,8.2144 1.0721,2.0733 2.0882,4.1843 3.0618,6.3192 0.0541,0.1086 0.4583,0.9382 0.5694,1.0737 3.4586,4.2143 10.9518,-5.255 12.7622,-6.3915 0.2499,-0.1568 0.2115,-0.601 0.3187,-0.9008 0.1448,-0.4051 0.2889,-0.808 0.4363,-1.212 1.6052,-4.3536 3.5676,-8.5195 5.3137,-12.8001 2.499,-5.8729 5.1482,-11.6594 7.9237,-17.3699 2.7165,-5.3009 5.4,-10.6192 8.1479,-15.8991 1.9514,-3.3746 3.6803,-6.9018 5.4992,-10.3664 0.6192,-1.2319 1.3982,-2.3353 2.1644,-3.4482 z"
       id="path42"
       inkscape:connector-curvature="0"
       style="fill:#ff0000" />
    <path
       d="m 58.906393,319.59709 c 1.596913,1.35634 3.400767,2.43596 5.066464,3.6983 0.627054,0.4752 1.225948,0.98644 1.838892,1.47963 4.722425,3.75745 9.453373,7.50013 14.271508,11.13459 4.000542,3.01951 8.05764,5.96536 12.185344,8.80892 1.711024,1.17856 3.449739,2.34249 4.978102,3.75891 0.0089,0.008 1.583627,1.57716 1.653704,1.647 0.780438,0.87686 1.517433,1.79128 2.213623,2.73603 l -10.830591,4.20055 c -0.555154,-0.92659 -1.173507,-1.81473 -1.844359,-2.66184 -1.808263,-2.03495 -3.751802,-3.922 -5.971771,-5.51597 -3.826641,-3.08353 -7.55669,-6.28324 -11.428423,-9.31104 -2.544138,-1.98787 -5.080162,-3.98626 -7.701902,-5.87206 -1.844889,-1.32701 -3.105288,-2.15037 -4.954233,-3.43681 -0.696074,-0.48431 -1.385739,-0.97785 -2.078638,-1.46675 -2.530439,-1.56058 -5.128957,-3.21082 -8.007081,-4.04375 z"
       id="path46"
       inkscape:connector-curvature="0"
       style="fill:#1800ff;fill-opacity:1" />
    <path
       d="m 52.220501,355.12924 c 2.495753,-3.67655 5.081572,-7.29155 7.602546,-10.95158 3.041677,-4.51719 6.369191,-8.85395 10.182898,-12.75114 0.696192,-0.71142 1.433653,-1.38115 2.15048,-2.07176 4.02735,-3.61923 8.321842,-6.9264 12.745495,-10.04333 5.741373,-3.72441 11.815144,-6.96932 17.77998,-10.28231 0.56585,-0.31429 1.17345,-0.54669 1.75929,-0.822 2.47018,-1.16087 0.72682,-0.3605 3.05008,-1.41496 2.1466,-0.9474 4.31395,-1.84577 6.47402,-2.76125 1.08679,-0.4294 2.04977,-1.04464 3.04332,-1.64406 0,0 -11.87064,9.60434 -11.87064,9.60434 -0.96163,0.51783 -1.96953,0.93635 -2.97554,1.36058 -2.05683,0.87315 -4.145049,1.67134 -6.190235,2.57265 -1.349348,0.59196 -1.408138,0.60871 -2.818451,1.26875 -0.542397,0.25385 -2.134489,1.08226 -1.622428,0.77173 19.617934,-11.89774 10.749984,-6.18135 6.338267,-3.74586 -4.579211,3.04991 -8.923675,6.4395 -13.134215,9.97907 -0.751042,0.67391 -1.525835,1.32225 -2.253068,2.02179 -3.878023,3.73058 -7.320413,7.89503 -10.146389,12.47759 -0.508769,0.80319 -1.009072,1.61179 -1.526306,2.40957 -1.610082,2.48329 -3.423812,4.89638 -4.428945,7.71025 0,0 -14.160101,6.31204 -14.160101,6.31204 z"
       id="path48"
       inkscape:connector-curvature="0"
       style="fill:#000cff;fill-opacity:1" />
    <path
       d="m 123.23096,205.17929 -13.1765,1.5157 c -0.8693,0.9134 -1.6993,1.8774 -2.4867,2.8787 -2.3375,2.925 -4.7961,5.7086 -7.2865,8.4726 -3.8096,4.3842 -7.4817,8.9206 -11.386,13.2048 -4.2229,4.9026 -8.4857,9.7583 -12.5506,14.8254 -0.4661,0.5767 -0.9312,1.1496 -1.4005,1.7232 -0.6105,-2.593 -1.2261,-5.1821 -1.7586,-7.7997 l -0.2311,-1.3023 c -0.0574,-0.422 -0.0952,-0.8387 -0.1631,-1.258 -0.1611,-0.9951 -0.467,-1.9702 -0.4929,-2.9961 l -13.3224,3.1342 c 0.6853,1.7518 1.161,3.5734 1.5599,5.445 0.8136,3.0183 1.6138,6.0458 2.285,9.1165 0.499,2.2802 0.934,4.5822 1.322,6.8963 0.0241,0.1189 0.1998,1.0249 0.2721,1.1844 2.2499,4.9659 11.9387,-2.2414 13.9816,-2.8706 0.2819,-0.0867 0.3598,-0.5258 0.541,-0.7876 0.2448,-0.3539 0.4882,-0.7057 0.7352,-1.0577 2.6773,-3.7898 5.6511,-7.3058 8.4456,-10.9887 3.9339,-5.026 7.9904,-9.9296 12.1493,-14.7273 3.9958,-4.4172 7.9644,-8.8598 11.9853,-13.2485 2.7583,-2.7546 5.3412,-5.7141 7.9948,-8.5899 0.9169,-1.0297 1.9549,-1.8939 2.9831,-2.7705 z"
       id="path52"
       inkscape:connector-curvature="0"
       style="fill:#00ac03;fill-opacity:1" />
  </g>
</svg>
