<?xml version="1.0" encoding="UTF-8" standalone="no"?>
<!-- Created with Inkscape (http://www.inkscape.org/) -->

<svg
   xmlns:dc="http://purl.org/dc/elements/1.1/"
   xmlns:cc="http://creativecommons.org/ns#"
   xmlns:rdf="http://www.w3.org/1999/02/22-rdf-syntax-ns#"
   xmlns:svg="http://www.w3.org/2000/svg"
   xmlns="http://www.w3.org/2000/svg"
   xmlns:sodipodi="http://sodipodi.sourceforge.net/DTD/sodipodi-0.dtd"
   xmlns:inkscape="http://www.inkscape.org/namespaces/inkscape"
   width="486.0354"
   height="1005.8309"
   id="svg2"
   version="1.1"
   inkscape:version="0.48.4 r9939"
   sodipodi:docname="message.svg">
  <defs
     id="defs4" />
  <sodipodi:namedview
     id="base"
     pagecolor="#ffffff"
     bordercolor="#666666"
     borderopacity="1.0"
     inkscape:pageopacity="0.0"
     inkscape:pageshadow="2"
     inkscape:zoom="0.35"
     inkscape:cx="-254.97034"
     inkscape:cy="503.65029"
     inkscape:document-units="px"
     inkscape:current-layer="layer1"
     showgrid="false"
     fit-margin-top="0"
     fit-margin-left="0"
     fit-margin-right="0"
     fit-margin-bottom="0"
     inkscape:window-width="1920"
     inkscape:window-height="1144"
     inkscape:window-x="0"
     inkscape:window-y="27"
     inkscape:window-maximized="1" />
  <metadata
     id="metadata7">
    <rdf:RDF>
      <cc:Work
         rdf:about="">
        <dc:format>image/svg+xml</dc:format>
        <dc:type
           rdf:resource="http://purl.org/dc/dcmitype/StillImage" />
        <dc:title></dc:title>
      </cc:Work>
    </rdf:RDF>
  </metadata>
  <g
     inkscape:label="Layer 1"
     inkscape:groupmode="layer"
     id="layer1"
     transform="translate(-134.25606,-30.18155)">
    <g
       transform="matrix(2.5,0,0,-2.5,134.03714,1126.8759)"
       inkscape:label="shared"
       id="g10906">
      <g
         transform="scale(0.1,0.1)"
         id="g10908">
        <path
           id="path10910"
           style="fill:#ffffff;fill-opacity:1;fill-rule:nonzero;stroke:none"
           d="m 443.438,2058.02 884.043,0 0,780.035 -884.043,0 0,-780.035 z"
           inkscape:connector-curvature="0" />
        <path
           id="path10912"
           style="fill:#ffffff;fill-opacity:1;fill-rule:nonzero;stroke:none"
           d="m 1327.48,2058.02 c 0,-71.8 -197.9,-130 -442.019,-130 -244.121,0 -442.023,58.2 -442.023,130 0,71.8 197.902,130.01 442.023,130.01 244.119,0 442.019,-58.21 442.019,-130.01"
           inkscape:connector-curvature="0" />
        <path
           id="path10914"
           style="fill:#ffffff;fill-opacity:1;fill-rule:nonzero;stroke:none"
           d="m 1327.48,2838.06 c 0,-71.8 -197.9,-130.01 -442.019,-130.01 -244.121,0 -442.023,58.21 -442.023,130.01 0,71.8 197.902,130 442.023,130 244.119,0 442.019,-58.2 442.019,-130"
           inkscape:connector-curvature="0" />
        <path
           id="path10916"
           style="fill:none;stroke:#000000;stroke-width:28.34600067;stroke-linecap:butt;stroke-linejoin:miter;stroke-miterlimit:10;stroke-opacity:1;stroke-dasharray:none"
           d="m 1327.48,2838.06 c 0,-71.8 -197.9,-130.01 -442.019,-130.01 -244.121,0 -442.023,58.21 -442.023,130.01 0,71.8 197.902,130 442.023,130 244.119,0 442.019,-58.2 442.019,-130 z"
           inkscape:connector-curvature="0" />
        <path
           id="path10918"
           style="fill:none;stroke:#000000;stroke-width:28.34600067;stroke-linecap:butt;stroke-linejoin:miter;stroke-miterlimit:10;stroke-opacity:1;stroke-dasharray:none"
           d="m 1327.48,2838.06 0,-780.04 c 0,-71.8 -197.9,-130 -442.019,-130 -244.121,0 -442.023,58.2 -442.023,130 l 0,780.04"
           inkscape:connector-curvature="0" />
        <path
           id="path10920"
           style="fill:#b3b3b3;fill-opacity:1;fill-rule:nonzero;stroke:none"
           d="m 1473.96,3510.31 370.77,0 0,865.129 -370.77,0 0,-865.129 z"
           inkscape:connector-curvature="0" />
        <path
           id="path10922"
           style="fill:none;stroke:#000000;stroke-width:22.67679977;stroke-linecap:butt;stroke-linejoin:miter;stroke-miterlimit:10;stroke-opacity:1;stroke-dasharray:none"
           d="m 1473.96,3510.31 370.77,0 0,865.129 -370.77,0 0,-865.129 z"
           inkscape:connector-curvature="0" />
        <path
           id="path10924"
           style="fill:none;stroke:#000000;stroke-width:2.83459997;stroke-linecap:butt;stroke-linejoin:miter;stroke-miterlimit:10;stroke-opacity:1;stroke-dasharray:none"
           d="m 1511.04,4224.66 296.613,0 0,98.8711 -296.613,0 0,-98.8711 z"
           inkscape:connector-curvature="0" />
        <path
           id="path10926"
           style="fill:none;stroke:#000000;stroke-width:2.83459997;stroke-linecap:butt;stroke-linejoin:miter;stroke-miterlimit:10;stroke-opacity:1;stroke-dasharray:none"
           d="m 1511.04,4125.79 296.613,0 0,98.875 -296.613,0 0,-98.875 z"
           inkscape:connector-curvature="0" />
        <path
           id="path10928"
           style="fill:none;stroke:#000000;stroke-width:2.83459997;stroke-linecap:butt;stroke-linejoin:miter;stroke-miterlimit:10;stroke-opacity:1;stroke-dasharray:none"
           d="m 1511.04,4026.92 296.613,0 0,98.8711 -296.613,0 0,-98.8711 z"
           inkscape:connector-curvature="0" />
        <path
           id="path10930"
           style="fill:none;stroke:#000000;stroke-width:2.83459997;stroke-linecap:butt;stroke-linejoin:miter;stroke-miterlimit:10;stroke-opacity:1;stroke-dasharray:none"
           d="m 1511.04,3928.05 296.613,0 0,98.8711 -296.613,0 0,-98.8711 z"
           inkscape:connector-curvature="0" />
        <path
           id="path10932"
           style="fill:none;stroke:#000000;stroke-width:2.83459997;stroke-linecap:butt;stroke-linejoin:miter;stroke-miterlimit:10;stroke-opacity:1;stroke-dasharray:none"
           d="m 1511.04,3848.95 185.383,0 0,59.3242 -185.383,0 0,-59.3242 z"
           inkscape:connector-curvature="0" />
        <path
           id="path10934"
           style="fill:#00ff00;fill-opacity:1;fill-rule:nonzero;stroke:none"
           d="m 1802.09,3898.39 c 0,-7.17 -5.81,-12.98 -12.98,-12.98 -7.16,0 -12.97,5.81 -12.97,12.98 0,7.16 5.81,12.97 12.97,12.97 7.17,0 12.98,-5.81 12.98,-12.97"
           inkscape:connector-curvature="0" />
        <path
           id="path10936"
           style="fill:none;stroke:#000000;stroke-width:2.83459997;stroke-linecap:butt;stroke-linejoin:miter;stroke-miterlimit:10;stroke-opacity:1;stroke-dasharray:none"
           d="m 1802.09,3898.39 c 0,-7.17 -5.81,-12.98 -12.98,-12.98 -7.16,0 -12.97,5.81 -12.97,12.98 0,7.16 5.81,12.97 12.97,12.97 7.17,0 12.98,-5.81 12.98,-12.97 z"
           inkscape:connector-curvature="0" />
        <path
           id="path10938"
           style="fill:#ffff00;fill-opacity:1;fill-rule:nonzero;stroke:none"
           d="m 1802.09,3858.84 c 0,-7.17 -5.81,-12.98 -12.98,-12.98 -7.16,0 -12.97,5.81 -12.97,12.98 0,7.16 5.81,12.97 12.97,12.97 7.17,0 12.98,-5.81 12.98,-12.97"
           inkscape:connector-curvature="0" />
        <path
           id="path10940"
           style="fill:none;stroke:#000000;stroke-width:2.83459997;stroke-linecap:butt;stroke-linejoin:miter;stroke-miterlimit:10;stroke-opacity:1;stroke-dasharray:none"
           d="m 1802.09,3858.84 c 0,-7.17 -5.81,-12.98 -12.98,-12.98 -7.16,0 -12.97,5.81 -12.97,12.98 0,7.16 5.81,12.97 12.97,12.97 7.17,0 12.98,-5.81 12.98,-12.97 z"
           inkscape:connector-curvature="0" />
        <path
           id="path10942"
           style="fill:#ffffff;fill-opacity:1;fill-rule:nonzero;stroke:none"
           d="m 1714.96,3848.95 44.4922,0 0,39.5508 -44.4922,0 0,-39.5508 z"
           inkscape:connector-curvature="0" />
        <path
           id="path10944"
           style="fill:none;stroke:#000000;stroke-width:2.83459997;stroke-linecap:butt;stroke-linejoin:miter;stroke-miterlimit:10;stroke-opacity:1;stroke-dasharray:none"
           d="m 1714.96,3848.95 44.4922,0 0,39.5508 -44.4922,0 0,-39.5508 z"
           inkscape:connector-curvature="0" />
        <path
           id="path10946"
           style="fill:none;stroke:#000000;stroke-width:2.83459997;stroke-linecap:butt;stroke-linejoin:miter;stroke-miterlimit:10;stroke-opacity:1;stroke-dasharray:none"
           d="m 1535.75,3769.85 0,-216.28"
           inkscape:connector-curvature="0" />
        <path
           id="path10948"
           style="fill:none;stroke:#000000;stroke-width:2.83459997;stroke-linecap:butt;stroke-linejoin:miter;stroke-miterlimit:10;stroke-opacity:1;stroke-dasharray:none"
           d="m 1597.55,3769.85 0,-216.28"
           inkscape:connector-curvature="0" />
        <path
           id="path10950"
           style="fill:none;stroke:#000000;stroke-width:2.83459997;stroke-linecap:butt;stroke-linejoin:miter;stroke-miterlimit:10;stroke-opacity:1;stroke-dasharray:none"
           d="m 1659.34,3769.85 0,-216.28"
           inkscape:connector-curvature="0" />
        <path
           id="path10952"
           style="fill:none;stroke:#000000;stroke-width:2.83459997;stroke-linecap:butt;stroke-linejoin:miter;stroke-miterlimit:10;stroke-opacity:1;stroke-dasharray:none"
           d="m 1721.14,3769.85 0,-216.28"
           inkscape:connector-curvature="0" />
        <path
           id="path10954"
           style="fill:none;stroke:#000000;stroke-width:2.83459997;stroke-linecap:butt;stroke-linejoin:miter;stroke-miterlimit:10;stroke-opacity:1;stroke-dasharray:none"
           d="m 1782.93,3769.85 0,-216.28"
           inkscape:connector-curvature="0" />
        <path
           id="path10956"
           style="fill:none;stroke:#000000;stroke-width:2.83459997;stroke-linecap:butt;stroke-linejoin:miter;stroke-miterlimit:10;stroke-opacity:1;stroke-dasharray:none"
           d="m 1844.73,3769.85 0,-216.28"
           inkscape:connector-curvature="0" />
        <path
           id="path10958"
           style="fill:#999999;fill-opacity:1;fill-rule:evenodd;stroke:none"
           d="m 1399.81,3436.16 74.15,148.3 0,-74.15 370.77,0 0,74.15 98.87,-148.3"
           inkscape:connector-curvature="0" />
        <path
           id="path10960"
           style="fill:none;stroke:#000000;stroke-width:2.83459997;stroke-linecap:butt;stroke-linejoin:miter;stroke-miterlimit:10;stroke-opacity:1;stroke-dasharray:none"
           d="m 1399.81,3436.16 74.15,148.3 0,-74.15 370.77,0 0,74.15 98.87,-148.3 -543.79,0 z"
           inkscape:connector-curvature="0" />
        <path
           id="path10962"
           style="fill:#b3b3b3;fill-opacity:1;fill-rule:nonzero;stroke:none"
           d="m 1473.96,439.023 370.77,0 0,865.129 -370.77,0 0,-865.129 z"
           inkscape:connector-curvature="0" />
        <path
           id="path10964"
           style="fill:none;stroke:#000000;stroke-width:22.67679977;stroke-linecap:butt;stroke-linejoin:miter;stroke-miterlimit:10;stroke-opacity:1;stroke-dasharray:none"
           d="m 1473.96,439.023 370.77,0 0,865.129 -370.77,0 0,-865.129 z"
           inkscape:connector-curvature="0" />
        <path
           id="path10966"
           style="fill:none;stroke:#000000;stroke-width:2.83459997;stroke-linecap:butt;stroke-linejoin:miter;stroke-miterlimit:10;stroke-opacity:1;stroke-dasharray:none"
           d="m 1511.04,1153.38 296.613,0 0,98.8711 -296.613,0 0,-98.8711 z"
           inkscape:connector-curvature="0" />
        <path
           id="path10968"
           style="fill:none;stroke:#000000;stroke-width:2.83459997;stroke-linecap:butt;stroke-linejoin:miter;stroke-miterlimit:10;stroke-opacity:1;stroke-dasharray:none"
           d="m 1511.04,1054.5 296.613,0 0,98.875 -296.613,0 0,-98.875 z"
           inkscape:connector-curvature="0" />
        <path
           id="path10970"
           style="fill:none;stroke:#000000;stroke-width:2.83459997;stroke-linecap:butt;stroke-linejoin:miter;stroke-miterlimit:10;stroke-opacity:1;stroke-dasharray:none"
           d="m 1511.04,955.629 296.613,0 0,98.8711 -296.613,0 0,-98.8711 z"
           inkscape:connector-curvature="0" />
        <path
           id="path10972"
           style="fill:none;stroke:#000000;stroke-width:2.83459997;stroke-linecap:butt;stroke-linejoin:miter;stroke-miterlimit:10;stroke-opacity:1;stroke-dasharray:none"
           d="m 1511.04,856.758 296.613,0 0,98.8711 -296.613,0 0,-98.8711 z"
           inkscape:connector-curvature="0" />
        <path
           id="path10974"
           style="fill:none;stroke:#000000;stroke-width:2.83459997;stroke-linecap:butt;stroke-linejoin:miter;stroke-miterlimit:10;stroke-opacity:1;stroke-dasharray:none"
           d="m 1511.04,777.66 185.383,0 0,59.3242 -185.383,0 0,-59.3242 z"
           inkscape:connector-curvature="0" />
        <path
           id="path10976"
           style="fill:#00ff00;fill-opacity:1;fill-rule:nonzero;stroke:none"
           d="m 1802.09,827.098 c 0,-7.164 -5.81,-12.981 -12.98,-12.981 -7.16,0 -12.97,5.817 -12.97,12.981 0,7.164 5.81,12.976 12.97,12.976 7.17,0 12.98,-5.812 12.98,-12.976"
           inkscape:connector-curvature="0" />
        <path
           id="path10978"
           style="fill:none;stroke:#000000;stroke-width:2.83459997;stroke-linecap:butt;stroke-linejoin:miter;stroke-miterlimit:10;stroke-opacity:1;stroke-dasharray:none"
           d="m 1802.09,827.098 c 0,-7.164 -5.81,-12.981 -12.98,-12.981 -7.16,0 -12.97,5.817 -12.97,12.981 0,7.164 5.81,12.976 12.97,12.976 7.17,0 12.98,-5.812 12.98,-12.976 z"
           inkscape:connector-curvature="0" />
        <path
           id="path10980"
           style="fill:#ffff00;fill-opacity:1;fill-rule:nonzero;stroke:none"
           d="m 1802.09,787.547 c 0,-7.164 -5.81,-12.977 -12.98,-12.977 -7.16,0 -12.97,5.813 -12.97,12.977 0,7.164 5.81,12.976 12.97,12.976 7.17,0 12.98,-5.812 12.98,-12.976"
           inkscape:connector-curvature="0" />
        <path
           id="path10982"
           style="fill:none;stroke:#000000;stroke-width:2.83459997;stroke-linecap:butt;stroke-linejoin:miter;stroke-miterlimit:10;stroke-opacity:1;stroke-dasharray:none"
           d="m 1802.09,787.547 c 0,-7.164 -5.81,-12.977 -12.98,-12.977 -7.16,0 -12.97,5.813 -12.97,12.977 0,7.164 5.81,12.976 12.97,12.976 7.17,0 12.98,-5.812 12.98,-12.976 z"
           inkscape:connector-curvature="0" />
        <path
           id="path10984"
           style="fill:#ffffff;fill-opacity:1;fill-rule:nonzero;stroke:none"
           d="m 1714.96,777.66 44.4922,0 0,39.5469 -44.4922,0 0,-39.5469 z"
           inkscape:connector-curvature="0" />
        <path
           id="path10986"
           style="fill:none;stroke:#000000;stroke-width:2.83459997;stroke-linecap:butt;stroke-linejoin:miter;stroke-miterlimit:10;stroke-opacity:1;stroke-dasharray:none"
           d="m 1714.96,777.66 44.4922,0 0,39.5469 -44.4922,0 0,-39.5469 z"
           inkscape:connector-curvature="0" />
        <path
           id="path10988"
           style="fill:none;stroke:#000000;stroke-width:2.83459997;stroke-linecap:butt;stroke-linejoin:miter;stroke-miterlimit:10;stroke-opacity:1;stroke-dasharray:none"
           d="m 1535.75,698.562 0,-216.281"
           inkscape:connector-curvature="0" />
        <path
           id="path10990"
           style="fill:none;stroke:#000000;stroke-width:2.83459997;stroke-linecap:butt;stroke-linejoin:miter;stroke-miterlimit:10;stroke-opacity:1;stroke-dasharray:none"
           d="m 1597.55,698.562 0,-216.281"
           inkscape:connector-curvature="0" />
        <path
           id="path10992"
           style="fill:none;stroke:#000000;stroke-width:2.83459997;stroke-linecap:butt;stroke-linejoin:miter;stroke-miterlimit:10;stroke-opacity:1;stroke-dasharray:none"
           d="m 1659.34,698.562 0,-216.281"
           inkscape:connector-curvature="0" />
        <path
           id="path10994"
           style="fill:none;stroke:#000000;stroke-width:2.83459997;stroke-linecap:butt;stroke-linejoin:miter;stroke-miterlimit:10;stroke-opacity:1;stroke-dasharray:none"
           d="m 1721.14,698.562 0,-216.281"
           inkscape:connector-curvature="0" />
        <path
           id="path10996"
           style="fill:none;stroke:#000000;stroke-width:2.83459997;stroke-linecap:butt;stroke-linejoin:miter;stroke-miterlimit:10;stroke-opacity:1;stroke-dasharray:none"
           d="m 1782.93,698.562 0,-216.281"
           inkscape:connector-curvature="0" />
        <path
           id="path10998"
           style="fill:none;stroke:#000000;stroke-width:2.83459997;stroke-linecap:butt;stroke-linejoin:miter;stroke-miterlimit:10;stroke-opacity:1;stroke-dasharray:none"
           d="m 1844.73,698.562 0,-216.281"
           inkscape:connector-curvature="0" />
        <path
           id="path11000"
           style="fill:#999999;fill-opacity:1;fill-rule:evenodd;stroke:none"
           d="m 1399.81,364.871 74.15,148.305 0,-74.153 370.77,0 0,74.153 98.87,-148.305"
           inkscape:connector-curvature="0" />
        <path
           id="path11002"
           style="fill:none;stroke:#000000;stroke-width:2.83459997;stroke-linecap:butt;stroke-linejoin:miter;stroke-miterlimit:10;stroke-opacity:1;stroke-dasharray:none"
           d="m 1399.81,364.871 74.15,148.305 0,-74.153 370.77,0 0,74.153 98.87,-148.305 -543.79,0 z"
           inkscape:connector-curvature="0" />
        <path
           id="path11004"
           style="fill:#b3b3b3;fill-opacity:1;fill-rule:nonzero;stroke:none"
           d="m 76.4492,3510.31 370.77,0 0,865.129 -370.77,0 0,-865.129 z"
           inkscape:connector-curvature="0" />
        <path
           id="path11006"
           style="fill:none;stroke:#000000;stroke-width:22.67679977;stroke-linecap:butt;stroke-linejoin:miter;stroke-miterlimit:10;stroke-opacity:1;stroke-dasharray:none"
           d="m 76.4492,3510.31 370.77,0 0,865.129 -370.77,0 0,-865.129 z"
           inkscape:connector-curvature="0" />
        <path
           id="path11008"
           style="fill:none;stroke:#000000;stroke-width:2.83459997;stroke-linecap:butt;stroke-linejoin:miter;stroke-miterlimit:10;stroke-opacity:1;stroke-dasharray:none"
           d="m 113.523,4224.66 296.617,0 0,98.8711 -296.617,0 0,-98.8711 z"
           inkscape:connector-curvature="0" />
        <path
           id="path11010"
           style="fill:none;stroke:#000000;stroke-width:2.83459997;stroke-linecap:butt;stroke-linejoin:miter;stroke-miterlimit:10;stroke-opacity:1;stroke-dasharray:none"
           d="m 113.523,4125.79 296.617,0 0,98.875 -296.617,0 0,-98.875 z"
           inkscape:connector-curvature="0" />
        <path
           id="path11012"
           style="fill:none;stroke:#000000;stroke-width:2.83459997;stroke-linecap:butt;stroke-linejoin:miter;stroke-miterlimit:10;stroke-opacity:1;stroke-dasharray:none"
           d="m 113.523,4026.92 296.617,0 0,98.8711 -296.617,0 0,-98.8711 z"
           inkscape:connector-curvature="0" />
        <path
           id="path11014"
           style="fill:none;stroke:#000000;stroke-width:2.83459997;stroke-linecap:butt;stroke-linejoin:miter;stroke-miterlimit:10;stroke-opacity:1;stroke-dasharray:none"
           d="m 113.523,3928.05 296.617,0 0,98.8711 -296.617,0 0,-98.8711 z"
           inkscape:connector-curvature="0" />
        <path
           id="path11016"
           style="fill:none;stroke:#000000;stroke-width:2.83459997;stroke-linecap:butt;stroke-linejoin:miter;stroke-miterlimit:10;stroke-opacity:1;stroke-dasharray:none"
           d="m 113.523,3848.95 185.387,0 0,59.3242 -185.387,0 0,-59.3242 z"
           inkscape:connector-curvature="0" />
        <path
           id="path11018"
           style="fill:#00ff00;fill-opacity:1;fill-rule:nonzero;stroke:none"
           d="m 404.578,3898.39 c 0,-7.17 -5.812,-12.98 -12.976,-12.98 -7.164,0 -12.977,5.81 -12.977,12.98 0,7.16 5.813,12.97 12.977,12.97 7.164,0 12.976,-5.81 12.976,-12.97"
           inkscape:connector-curvature="0" />
        <path
           id="path11020"
           style="fill:none;stroke:#000000;stroke-width:2.83459997;stroke-linecap:butt;stroke-linejoin:miter;stroke-miterlimit:10;stroke-opacity:1;stroke-dasharray:none"
           d="m 404.578,3898.39 c 0,-7.17 -5.812,-12.98 -12.976,-12.98 -7.164,0 -12.977,5.81 -12.977,12.98 0,7.16 5.813,12.97 12.977,12.97 7.164,0 12.976,-5.81 12.976,-12.97 z"
           inkscape:connector-curvature="0" />
        <path
           id="path11022"
           style="fill:#ffff00;fill-opacity:1;fill-rule:nonzero;stroke:none"
           d="m 404.578,3858.84 c 0,-7.17 -5.812,-12.98 -12.976,-12.98 -7.164,0 -12.977,5.81 -12.977,12.98 0,7.16 5.813,12.97 12.977,12.97 7.164,0 12.976,-5.81 12.976,-12.97"
           inkscape:connector-curvature="0" />
        <path
           id="path11024"
           style="fill:none;stroke:#000000;stroke-width:2.83459997;stroke-linecap:butt;stroke-linejoin:miter;stroke-miterlimit:10;stroke-opacity:1;stroke-dasharray:none"
           d="m 404.578,3858.84 c 0,-7.17 -5.812,-12.98 -12.976,-12.98 -7.164,0 -12.977,5.81 -12.977,12.98 0,7.16 5.813,12.97 12.977,12.97 7.164,0 12.976,-5.81 12.976,-12.97 z"
           inkscape:connector-curvature="0" />
        <path
           id="path11026"
           style="fill:#ffffff;fill-opacity:1;fill-rule:nonzero;stroke:none"
           d="m 317.449,3848.95 44.4922,0 0,39.5508 -44.4922,0 0,-39.5508 z"
           inkscape:connector-curvature="0" />
        <path
           id="path11028"
           style="fill:none;stroke:#000000;stroke-width:2.83459997;stroke-linecap:butt;stroke-linejoin:miter;stroke-miterlimit:10;stroke-opacity:1;stroke-dasharray:none"
           d="m 317.449,3848.95 44.4922,0 0,39.5508 -44.4922,0 0,-39.5508 z"
           inkscape:connector-curvature="0" />
        <path
           id="path11030"
           style="fill:none;stroke:#000000;stroke-width:2.83459997;stroke-linecap:butt;stroke-linejoin:miter;stroke-miterlimit:10;stroke-opacity:1;stroke-dasharray:none"
           d="m 138.242,3769.85 0,-216.28"
           inkscape:connector-curvature="0" />
        <path
           id="path11032"
           style="fill:none;stroke:#000000;stroke-width:2.83459997;stroke-linecap:butt;stroke-linejoin:miter;stroke-miterlimit:10;stroke-opacity:1;stroke-dasharray:none"
           d="m 200.039,3769.85 0,-216.28"
           inkscape:connector-curvature="0" />
        <path
           id="path11034"
           style="fill:none;stroke:#000000;stroke-width:2.83459997;stroke-linecap:butt;stroke-linejoin:miter;stroke-miterlimit:10;stroke-opacity:1;stroke-dasharray:none"
           d="m 261.832,3769.85 0,-216.28"
           inkscape:connector-curvature="0" />
        <path
           id="path11036"
           style="fill:none;stroke:#000000;stroke-width:2.83459997;stroke-linecap:butt;stroke-linejoin:miter;stroke-miterlimit:10;stroke-opacity:1;stroke-dasharray:none"
           d="m 323.629,3769.85 0,-216.28"
           inkscape:connector-curvature="0" />
        <path
           id="path11038"
           style="fill:none;stroke:#000000;stroke-width:2.83459997;stroke-linecap:butt;stroke-linejoin:miter;stroke-miterlimit:10;stroke-opacity:1;stroke-dasharray:none"
           d="m 385.422,3769.85 0,-216.28"
           inkscape:connector-curvature="0" />
        <path
           id="path11040"
           style="fill:none;stroke:#000000;stroke-width:2.83459997;stroke-linecap:butt;stroke-linejoin:miter;stroke-miterlimit:10;stroke-opacity:1;stroke-dasharray:none"
           d="m 447.219,3769.85 0,-216.28"
           inkscape:connector-curvature="0" />
        <path
           id="path11042"
           style="fill:#999999;fill-opacity:1;fill-rule:evenodd;stroke:none"
           d="m 2.29297,3436.16 74.15623,148.3 0,-74.15 370.7698,0 0,74.15 98.871,-148.3"
           inkscape:connector-curvature="0" />
        <path
           id="path11044"
           style="fill:none;stroke:#000000;stroke-width:2.83459997;stroke-linecap:butt;stroke-linejoin:miter;stroke-miterlimit:10;stroke-opacity:1;stroke-dasharray:none"
           d="m 2.29297,3436.16 74.15623,148.3 0,-74.15 370.7698,0 0,74.15 98.871,-148.3 -543.79703,0 z"
           inkscape:connector-curvature="0" />
        <path
           id="path11046"
           style="fill:#b3b3b3;fill-opacity:1;fill-rule:nonzero;stroke:none"
           d="m 76.4492,439.023 370.77,0 0,865.129 -370.77,0 0,-865.129 z"
           inkscape:connector-curvature="0" />
        <path
           id="path11048"
           style="fill:none;stroke:#000000;stroke-width:22.67679977;stroke-linecap:butt;stroke-linejoin:miter;stroke-miterlimit:10;stroke-opacity:1;stroke-dasharray:none"
           d="m 76.4492,439.023 370.77,0 0,865.129 -370.77,0 0,-865.129 z"
           inkscape:connector-curvature="0" />
        <path
           id="path11050"
           style="fill:none;stroke:#000000;stroke-width:2.83459997;stroke-linecap:butt;stroke-linejoin:miter;stroke-miterlimit:10;stroke-opacity:1;stroke-dasharray:none"
           d="m 113.523,1153.38 296.617,0 0,98.8711 -296.617,0 0,-98.8711 z"
           inkscape:connector-curvature="0" />
        <path
           id="path11052"
           style="fill:none;stroke:#000000;stroke-width:2.83459997;stroke-linecap:butt;stroke-linejoin:miter;stroke-miterlimit:10;stroke-opacity:1;stroke-dasharray:none"
           d="m 113.523,1054.5 296.617,0 0,98.875 -296.617,0 0,-98.875 z"
           inkscape:connector-curvature="0" />
        <path
           id="path11054"
           style="fill:none;stroke:#000000;stroke-width:2.83459997;stroke-linecap:butt;stroke-linejoin:miter;stroke-miterlimit:10;stroke-opacity:1;stroke-dasharray:none"
           d="m 113.523,955.629 296.617,0 0,98.8711 -296.617,0 0,-98.8711 z"
           inkscape:connector-curvature="0" />
        <path
           id="path11056"
           style="fill:none;stroke:#000000;stroke-width:2.83459997;stroke-linecap:butt;stroke-linejoin:miter;stroke-miterlimit:10;stroke-opacity:1;stroke-dasharray:none"
           d="m 113.523,856.758 296.617,0 0,98.8711 -296.617,0 0,-98.8711 z"
           inkscape:connector-curvature="0" />
        <path
           id="path11058"
           style="fill:none;stroke:#000000;stroke-width:2.83459997;stroke-linecap:butt;stroke-linejoin:miter;stroke-miterlimit:10;stroke-opacity:1;stroke-dasharray:none"
           d="m 113.523,777.66 185.387,0 0,59.3242 -185.387,0 0,-59.3242 z"
           inkscape:connector-curvature="0" />
        <path
           id="path11060"
           style="fill:#00ff00;fill-opacity:1;fill-rule:nonzero;stroke:none"
           d="m 404.578,827.098 c 0,-7.164 -5.812,-12.981 -12.976,-12.981 -7.164,0 -12.977,5.817 -12.977,12.981 0,7.164 5.813,12.976 12.977,12.976 7.164,0 12.976,-5.812 12.976,-12.976"
           inkscape:connector-curvature="0" />
        <path
           id="path11062"
           style="fill:none;stroke:#000000;stroke-width:2.83459997;stroke-linecap:butt;stroke-linejoin:miter;stroke-miterlimit:10;stroke-opacity:1;stroke-dasharray:none"
           d="m 404.578,827.098 c 0,-7.164 -5.812,-12.981 -12.976,-12.981 -7.164,0 -12.977,5.817 -12.977,12.981 0,7.164 5.813,12.976 12.977,12.976 7.164,0 12.976,-5.812 12.976,-12.976 z"
           inkscape:connector-curvature="0" />
        <path
           id="path11064"
           style="fill:#ffff00;fill-opacity:1;fill-rule:nonzero;stroke:none"
           d="m 404.578,787.547 c 0,-7.164 -5.812,-12.977 -12.976,-12.977 -7.164,0 -12.977,5.813 -12.977,12.977 0,7.164 5.813,12.976 12.977,12.976 7.164,0 12.976,-5.812 12.976,-12.976"
           inkscape:connector-curvature="0" />
        <path
           id="path11066"
           style="fill:none;stroke:#000000;stroke-width:2.83459997;stroke-linecap:butt;stroke-linejoin:miter;stroke-miterlimit:10;stroke-opacity:1;stroke-dasharray:none"
           d="m 404.578,787.547 c 0,-7.164 -5.812,-12.977 -12.976,-12.977 -7.164,0 -12.977,5.813 -12.977,12.977 0,7.164 5.813,12.976 12.977,12.976 7.164,0 12.976,-5.812 12.976,-12.976 z"
           inkscape:connector-curvature="0" />
        <path
           id="path11068"
           style="fill:#ffffff;fill-opacity:1;fill-rule:nonzero;stroke:none"
           d="m 317.449,777.66 44.4922,0 0,39.5469 -44.4922,0 0,-39.5469 z"
           inkscape:connector-curvature="0" />
        <path
           id="path11070"
           style="fill:none;stroke:#000000;stroke-width:2.83459997;stroke-linecap:butt;stroke-linejoin:miter;stroke-miterlimit:10;stroke-opacity:1;stroke-dasharray:none"
           d="m 317.449,777.66 44.4922,0 0,39.5469 -44.4922,0 0,-39.5469 z"
           inkscape:connector-curvature="0" />
        <path
           id="path11072"
           style="fill:none;stroke:#000000;stroke-width:2.83459997;stroke-linecap:butt;stroke-linejoin:miter;stroke-miterlimit:10;stroke-opacity:1;stroke-dasharray:none"
           d="m 138.242,698.562 0,-216.281"
           inkscape:connector-curvature="0" />
        <path
           id="path11074"
           style="fill:none;stroke:#000000;stroke-width:2.83459997;stroke-linecap:butt;stroke-linejoin:miter;stroke-miterlimit:10;stroke-opacity:1;stroke-dasharray:none"
           d="m 200.039,698.562 0,-216.281"
           inkscape:connector-curvature="0" />
        <path
           id="path11076"
           style="fill:none;stroke:#000000;stroke-width:2.83459997;stroke-linecap:butt;stroke-linejoin:miter;stroke-miterlimit:10;stroke-opacity:1;stroke-dasharray:none"
           d="m 261.832,698.562 0,-216.281"
           inkscape:connector-curvature="0" />
        <path
           id="path11078"
           style="fill:none;stroke:#000000;stroke-width:2.83459997;stroke-linecap:butt;stroke-linejoin:miter;stroke-miterlimit:10;stroke-opacity:1;stroke-dasharray:none"
           d="m 323.629,698.562 0,-216.281"
           inkscape:connector-curvature="0" />
        <path
           id="path11080"
           style="fill:none;stroke:#000000;stroke-width:2.83459997;stroke-linecap:butt;stroke-linejoin:miter;stroke-miterlimit:10;stroke-opacity:1;stroke-dasharray:none"
           d="m 385.422,698.562 0,-216.281"
           inkscape:connector-curvature="0" />
        <path
           id="path11082"
           style="fill:none;stroke:#000000;stroke-width:2.83459997;stroke-linecap:butt;stroke-linejoin:miter;stroke-miterlimit:10;stroke-opacity:1;stroke-dasharray:none"
           d="m 447.219,698.562 0,-216.281"
           inkscape:connector-curvature="0" />
        <path
           id="path11084"
           style="fill:#999999;fill-opacity:1;fill-rule:evenodd;stroke:none"
           d="m 2.29297,364.871 74.15623,148.305 0,-74.153 370.7698,0 0,74.153 98.871,-148.305"
           inkscape:connector-curvature="0" />
        <path
           id="path11086"
           style="fill:none;stroke:#000000;stroke-width:2.83459997;stroke-linecap:butt;stroke-linejoin:miter;stroke-miterlimit:10;stroke-opacity:1;stroke-dasharray:none"
           d="m 2.29297,364.871 74.15623,148.305 0,-74.153 370.7698,0 0,74.153 98.871,-148.305 -543.79703,0 z"
           inkscape:connector-curvature="0" />
        <path
           id="path11088"
           style="fill:none;stroke:#000000;stroke-width:28.34600067;stroke-linecap:butt;stroke-linejoin:miter;stroke-miterlimit:10;stroke-opacity:1;stroke-dasharray:none"
           d="M 1257.58,1973 1671.7,1304.15"
           inkscape:connector-curvature="0" />
        <path
           id="path11090"
           style="fill:none;stroke:#000000;stroke-width:28.34600067;stroke-linecap:butt;stroke-linejoin:miter;stroke-miterlimit:10;stroke-opacity:1;stroke-dasharray:none"
           d="M 614.074,2948.91 274.191,3436.16"
           inkscape:connector-curvature="0" />
        <path
           id="path11092"
           style="fill:none;stroke:#000000;stroke-width:28.34600067;stroke-linecap:butt;stroke-linejoin:miter;stroke-miterlimit:10;stroke-opacity:1;stroke-dasharray:none"
           d="m 1288.75,2901.87 382.95,534.29"
           inkscape:connector-curvature="0" />
        <path
           id="path11094"
           style="fill:none;stroke:#000000;stroke-width:28.34600067;stroke-linecap:butt;stroke-linejoin:miter;stroke-miterlimit:10;stroke-opacity:1;stroke-dasharray:none"
           d="M 653.41,1933.48 274.191,1304.15"
           inkscape:connector-curvature="0" />
      </g>
    </g>
  </g>
</svg>
