<?xml version="1.0" encoding="UTF-8" standalone="no"?>
<!-- Created with Inkscape (http://www.inkscape.org/) -->

<svg
   xmlns:dc="http://purl.org/dc/elements/1.1/"
   xmlns:cc="http://creativecommons.org/ns#"
   xmlns:rdf="http://www.w3.org/1999/02/22-rdf-syntax-ns#"
   xmlns:svg="http://www.w3.org/2000/svg"
   xmlns="http://www.w3.org/2000/svg"
   xmlns:sodipodi="http://sodipodi.sourceforge.net/DTD/sodipodi-0.dtd"
   xmlns:inkscape="http://www.inkscape.org/namespaces/inkscape"
   width="566.8125"
   height="628.125"
   id="svg2"
   sodipodi:version="0.32"
   inkscape:version="0.48.4 r9939"
   version="1.0"
   sodipodi:docname="studio.svg"
   inkscape:output_extension="org.inkscape.output.svg.inkscape">
  <defs
     id="defs4">
    <inkscape:perspective
       sodipodi:type="inkscape:persp3d"
       inkscape:vp_x="0 : 526.18109 : 1"
       inkscape:vp_y="0 : 1000 : 0"
       inkscape:vp_z="744.09448 : 526.18109 : 1"
       inkscape:persp3d-origin="372.04724 : 350.78739 : 1"
       id="perspective10" />
    <inkscape:perspective
       id="perspective2461"
       inkscape:persp3d-origin="372.04724 : 350.78739 : 1"
       inkscape:vp_z="744.09448 : 526.18109 : 1"
       inkscape:vp_y="0 : 1000 : 0"
       inkscape:vp_x="0 : 526.18109 : 1"
       sodipodi:type="inkscape:persp3d" />
    <inkscape:perspective
       id="perspective2650"
       inkscape:persp3d-origin="372.04724 : 350.78739 : 1"
       inkscape:vp_z="744.09448 : 526.18109 : 1"
       inkscape:vp_y="0 : 1000 : 0"
       inkscape:vp_x="0 : 526.18109 : 1"
       sodipodi:type="inkscape:persp3d" />
  </defs>
  <sodipodi:namedview
     id="base"
     pagecolor="#ffffff"
     bordercolor="#666666"
     borderopacity="1.0"
     inkscape:pageopacity="0.0"
     inkscape:pageshadow="2"
     inkscape:zoom="0.71658086"
     inkscape:cx="544.94786"
     inkscape:cy="249.05066"
     inkscape:document-units="px"
     inkscape:current-layer="layer1"
     showgrid="false"
     inkscape:window-width="1279"
     inkscape:window-height="725"
     inkscape:window-x="0"
     inkscape:window-y="27"
     inkscape:window-maximized="0" />
  <g
     inkscape:label="Capa 1"
     inkscape:groupmode="layer"
     id="layer1"
     transform="translate(-88.640991,-212.11859)">
    <path
       style="fill:none;stroke:#000000;stroke-width:10;stroke-linecap:round;stroke-linejoin:round;stroke-miterlimit:4;stroke-dasharray:none;stroke-opacity:1"
       d="M 650.43739,457.29046 L 650.45349,550.55609 L 615.57849,522.64984 L 615.57849,835.24359 L 131.32849,835.24359 L 131.32849,517.05609 L 93.640991,550.55609 L 95.562866,456.87838 L 128.14194,424.96234 L 128.54724,424.96234 L 128.54724,246.33734 L 187.14099,246.33734 L 187.14099,377.30609 L 371.35974,217.11859 L 650.43739,457.29046 z"
       id="rect3464"
       sodipodi:nodetypes="ccccccccccccccc" />
    <g
       id="g3009"
       transform="matrix(1.5100715,0,0,1.5100715,-188.28561,-83.992063)">
      <path
         sodipodi:nodetypes="sccssccccccccccccccssscccccsssss"
         inkscape:connector-curvature="0"
         id="path2829"
         d="m 400.07705,339.76623 c -24.73023,0 -45.24802,17.99679 -49.18407,41.60574 l -6.11518,1.16301 c -7.19061,-12.14729 -20.42232,-20.2964 -35.56559,-20.2964 -22.81783,0 -41.30562,18.48779 -41.30562,41.30561 0,19.40222 13.36898,35.66636 31.40127,40.10509 l 0,4.61452 -8.36617,0 -0.0375,-0.37516 -9.90434,-3.67661 -6.94055,0 10.95481,22.81 4.05177,-1.08798 2.25099,-3.67661 7.991,0 0,51.58512 143.57546,0 0,-85.76261 -11.02984,0 c 11.06513,-9.14861 18.12045,-22.97554 18.12045,-38.45436 0,-27.54692 -22.34996,-49.85936 -49.89688,-49.85936 z m -43.3315,74.54519 c 2.99732,5.257 6.91612,9.93307 11.55506,13.76853 l -25.84883,0 c 2.70626,-3.66075 4.80631,-7.78445 6.19021,-12.23036 z m 71.73145,82.19854 c 2.48637,0 4.50197,2.0156 4.50197,4.50197 0,2.48638 -2.0156,4.50198 -4.50197,4.50198 -2.48637,0 -4.50197,-2.0156 -4.50197,-4.50198 0,-2.48637 2.0156,-4.50197 4.50197,-4.50197 z"
         style="fill:#000000;fill-opacity:1;stroke:none" />
      <path
         inkscape:connector-curvature="0"
         style="fill:#ffffff;fill-opacity:1;stroke:none"
         d="m 399.36424,363.25153 c -13.92368,0 -25.21106,11.28738 -25.21106,25.21106 0,13.92368 11.28738,25.21105 25.21106,25.21105 13.92368,0 25.21105,-11.28737 25.21105,-25.21105 0,-13.92368 -11.28737,-25.21106 -25.21105,-25.21106 z m -2.40731,7.44077 c 2.25627,0 4.09243,1.81426 4.09243,4.07053 0,2.25627 -1.83616,4.09242 -4.09243,4.09242 -2.25627,0 -4.09241,-1.83615 -4.09241,-4.09242 0,-2.25627 1.83614,-4.07053 4.09241,-4.07053 z m 12.62741,7.6596 c 2.25627,0 4.09242,1.83615 4.09242,4.09242 0,2.25626 -1.83615,4.09242 -4.09242,4.09242 -2.25627,0 -4.09241,-1.83616 -4.09241,-4.09242 0,-2.25627 1.83614,-4.09242 4.09241,-4.09242 z m -22.27851,3.21704 c 2.25627,0 4.07053,1.83615 4.07053,4.09242 0,2.25626 -1.81426,4.09242 -4.07053,4.09242 -2.25627,0 -4.09243,-1.83616 -4.09243,-4.09242 0,-2.25627 1.83616,-4.09242 4.09243,-4.09242 z m 20.79037,11.16115 c 2.25626,0 4.09241,1.81425 4.09241,4.07052 0,2.25627 -1.83615,4.09243 -4.09241,4.09243 -2.25627,0 -4.09243,-1.83616 -4.09243,-4.09243 0,-2.25627 1.83616,-4.07052 4.09243,-4.07052 z m -15.10038,2.47295 c 2.25627,0 4.09242,1.81427 4.09242,4.07054 0,2.25626 -1.83615,4.09241 -4.09242,4.09241 -2.25627,0 -4.09242,-1.83615 -4.09242,-4.09241 0,-2.25627 1.83615,-4.07054 4.09242,-4.07054 z"
         id="path3749" />
      <path
         inkscape:connector-curvature="0"
         id="path3751"
         d="m 309.32476,381.25943 c -11.27155,0 -20.40895,9.1374 -20.40895,20.40895 0,11.27155 9.1374,20.40895 20.40895,20.40895 11.27155,0 20.40895,-9.1374 20.40895,-20.40895 0,-11.27155 -9.1374,-20.40895 -20.40895,-20.40895 z m -1.94878,6.02347 c 1.8265,0 3.31292,1.46869 3.31292,3.29519 0,1.82651 -1.48642,3.31292 -3.31292,3.31292 -1.82649,0 -3.3129,-1.48641 -3.3129,-3.31292 0,-1.8265 1.48641,-3.29519 3.3129,-3.29519 z m 10.22219,6.20064 c 1.82651,0 3.31292,1.4864 3.31292,3.31291 0,1.82649 -1.48641,3.31291 -3.31292,3.31291 -1.8265,0 -3.3129,-1.48642 -3.3129,-3.31291 0,-1.82651 1.4864,-3.31291 3.3129,-3.31291 z m -18.03499,2.60426 c 1.82651,0 3.2952,1.48641 3.2952,3.31291 0,1.8265 -1.46869,3.31292 -3.2952,3.31292 -1.82649,0 -3.31291,-1.48642 -3.31291,-3.31292 0,-1.8265 1.48642,-3.31291 3.31291,-3.31291 z m 16.8303,9.03522 c 1.82651,0 3.31291,1.46868 3.31291,3.29518 0,1.82651 -1.4864,3.31293 -3.31291,3.31293 -1.8265,0 -3.31291,-1.48642 -3.31291,-3.31293 0,-1.8265 1.48641,-3.29518 3.31291,-3.29518 z m -12.22411,2.00192 c 1.82651,0 3.31292,1.46869 3.31292,3.29519 0,1.82649 -1.48641,3.31291 -3.31292,3.31291 -1.8265,0 -3.31291,-1.48642 -3.31291,-3.31291 0,-1.8265 1.48641,-3.29519 3.31291,-3.29519 z"
         style="fill:#ffffff;fill-opacity:1;stroke:none" />
      <path
         inkscape:connector-curvature="0"
         id="rect3789"
         d="m 489.51627,422.79014 -25.32361,15.34423 -19.80868,0 0,38.22926 19.80868,0 25.32361,15.34423 0,-68.91772 z"
         style="fill:#000000;fill-opacity:1;stroke:none" />
    </g>
  </g>
  <metadata
     id="metadata10">
    <rdf:RDF>
      <cc:Work>
        <dc:format>image/svg+xml</dc:format>
        <dc:type
           rdf:resource="http://purl.org/dc/dcmitype/StillImage" />
        <cc:license
           rdf:resource="http://creativecommons.org/licenses/publicdomain/" />
        <dc:publisher>
          <cc:Agent
             rdf:about="http://openclipart.org/">
            <dc:title>Open Clip Art Library</dc:title>
          </cc:Agent>
        </dc:publisher>
        <dc:title>house-silhouette</dc:title>
        <dc:date>2008-09-05T21:51:59</dc:date>
        <dc:description>House silhouette</dc:description>
        <dc:source>http://openclipart.org/detail/19100/house-silhouette-by-josuemb</dc:source>
        <dc:creator>
          <cc:Agent>
            <dc:title>josuemb</dc:title>
          </cc:Agent>
        </dc:creator>
        <dc:subject>
          <rdf:Bag>
            <rdf:li>building</rdf:li>
            <rdf:li>building</rdf:li>
            <rdf:li>clip art</rdf:li>
            <rdf:li>clipart</rdf:li>
            <rdf:li>home</rdf:li>
            <rdf:li>home</rdf:li>
            <rdf:li>house</rdf:li>
            <rdf:li>house</rdf:li>
            <rdf:li>image</rdf:li>
            <rdf:li>media</rdf:li>
            <rdf:li>public domain</rdf:li>
            <rdf:li>silhouette</rdf:li>
            <rdf:li>silhouette</rdf:li>
            <rdf:li>svg</rdf:li>
          </rdf:Bag>
        </dc:subject>
      </cc:Work>
      <cc:License
         rdf:about="http://creativecommons.org/licenses/publicdomain/">
        <cc:permits
           rdf:resource="http://creativecommons.org/ns#Reproduction" />
        <cc:permits
           rdf:resource="http://creativecommons.org/ns#Distribution" />
        <cc:permits
           rdf:resource="http://creativecommons.org/ns#DerivativeWorks" />
      </cc:License>
    </rdf:RDF>
  </metadata>
</svg>
