<?xml version="1.0" encoding="UTF-8" standalone="no"?>
<!-- Created with Inkscape (http://www.inkscape.org/) -->

<svg
   xmlns:dc="http://purl.org/dc/elements/1.1/"
   xmlns:cc="http://creativecommons.org/ns#"
   xmlns:rdf="http://www.w3.org/1999/02/22-rdf-syntax-ns#"
   xmlns:svg="http://www.w3.org/2000/svg"
   xmlns="http://www.w3.org/2000/svg"
   xmlns:sodipodi="http://sodipodi.sourceforge.net/DTD/sodipodi-0.dtd"
   xmlns:inkscape="http://www.inkscape.org/namespaces/inkscape"
   width="1060.8546"
   height="467.10452"
   id="svg3175"
   version="1.1"
   inkscape:version="0.48.4 r9939"
   sodipodi:docname="verification.svg">
  <defs
     id="defs3177">
    <marker
       inkscape:stockid="Arrow2Mend"
       orient="auto"
       refY="0"
       refX="0"
       id="Arrow2Mend"
       style="overflow:visible">
      <path
         id="path4436"
         style="fill-rule:evenodd;stroke-width:0.625;stroke-linejoin:round"
         d="M 8.7185878,4.0337352 -2.2072895,0.01601326 8.7185884,-4.0017078 c -1.7454984,2.3720609 -1.7354408,5.6174519 -6e-7,8.035443 z"
         transform="scale(-0.6,-0.6)"
         inkscape:connector-curvature="0" />
    </marker>
    <marker
       inkscape:stockid="Arrow2Mend"
       orient="auto"
       refY="0"
       refX="0"
       id="Arrow2Mend-2"
       style="overflow:visible">
      <path
         inkscape:connector-curvature="0"
         id="path4436-9"
         style="fill-rule:evenodd;stroke-width:0.625;stroke-linejoin:round"
         d="M 8.7185878,4.0337352 -2.2072895,0.01601326 8.7185884,-4.0017078 c -1.7454984,2.3720609 -1.7354408,5.6174519 -6e-7,8.035443 z"
         transform="scale(-0.6,-0.6)" />
    </marker>
    <marker
       inkscape:stockid="Arrow2Mend"
       orient="auto"
       refY="0"
       refX="0"
       id="Arrow2Mend-6"
       style="overflow:visible">
      <path
         inkscape:connector-curvature="0"
         id="path4436-4"
         style="fill-rule:evenodd;stroke-width:0.625;stroke-linejoin:round"
         d="M 8.7185878,4.0337352 -2.2072895,0.01601326 8.7185884,-4.0017078 c -1.7454984,2.3720609 -1.7354408,5.6174519 -6e-7,8.035443 z"
         transform="scale(-0.6,-0.6)" />
    </marker>
  </defs>
  <sodipodi:namedview
     id="base"
     pagecolor="#ffffff"
     bordercolor="#666666"
     borderopacity="1.0"
     inkscape:pageopacity="0.0"
     inkscape:pageshadow="2"
     inkscape:zoom="1"
     inkscape:cx="436.85121"
     inkscape:cy="243.15157"
     inkscape:document-units="px"
     inkscape:current-layer="layer1-5"
     showgrid="false"
     fit-margin-top="0"
     fit-margin-left="0"
     fit-margin-right="0"
     fit-margin-bottom="0"
     inkscape:window-width="1920"
     inkscape:window-height="1144"
     inkscape:window-x="0"
     inkscape:window-y="27"
     inkscape:window-maximized="1" />
  <metadata
     id="metadata3180">
    <rdf:RDF>
      <cc:Work
         rdf:about="">
        <dc:format>image/svg+xml</dc:format>
        <dc:type
           rdf:resource="http://purl.org/dc/dcmitype/StillImage" />
        <dc:title />
      </cc:Work>
    </rdf:RDF>
  </metadata>
  <g
     inkscape:label="Layer 1"
     inkscape:groupmode="layer"
     id="layer1"
     transform="translate(135.47491,-306.53961)">
    <g
       id="g4914"
       transform="translate(541.99327,-439.5349)">
      <g
         inkscape:export-ydpi="6.2504663"
         inkscape:export-xdpi="6.2504663"
         style="fill:#00dc00;fill-opacity:1;stroke:#000000;stroke-width:4.91178274;stroke-miterlimit:4;stroke-opacity:1;stroke-dasharray:none"
         inkscape:label="Ebene 1"
         id="layer1-3"
         transform="matrix(0.28459952,0,0,0.30142381,588.14553,832.09112)">
        <g
           style="fill:#00dc00;fill-opacity:1;stroke:#000000;stroke-width:10.22894287;stroke-miterlimit:4;stroke-opacity:1;stroke-dasharray:none"
           transform="matrix(0.4801848,0,0,0.4801848,-316.23146,468.10984)"
           id="layer1-2"
           inkscape:label="Ebene 1">
          <path
             inkscape:connector-curvature="0"
             style="fill:#00dc00;fill-opacity:1;stroke:#000000;stroke-width:10.22894287;stroke-miterlimit:4;stroke-opacity:1;stroke-dasharray:none"
             d="m -1747.2444,-549.29769 287.7212,333.8986 c 146.6009,-298.83075 326.0615,-573.74326 614.51553,-834.74651 -215.88563,121.81746 -453.85923,353.1417 -657.14093,639.3803 l -245.0958,-138.53239 z"
             id="path4068"
             sodipodi:nodetypes="ccccc" />
        </g>
      </g>
      <path
         inkscape:connector-curvature="0"
         id="path4519"
         d="m 321.02277,1051.8442 34.41115,34.4112 16.78385,-16.7839 -34.41116,-34.4111 34.79563,-34.7957 -16.78418,-16.78413 -34.79563,34.79563 -34.80651,-34.80652 -16.78386,16.78382 34.80652,34.8065 -34.41071,34.4108 16.78419,16.7841 34.41071,-34.4107 z"
         style="fill:#d92a27;fill-opacity:1;stroke:#ff0000;stroke-width:2.37371707;stroke-linecap:butt;stroke-linejoin:miter;stroke-miterlimit:4;stroke-opacity:1;stroke-dasharray:none" />
    </g>
    <g
       id="g4897"
       transform="translate(36.072228,-4.0823592)">
      <g
         id="g3062"
         transform="matrix(4.9018722,0,0,4.9018722,-2094.9038,-1899.2908)">
        <rect
           style="color:#000000;fill:#000000;fill-opacity:1;stroke:#000000;stroke-width:0.5;stroke-linecap:butt;stroke-linejoin:miter;stroke-miterlimit:4;stroke-opacity:1;stroke-dasharray:none;stroke-dashoffset:0;marker:none;visibility:visible;display:inline;overflow:visible;enable-background:accumulate"
           id="rect3046"
           width="82.857147"
           height="56.071423"
           x="464.01285"
           y="468.64279"
           ry="8.9285717" />
        <g
           id="g3595"
           transform="translate(42.306927,-45.428317)">
          <g
             transform="translate(-4.220685,-0.358205)"
             id="g3591">
            <path
               inkscape:connector-curvature="0"
               style="fill:#ffffff;stroke:none"
               d="m 455.00769,537.88249 -0.41996,2.39217 10e-4,10e-4 c -0.51333,0.0838 -1.01,0.21831 -1.48439,0.39736 l 0,-10e-4 -1.55871,-1.86238 -1.46504,0.84639 0.83187,2.28073 0.002,10e-4 c -0.39716,0.32604 -0.7612,0.69136 -1.08704,1.08868 l -0.001,-0.005 -2.28072,-0.83186 -0.84639,1.46503 1.86238,1.56032 c -0.17875,0.47401 -0.31199,0.96993 -0.39573,1.48279 l -10e-4,-10e-4 -2.39218,0.41996 0,1.69278 2.39218,0.41996 10e-4,-10e-4 c 0.0837,0.51287 0.21698,1.00879 0.39573,1.4828 l -1.86238,1.56032 0.84639,1.46503 2.28072,-0.83186 0.001,-0.005 c 0.32584,0.39731 0.68988,0.76265 1.08704,1.08867 l -0.002,10e-4 -0.83187,2.28073 1.46504,0.84639 1.55871,-1.86236 0,-10e-4 c 0.47439,0.17904 0.97106,0.31348 1.48439,0.39736 l -10e-4,0.001 0.41996,2.39217 1.69115,0 0.41996,-2.39217 -0.001,-0.001 c 0.51325,-0.0837 1.01005,-0.21697 1.48441,-0.39575 l 1.56032,1.86238 1.46503,-0.84639 -0.83347,-2.28072 c 0.39629,-0.32519 0.76013,-0.68925 1.08544,-1.08545 l 2.28234,0.83186 0.84477,-1.46503 -1.86076,-1.56032 c 0.17879,-0.47407 0.31359,-0.96985 0.39736,-1.48279 l 2.39217,-0.41835 0,-1.69277 -2.39217,-0.41996 c -0.0838,-0.51239 -0.21876,-1.00758 -0.39736,-1.48118 l 1.86076,-1.56032 -0.84477,-1.46503 -2.28234,0.83186 c -0.32531,-0.39621 -0.68913,-0.76026 -1.08544,-1.08545 l 0.83347,-2.28072 -1.46503,-0.84639 -1.56032,1.86238 c -0.47436,-0.17876 -0.97116,-0.31209 -1.48441,-0.39574 l 0.001,-10e-4 -0.41996,-2.39217 -1.69115,0 z m 0.84638,4.11886 c 3.29303,0 5.96348,2.66884 5.96348,5.96187 0,3.29302 -2.67045,5.96185 -5.96348,5.96185 -3.29302,0 -5.96184,-2.66883 -5.96184,-5.96185 0,-3.29303 2.66882,-5.96187 5.96184,-5.96187 z"
               id="path4050" />
            <path
               id="path3396"
               d="m 475.27202,526.88638 -0.52518,2.99145 10e-4,10e-4 c -0.64193,0.10492 -1.26303,0.27302 -1.85627,0.49691 l 0,-10e-4 -1.9492,-2.32893 -1.83203,1.05841 1.04024,2.8521 0.004,10e-4 c -0.49668,0.40771 -0.95192,0.86453 -1.35939,1.36142 l -10e-4,-0.006 -2.85207,-1.04025 -1.05844,1.83204 2.32894,1.95121 c -0.22353,0.59278 -0.39015,1.21292 -0.49486,1.85427 l -10e-4,-0.001 -2.99145,0.52517 0,2.11686 2.99145,0.52516 10e-4,-10e-4 c 0.10466,0.64134 0.27133,1.2615 0.49486,1.85426 l -2.32894,1.95122 1.05844,1.83204 2.85207,-1.04023 10e-4,-0.006 c 0.40747,0.49687 0.86271,0.95371 1.35939,1.36141 l -0.004,10e-4 -1.04024,2.85208 1.83203,1.05842 1.9492,-2.32892 0,-0.001 c 0.59324,0.22389 1.21434,0.39201 1.85627,0.4969 l -10e-4,0.001 0.52518,2.99145 2.11481,0 0.52517,-2.99145 -10e-4,-0.001 c 0.64181,-0.10466 1.26308,-0.27132 1.85627,-0.49486 l 1.95121,2.32894 1.83204,-1.05844 -1.04226,-2.8521 c 0.49557,-0.40665 0.95056,-0.86192 1.35735,-1.35735 l 2.85411,1.04025 1.05643,-1.83206 -2.32693,-1.95121 c 0.22357,-0.59283 0.39215,-1.21282 0.49689,-1.85425 l 2.99147,-0.52314 0,-2.11686 -2.99147,-0.52516 c -0.10479,-0.64077 -0.27355,-1.26001 -0.49689,-1.85225 l 2.32693,-1.95121 -1.05643,-1.83206 -2.85411,1.04026 c -0.40679,-0.49547 -0.86177,-0.95071 -1.35735,-1.35737 l 1.04226,-2.85209 -1.83204,-1.05843 -1.95121,2.32894 c -0.59319,-0.22353 -1.21446,-0.39027 -1.85627,-0.49486 l 10e-4,-10e-4 -0.52517,-2.99145 -2.11481,0 z m 1.05841,5.15072 c 4.118,0 7.45745,3.33741 7.45745,7.45541 0,4.11799 -3.33945,7.45542 -7.45745,7.45542 -4.11798,0 -7.4554,-3.33743 -7.4554,-7.45542 0,-4.118 3.33742,-7.45541 7.4554,-7.45541 z"
               style="fill:#ffffff;stroke:none"
               inkscape:connector-curvature="0" />
          </g>
          <path
             id="path3412"
             d="m 434.96803,518.04676 c -4.89483,0 -8.83405,3.69168 -8.83405,8.27877 l 0,31.56254 c 0,4.58701 3.93922,8.27881 8.83405,8.27881 l 56.33293,0 c 4.89483,0 8.83405,-3.69182 8.83405,-8.27881 l 0,-31.56254 c 0,-4.58709 -3.93922,-8.27877 -8.83405,-8.27877 l -56.33293,0 z m 8.11861,7.25542 40.09581,0 c 4.89474,0 8.83405,3.69165 8.83405,8.27878 l 0,17.05154 c 0,4.58715 -3.93931,8.2789 -8.83405,8.2789 l -40.09581,0 c -4.89484,0 -8.83406,-3.69175 -8.83406,-8.2789 l 0,-17.05154 c 0,-4.58713 3.93922,-8.27878 8.83406,-8.27878 z"
             style="fill:#eeeeee;fill-opacity:1;stroke-width:1.89999998;stroke-miterlimit:4;stroke-dasharray:none"
             inkscape:connector-curvature="0" />
        </g>
      </g>
    </g>
    <g
       id="g4970"
       transform="translate(5.4492187e-6,0)">
      <g
         transform="matrix(0.41082797,0,0,0.41082797,-135.47492,591.28582)"
         id="g1835">
        <g
           id="g1837">
          <path
             style="fill:#000000;stroke:none"
             id="path1839"
             d="m 219.744,443.88 c 121.359,0 219.744,-99.37 219.744,-221.94 C 439.488,99.368 341.103,0 219.744,0 98.387,0 0,99.368 0,221.94 0,344.51 98.387,443.88 219.744,443.88 z"
             inkscape:connector-curvature="0" />
          <path
             style="fill:#000000;stroke:none"
             id="path1841"
             d="M 219.744,221.94"
             inkscape:connector-curvature="0" />
        </g>
        <g
           id="g1843">
          <path
             style="fill:#ffffff;stroke:none"
             id="path1845"
             d="m 219.744,392.714 c 93.384,0 169.086,-76.459 169.086,-170.774 0,-94.317 -75.702,-170.774 -169.086,-170.774 -93.382,0 -169.085,76.457 -169.085,170.774 0,94.315 75.703,170.774 169.085,170.774 z"
             inkscape:connector-curvature="0" />
          <path
             style="fill:#ffffff;stroke:none"
             id="path1847"
             d="M 219.744,221.94"
             inkscape:connector-curvature="0" />
        </g>
        <g
           id="g1849">
          <path
             style="fill:#000000;stroke:none"
             id="path1851"
             d="m 196.963,300.274 49.531,-0.102 0,-38.482 c 0,-10.438 4.866,-20.3 17.886,-28.841 13.019,-8.537 49.364,-25.861 49.364,-71.409 0,-45.55 -38.167,-76.858 -70.25,-83.5 -32.078,-6.642 -66.835,-2.272 -91.5,24.75 -22.087,24.197 -26.741,43.337 -26.741,85.565 l 49.491,0 0,-9.815 c 0,-22.501 2.603,-46.254 34.75,-52.75 17.546,-3.546 33.994,1.958 43.75,11.5 11.16,10.912 11.25,35.5 -6.533,47.743 l -27.896,18.979 c -16.272,10.438 -21.852,22.059 -21.852,39.139 l 0,57.223 z"
             inkscape:connector-curvature="0" />
          <g
             id="g1853">
            <path
               style="fill:#000000;stroke:none"
               id="path1855"
               d="m 196.638,370.692 0,-51.005 50.212,0 0,51.005 -50.212,0 z"
               inkscape:connector-curvature="0" />
            <path
               style="fill:#000000;stroke:none"
               id="path1857"
               d="M 221.744,345.19"
               inkscape:connector-curvature="0" />
          </g>
        </g>
      </g>
      <g
         inkscape:label="Layer 1"
         id="layer1-5"
         transform="translate(-456.29763,-152.85489)">
        <g
           id="text4818"
           style="font-size:6.58916855px;font-style:normal;font-weight:normal;line-height:125%;letter-spacing:0px;word-spacing:0px;fill:#000000;fill-opacity:1;stroke:none;font-family:Sans" />
        <path
           style="fill:#1c241f;fill-opacity:1;stroke:none"
           d="m 321.91767,459.3945 c -0.24151,0 -0.43688,0.004 -0.43688,0.0102 l 0,53.40333 0,2.38253 0,134.96941 c 0,0.0133 0.19537,0.0305 0.43688,0.0305 l 178.36403,0 c 0.24152,0 0.43688,-0.0172 0.43688,-0.0305 l 0,-134.96941 0,-2.38253 0,-53.40333 c 0,-0.005 -0.19536,-0.0102 -0.43688,-0.0102 l -178.36403,0 z"
           id="path4062"
           inkscape:connector-curvature="0" />
        <path
           inkscape:connector-curvature="0"
           style="fill:#ffffff;fill-opacity:1;stroke:none"
           d="m 323.58298,493.13209 175.39649,0 c 0.2375,0 0.42869,0.0108 0.42869,0.0243 l 0,138.67635 c 0,0.0135 -0.19119,0.0242 -0.42869,0.0242 l -175.39649,0 c -0.23749,0 -0.42869,-0.0108 -0.42869,-0.0242 l 0,-138.67635 c 0,-0.0135 0.1912,-0.0243 0.42869,-0.0243 z"
           id="rect4064" />
        <path
           inkscape:connector-curvature="0"
           style="fill:#333333;fill-opacity:1;stroke:none"
           d="m 323.58298,461.01626 175.39649,0 c 0.2375,0 0.42869,0.003 0.42869,0.006 l 0,34.72396 c 0,0.004 -0.19119,0.006 -0.42869,0.006 l -175.39649,0 c -0.23749,0 -0.42869,-0.003 -0.42869,-0.006 l 0,-34.72396 c 0,-0.004 0.1912,-0.006 0.42869,-0.006 z"
           id="rect4066" />
        <path
           inkscape:connector-curvature="0"
           style="fill:#333333;fill-opacity:1;stroke:none"
           d="m 323.26535,631.22326 175.39649,0 c 0.23749,0 0.42869,0.001 0.42869,0.003 l 0,17.67267 c 0,0.003 -0.1912,0.003 -0.42869,0.003 l -175.39649,0 c -0.23749,0 -0.42869,-0.001 -0.42869,-0.003 l 0,-17.67267 c 0,-0.003 0.1912,-0.003 0.42869,-0.003 z"
           id="rect4088" />
        <g
           id="text4292"
           style="font-size:16.09392357px;font-style:normal;font-variant:normal;font-weight:bold;font-stretch:normal;line-height:125%;letter-spacing:0px;word-spacing:0px;fill:#333333;fill-opacity:1;stroke:none;font-family:Bitstream Charter;-inkscape-font-specification:Bitstream Charter Bold"
           transform="scale(0.9310016,1.074112)">
          <text
             xml:space="preserve"
             style="font-size:96px;font-style:normal;font-variant:normal;font-weight:normal;font-stretch:normal;text-align:start;line-height:125%;letter-spacing:0px;word-spacing:0px;writing-mode:lr-tb;text-anchor:start;fill:#333333;fill-opacity:1;stroke:none;font-family:Bitstream Vera Sans;-inkscape-font-specification:Bitstream Vera Sans"
             x="334.50497"
             y="592.31018"
             id="text3875"
             sodipodi:linespacing="125%"
             transform="scale(1.074112,0.93100161)"><tspan
               sodipodi:role="line"
               id="tspan3877"
               x="334.50497"
               y="592.31018">#</tspan></text>
        </g>
        <path
           id="rect4142"
           d="m 414.81602,514.8164 70.20724,0 c 0.10603,0 0.19139,0.004 0.19139,0.009 l 0,11.16997 c 0,0.005 -0.0854,0.009 -0.19139,0.009 l -70.20724,0 c -0.10602,0 -0.19138,-0.004 -0.19138,-0.009 l 0,-11.16997 c 0,-0.005 0.0854,-0.009 0.19138,-0.009 z"
           style="fill:#333333;fill-opacity:1;stroke:none"
           inkscape:connector-curvature="0" />
        <path
           inkscape:connector-curvature="0"
           style="fill:#333333;fill-opacity:1;stroke:none"
           d="m 414.81602,534.86818 70.20724,0 c 0.10603,0 0.19139,0.004 0.19139,0.009 l 0,11.16997 c 0,0.005 -0.0854,0.009 -0.19139,0.009 l -70.20724,0 c -0.10602,0 -0.19138,-0.004 -0.19138,-0.009 l 0,-11.16997 c 0,-0.005 0.0854,-0.009 0.19138,-0.009 z"
           id="path3187" />
        <path
           inkscape:connector-curvature="0"
           style="fill:#333333;fill-opacity:1;stroke:none"
           d="m 414.81602,552.41824 70.20724,0 c 0.10603,0 0.19139,0.004 0.19139,0.009 l 0,11.16997 c 0,0.005 -0.0854,0.009 -0.19139,0.009 l -70.20724,0 c -0.10602,0 -0.19138,-0.004 -0.19138,-0.009 l 0,-11.16997 c 0,-0.005 0.0854,-0.009 0.19138,-0.009 z"
           id="path4300" />
        <path
           id="path4302"
           d="m 414.81602,572.47002 70.20724,0 c 0.10603,0 0.19139,0.004 0.19139,0.009 l 0,11.16997 c 0,0.005 -0.0854,0.009 -0.19139,0.009 l -70.20724,0 c -0.10602,0 -0.19138,-0.004 -0.19138,-0.009 l 0,-11.16997 c 0,-0.005 0.0854,-0.009 0.19138,-0.009 z"
           style="fill:#333333;fill-opacity:1;stroke:none"
           inkscape:connector-curvature="0" />
        <path
           id="path4304"
           d="m 414.81602,590.66838 70.20724,0 c 0.10603,0 0.19139,0.004 0.19139,0.009 l 0,11.16997 c 0,0.005 -0.0854,0.009 -0.19139,0.009 l -70.20724,0 c -0.10602,0 -0.19138,-0.004 -0.19138,-0.009 l 0,-11.16997 c 0,-0.005 0.0854,-0.009 0.19138,-0.009 z"
           style="fill:#333333;fill-opacity:1;stroke:none"
           inkscape:connector-curvature="0" />
        <path
           inkscape:connector-curvature="0"
           style="fill:#333333;fill-opacity:1;stroke:none"
           d="m 343.69554,610.72016 141.13437,0 c 0.21314,0 0.38474,0.004 0.38474,0.009 l 0,11.16997 c 0,0.005 -0.17168,0.009 -0.38474,0.009 l -141.13437,0 c -0.21313,0 -0.38473,-0.004 -0.38473,-0.009 l 0,-11.16997 c 0,-0.005 0.17168,-0.009 0.38473,-0.009 z"
           id="path4306" />
        <path
           id="rect4308"
           d="m 331.18189,465.79221 25.49051,0 c 0.30196,0 0.54505,8.8e-4 0.54505,0.002 l 0,24.94734 c 0,10e-4 -0.24309,0.002 -0.54505,0.002 l -25.49051,0 c -0.30196,0 -0.54505,-8.9e-4 -0.54505,-0.002 l 0,-24.94734 c 0,-0.001 0.24309,-0.002 0.54505,-0.002 z"
           style="fill:none;stroke:#ffffff;stroke-width:0.8603093;stroke-opacity:1"
           inkscape:connector-curvature="0" />
        <path
           id="path4892"
           style="font-size:6.58916855px;font-style:normal;font-variant:normal;font-weight:normal;font-stretch:normal;line-height:125%;letter-spacing:0px;word-spacing:0px;fill:#ffffff;fill-opacity:1;stroke:none;font-family:Nimbus Mono L;-inkscape-font-specification:Nimbus Mono L"
           d="m 338.66422,471.79819 0.36899,0.96861 -0.50077,0 c -0.11861,0 -0.17791,0.0461 -0.17791,0.13178 0,0.0923 0.0593,0.13838 0.17791,0.13838 l 1.02791,0 c 0.1186,0 0.1779,-0.0461 0.1779,-0.13838 0,-0.0856 -0.0593,-0.13178 -0.1779,-0.13178 l -0.2438,0 -1.29807,-3.43955 -1.34419,0 c -0.1186,0 -0.17791,0.0461 -0.17791,0.13179 0,0.0922 0.0593,0.13837 0.17791,0.13837 l 0.7907,0 -1.17946,3.16939 -0.20426,0 c -0.11861,0 -0.17791,0.0461 -0.17791,0.13178 0,0.0923 0.0593,0.13838 0.17791,0.13838 l 0.99496,0 c 0.1186,0 0.17791,-0.0461 0.17791,-0.13838 0,-0.0856 -0.0593,-0.13178 -0.17791,-0.13178 l -0.52054,0 0.35581,-0.96861 1.75272,0 m -0.0988,-0.27015 -1.54845,0 0.71163,-1.93063 0.0988,0 0.73799,1.93063"
           inkscape:connector-curvature="0" />
        <path
           style="fill:none;stroke:#ffffff;stroke-width:0.85131484;stroke-linecap:butt;stroke-linejoin:miter;stroke-miterlimit:4;stroke-opacity:1;stroke-dasharray:1.70262969, 0.85131484;stroke-dashoffset:0"
           d="m 340.06249,471.35797 c 12.17499,-0.32939 12.17499,-0.32939 12.17499,-0.32939"
           id="path4828"
           inkscape:connector-curvature="0" />
        <path
           inkscape:connector-curvature="0"
           id="path4830"
           d="m 335.42122,474.98131 c 16.79918,-0.32939 16.79918,-0.32939 16.79918,-0.32939"
           style="fill:none;stroke:#ffffff;stroke-width:1;stroke-linecap:butt;stroke-linejoin:miter;stroke-miterlimit:4;stroke-opacity:1;stroke-dasharray:2, 1;stroke-dashoffset:0" />
        <path
           style="fill:none;stroke:#ffffff;stroke-width:1;stroke-linecap:butt;stroke-linejoin:miter;stroke-miterlimit:4;stroke-opacity:1;stroke-dasharray:2, 1;stroke-dashoffset:0"
           d="m 335.42122,478.42827 c 16.79918,-0.32939 16.79918,-0.32939 16.79918,-0.32939"
           id="path4832"
           inkscape:connector-curvature="0" />
        <path
           inkscape:connector-curvature="0"
           id="path4834"
           d="m 335.42122,482.38787 c 16.79918,-0.32939 16.79918,-0.32939 16.79918,-0.32939"
           style="fill:none;stroke:#ffffff;stroke-width:1;stroke-linecap:butt;stroke-linejoin:miter;stroke-miterlimit:4;stroke-opacity:1;stroke-dasharray:2, 1;stroke-dashoffset:0" />
        <path
           style="fill:none;stroke:#ffffff;stroke-width:0.74317223;stroke-linecap:butt;stroke-linejoin:miter;stroke-miterlimit:4;stroke-opacity:1;stroke-dasharray:1.48634451, 0.74317225;stroke-dashoffset:0"
           d="m 335.42122,486.34747 c 9.27827,-0.32939 9.27827,-0.32939 9.27827,-0.32939"
           id="path4836"
           inkscape:connector-curvature="0" />
        <g
           id="text4838"
           style="font-size:3.38951826px;font-style:normal;font-weight:normal;line-height:125%;letter-spacing:0px;word-spacing:0px;fill:#ffffff;fill-opacity:1;stroke:none;font-family:Sans">
          <path
             id="path4895"
             style="font-variant:normal;font-stretch:normal;fill:#ffffff;font-family:Nimbus Mono L;-inkscape-font-specification:Nimbus Mono L"
             d="m 346.48564,486.12385 0.11185,0 c 0.061,0 0.0915,-0.0237 0.0915,-0.0712 0,-0.0373 -0.0237,-0.061 -0.0644,-0.0678 l 0,-0.9389 c 0,-0.31184 -0.23049,-0.54571 -0.53894,-0.54571 -0.38301,0 -0.66095,0.37623 -0.66095,0.89144 l 0,0.55249 c 0,0.24066 0.061,0.45081 0.18303,0.62706 0.12202,0.17287 0.27116,0.25422 0.47453,0.25422 0.25083,0 0.50843,-0.10847 0.50843,-0.21354 0,-0.0339 -0.0305,-0.0644 -0.0678,-0.0644 -0.0237,0 -0.0271,0.003 -0.0644,0.0373 -0.0712,0.061 -0.21015,0.10169 -0.3559,0.10169 -0.16948,0 -0.28811,-0.061 -0.37963,-0.19321 -0.10168,-0.15252 -0.1593,-0.34573 -0.1593,-0.5491 l 0,-0.54232 c 0,-0.44742 0.21693,-0.76264 0.52537,-0.76264 0.23049,0 0.39658,0.16947 0.39658,0.40674 l 0,0.15931 c -0.34573,-0.003 -0.59656,0.20337 -0.59656,0.48809 0,0.24065 0.19659,0.42369 0.46098,0.42369 0.0339,0 0.0678,-0.003 0.13558,-0.0102 l 0,0.017 m 0,-0.15931 c -0.0407,0.0102 -0.0881,0.0136 -0.12542,0.0136 -0.19659,0 -0.33217,-0.11864 -0.33217,-0.28811 0,-0.20337 0.1932,-0.34912 0.45759,-0.34912 l 0,0.62367"
             inkscape:connector-curvature="0" />
          <path
             id="path4897"
             style="font-variant:normal;font-stretch:normal;fill:#ffffff;font-family:Nimbus Mono L;-inkscape-font-specification:Nimbus Mono L"
             d="m 348.05027,484.66296 c -0.28472,0.0339 -0.48809,0.23388 -0.48809,0.47793 0,0.1288 0.061,0.25082 0.15931,0.31861 0.0881,0.0542 0.18642,0.0881 0.40335,0.1288 0.2271,0.0441 0.28133,0.061 0.35929,0.10508 0.0813,0.0508 0.1288,0.13897 0.1288,0.24065 0,0.21354 -0.21015,0.36607 -0.49826,0.36607 -0.25082,0 -0.47792,-0.12541 -0.49148,-0.27116 -0.007,-0.061 -0.0237,-0.0847 -0.0678,-0.0847 -0.0475,0 -0.0712,0.0305 -0.0712,0.0915 l 0,0.26777 c 0,0.061 0.0237,0.0915 0.0712,0.0915 0.0441,0 0.0678,-0.0305 0.0678,-0.0915 l 0,-0.0542 c 0.0881,0.0983 0.27116,0.17625 0.42708,0.18303 l 0,0.40335 c 0,0.061 0.0237,0.0915 0.0712,0.0915 0.0441,0 0.0678,-0.0305 0.0678,-0.0915 l 0,-0.40335 c 0.34573,-0.0373 0.56266,-0.23049 0.56266,-0.49826 0,-0.14575 -0.061,-0.26777 -0.16609,-0.33895 -0.0949,-0.0644 -0.18303,-0.0915 -0.42708,-0.13897 -0.19998,-0.0373 -0.27116,-0.0576 -0.33895,-0.0983 -0.0712,-0.0441 -0.11863,-0.12541 -0.11863,-0.21353 0,-0.19321 0.18981,-0.35251 0.42369,-0.35251 0.20676,0 0.39996,0.10507 0.41691,0.22709 0.007,0.0542 0.0271,0.0746 0.0712,0.0746 0.0441,0 0.0678,-0.0305 0.0678,-0.0915 l 0,-0.20338 c 0,-0.061 -0.0203,-0.0915 -0.0678,-0.0915 -0.0441,0 -0.0678,0.0339 -0.0712,0.0983 -0.12202,-0.0949 -0.19998,-0.1288 -0.35251,-0.14236 l 0,-0.17625 c 0,-0.061 -0.0237,-0.0915 -0.0678,-0.0915 -0.0474,0 -0.0712,0.0305 -0.0712,0.0915 l 0,0.17625"
             inkscape:connector-curvature="0" />
          <path
             id="path4899"
             style="font-variant:normal;font-stretch:normal;fill:#ffffff;font-family:Nimbus Mono L;-inkscape-font-specification:Nimbus Mono L"
             d="m 350.15045,484.53077 -0.60334,0.75586 c -0.0237,0.0271 -0.0305,0.0407 -0.0305,0.061 0,0.0373 0.0305,0.0678 0.0678,0.0678 0.0271,0 0.0441,-0.0102 0.0678,-0.0441 l 0.49826,-0.62706 0.49826,0.62706 c 0.0237,0.0339 0.0407,0.0441 0.0678,0.0441 0.0373,0 0.0678,-0.0305 0.0678,-0.0678 0,-0.017 -0.0102,-0.0373 -0.0305,-0.061 l -0.60333,-0.75586"
             inkscape:connector-curvature="0" />
          <path
             id="path4901"
             style="font-variant:normal;font-stretch:normal;fill:#ffffff;font-family:Nimbus Mono L;-inkscape-font-specification:Nimbus Mono L"
             d="m 352.77261,485.2019 -1.18633,0 0,0.32539 c 0,0.061 0.0237,0.0915 0.0712,0.0915 0.0441,0 0.0678,-0.0305 0.0678,-0.0915 l 0,-0.18642 0.85077,0 -1.02025,1.15243 0,0.12203 1.26768,0 0,-0.32879 c 0,-0.061 -0.0237,-0.0915 -0.0678,-0.0915 -0.0474,0 -0.0712,0.0305 -0.0712,0.0915 l 0,0.18982 -0.93889,0 1.02702,-1.15244 0,-0.12202"
             inkscape:connector-curvature="0" />
        </g>
        <text
           xml:space="preserve"
           style="font-size:32px;font-style:normal;font-variant:normal;font-weight:bold;font-stretch:normal;text-align:start;line-height:125%;letter-spacing:0px;word-spacing:0px;writing-mode:lr-tb;text-anchor:start;fill:#ffffff;fill-opacity:1;stroke:none;font-family:Serif;-inkscape-font-specification:Serif Bold"
           x="372.43011"
           y="489.92529"
           id="text3832"
           sodipodi:linespacing="125%"><tspan
             sodipodi:role="line"
             id="tspan3834"
             x="372.43011"
             y="489.92529">CODE</tspan></text>
      </g>
    </g>
    <g
       id="g4906"
       transform="matrix(0,-1,1,0,-201.88465,881.07069)">
      <path
         inkscape:connector-curvature="0"
         id="path3635"
         d="m 271.94834,281.28019 44.98394,95.07968"
         style="fill:none;stroke:#000000;stroke-width:8.19999981;stroke-linecap:butt;stroke-linejoin:miter;stroke-miterlimit:4;stroke-opacity:1;stroke-dasharray:none;marker-end:url(#Arrow2Mend)" />
      <path
         inkscape:connector-curvature="0"
         id="path3635-3"
         d="m 465.39317,281.2465 -44.98394,95.07968"
         style="fill:none;stroke:#000000;stroke-width:8.19999981;stroke-linecap:butt;stroke-linejoin:miter;stroke-miterlimit:4;stroke-opacity:1;stroke-dasharray:none;marker-end:url(#Arrow2Mend)" />
    </g>
    <path
       style="fill:none;stroke:#000000;stroke-width:8.19999981;stroke-linecap:butt;stroke-linejoin:miter;stroke-miterlimit:4;stroke-opacity:1;stroke-dasharray:none;marker-end:url(#Arrow2Mend)"
       d="m 657.36355,517.32563 102.23622,-1.02237"
       id="path3635-7"
       inkscape:connector-curvature="0"
       sodipodi:nodetypes="cc" />
  </g>
</svg>
