<?xml version="1.0" encoding="UTF-8" standalone="no"?>
<!-- Created with Inkscape (http://www.inkscape.org/) -->

<svg
   xmlns:dc="http://purl.org/dc/elements/1.1/"
   xmlns:cc="http://creativecommons.org/ns#"
   xmlns:rdf="http://www.w3.org/1999/02/22-rdf-syntax-ns#"
   xmlns:svg="http://www.w3.org/2000/svg"
   xmlns="http://www.w3.org/2000/svg"
   xmlns:sodipodi="http://sodipodi.sourceforge.net/DTD/sodipodi-0.dtd"
   xmlns:inkscape="http://www.inkscape.org/namespaces/inkscape"
   width="54.313309mm"
   height="4.7797437mm"
   viewBox="0 0 192.44873 16.9361"
   id="svg2"
   version="1.1"
   inkscape:version="0.91 r13725"
   sodipodi:docname="email.svg">
  <defs
     id="defs4" />
  <sodipodi:namedview
     id="base"
     pagecolor="#ffffff"
     bordercolor="#666666"
     borderopacity="1.0"
     inkscape:pageopacity="0.0"
     inkscape:pageshadow="2"
     inkscape:zoom="5.2288793"
     inkscape:cx="131.42857"
     inkscape:cy="39.999995"
     inkscape:document-units="px"
     inkscape:current-layer="text3336"
     showgrid="false"
     fit-margin-top="0"
     fit-margin-left="0"
     fit-margin-right="0"
     fit-margin-bottom="0"
     inkscape:window-width="1920"
     inkscape:window-height="1016"
     inkscape:window-x="0"
     inkscape:window-y="27"
     inkscape:window-maximized="1" />
  <metadata
     id="metadata7">
    <rdf:RDF>
      <cc:Work
         rdf:about="">
        <dc:format>image/svg+xml</dc:format>
        <dc:type
           rdf:resource="http://purl.org/dc/dcmitype/StillImage" />
        <dc:title></dc:title>
      </cc:Work>
    </rdf:RDF>
  </metadata>
  <g
     inkscape:label="Layer 1"
     inkscape:groupmode="layer"
     id="layer1"
     transform="translate(0,-1035.4261)">
    <g
       style="font-style:normal;font-weight:normal;font-size:17.5px;line-height:125%;font-family:sans-serif;letter-spacing:0px;word-spacing:0px;fill:#000000;fill-opacity:1;stroke:none;stroke-width:1px;stroke-linecap:butt;stroke-linejoin:miter;stroke-opacity:1"
       id="text3336">
      <path
         d="m 0.21362305,1039.1517 7.46826175,0 0,1.4356 -5.913086,6.8786 5.913086,0 0,1.2561 -7.6818848,0 0,-1.4355 5.9130859,-6.8787 -5.69946285,0 0,-1.2561 z"
         id="path3341"
         inkscape:connector-curvature="0" />
      <path
         d="m 9.9291992,1044.9452 0,-5.7935 1.5722658,0 0,5.7337 q 0,1.3586 0.529785,2.0422 0.529785,0.6751 1.589355,0.6751 1.273194,0 2.008057,-0.8118 0.743408,-0.8118 0.743408,-2.2131 l 0,-5.4261 1.572266,0 0,9.5703 -1.572266,0 0,-1.4697 q -0.572509,0.8716 -1.333007,1.2988 -0.751954,0.4187 -1.751709,0.4187 -1.64917,0 -2.503663,-1.0253 -0.8544918,-1.0254 -0.8544918,-2.9993 z m 3.9562988,-6.0242 0,0 z"
         id="path3343"
         inkscape:connector-curvature="0" />
      <path
         d="m 31.940918,1035.4261 0,1.3074 -1.503906,0 q -0.845948,0 -1.1792,0.3418 -0.324707,0.3418 -0.324707,1.2305 l 0,0.8459 2.589112,0 0,1.222 -2.589112,0 0,8.3483 -1.58081,0 0,-8.3483 -4.315186,0 0,8.3483 -1.58081,0 0,-8.3483 -1.503906,0 0,-1.222 1.503906,0 0,-0.6665 q 0,-1.5979 0.743408,-2.3242 0.743408,-0.7349 2.358398,-0.7349 l 1.486817,0 0,1.3074 -1.503906,0 q -0.845948,0 -1.1792,0.3418 -0.324707,0.3418 -0.324707,1.2305 l 0,0.8459 4.315186,0 0,-0.6665 q 0,-1.5979 0.743408,-2.3242 0.743408,-0.7349 2.358399,-0.7349 l 1.486816,0 z"
         id="path3345"
         inkscape:connector-curvature="0" />
      <path
         d="m 41.451416,1043.5438 0,0.7691 -7.229004,0 q 0.102539,1.6235 0.974121,2.478 0.880127,0.8459 2.443848,0.8459 0.905762,0 1.751709,-0.2221 0.854492,-0.2222 1.691894,-0.6665 l 0,1.4868 q -0.845947,0.3589 -1.734619,0.5469 -0.888672,0.1879 -1.802978,0.1879 -2.290039,0 -3.631592,-1.333 -1.333008,-1.333 -1.333008,-3.6059 0,-2.3499 1.264649,-3.7256 1.273193,-1.3843 3.426513,-1.3843 1.931153,0 3.050537,1.2476 1.12793,1.239 1.12793,3.3752 z m -1.572266,-0.4614 q -0.01709,-1.2903 -0.726318,-2.0593 -0.700684,-0.7691 -1.862793,-0.7691 -1.315918,0 -2.110596,0.7434 -0.786132,0.7434 -0.905761,2.0935 l 5.605468,-0.01 z"
         id="path3347"
         inkscape:connector-curvature="0" />
      <path
         d="m 49.577637,1040.6215 q -0.264893,-0.1538 -0.581055,-0.2222 -0.307617,-0.077 -0.683594,-0.077 -1.333008,0 -2.050781,0.8716 -0.709228,0.863 -0.709228,2.4865 l 0,5.0415 -1.580811,0 0,-9.5703 1.580811,0 0,1.4868 q 0.495605,-0.8715 1.290283,-1.2902 0.794677,-0.4273 1.931152,-0.4273 0.162354,0 0.358887,0.026 0.196533,0.017 0.435791,0.06 l 0.0085,1.615 z"
         id="path3349"
         inkscape:connector-curvature="0" />
      <path
         d="m 59.053955,1043.5438 0,0.7691 -7.229004,0 q 0.102539,1.6235 0.974121,2.478 0.880127,0.8459 2.443848,0.8459 0.905762,0 1.751709,-0.2221 0.854492,-0.2222 1.691894,-0.6665 l 0,1.4868 q -0.845947,0.3589 -1.734619,0.5469 -0.888672,0.1879 -1.802978,0.1879 -2.290039,0 -3.631592,-1.333 -1.333008,-1.333 -1.333008,-3.6059 0,-2.3499 1.264649,-3.7256 1.273193,-1.3843 3.426513,-1.3843 1.931153,0 3.050537,1.2476 1.12793,1.239 1.12793,3.3752 z m -1.572266,-0.4614 q -0.01709,-1.2903 -0.726318,-2.0593 -0.700684,-0.7691 -1.862793,-0.7691 -1.315918,0 -2.110596,0.7434 -0.786132,0.7434 -0.905761,2.0935 l 5.605468,-0.01 z"
         id="path3351"
         inkscape:connector-curvature="0" />
      <path
         d="m 65.616455,1049.6107 q -0.666504,1.709 -1.298828,2.2302 -0.632324,0.5213 -1.691895,0.5213 l -1.256103,0 0,-1.3159 0.922851,0 q 0.649415,0 1.008301,-0.3077 0.358887,-0.3076 0.794678,-1.4526 l 0.281982,-0.7178 -3.870849,-9.4165 1.66626,0 2.990722,7.4854 2.990723,-7.4854 1.66626,0 -4.204102,10.459 z"
         id="path3353"
         inkscape:connector-curvature="0" />
      <path
         d="m 76.853027,1044.1334 q 0,1.2219 0.60669,1.9226 0.606689,0.6922 1.66626,0.6922 1.051025,0 1.649169,-0.7007 0.60669,-0.7007 0.60669,-1.9141 0,-1.1963 -0.615234,-1.8969 -0.615235,-0.7093 -1.657715,-0.7093 -1.033936,0 -1.64917,0.7007 -0.60669,0.7007 -0.60669,1.9055 z m 4.656983,2.555 q -0.512696,0.6579 -1.179199,0.9741 -0.657959,0.3076 -1.538086,0.3076 -1.469727,0 -2.392579,-1.0596 -0.914306,-1.0681 -0.914306,-2.7771 0,-1.709 0.922851,-2.7771 0.922852,-1.0681 2.384034,-1.0681 0.880127,0 1.54663,0.3247 0.666504,0.3162 1.170655,0.9656 l 0,-1.1194 1.221924,0 0,6.2891 q 1.247558,-0.188 1.948242,-1.1365 0.709228,-0.957 0.709228,-2.4695 0,-0.9143 -0.273437,-1.7175 -0.264893,-0.8032 -0.811768,-1.4868 -0.888672,-1.1194 -2.17041,-1.709 -1.273193,-0.5982 -2.7771,-0.5982 -1.051025,0 -2.016601,0.282 -0.965576,0.2735 -1.785889,0.8203 -1.341553,0.8716 -2.102051,2.2901 -0.751953,1.4099 -0.751953,3.0591 0,1.3586 0.487061,2.5463 0.495605,1.1878 1.427002,2.0935 0.897217,0.8887 2.076416,1.3501 1.179199,0.47 2.520752,0.47 1.102295,0 2.161865,-0.376 1.068115,-0.3674 1.956787,-1.0595 l 0.769043,0.9485 q -1.068115,0.8288 -2.332764,1.2646 -1.256103,0.4443 -2.554931,0.4443 -1.580811,0 -2.982178,-0.5639 -1.401367,-0.5554 -2.495117,-1.6236 -1.09375,-1.0681 -1.66626,-2.4694 -0.57251,-1.41 -0.57251,-3.0249 0,-1.5552 0.581055,-2.9651 0.581055,-1.4099 1.657715,-2.4781 1.102295,-1.0852 2.546387,-1.6577 1.444091,-0.581 3.059082,-0.581 1.811523,0 3.358154,0.7434 1.555176,0.7434 2.606201,2.1106 0.640869,0.8374 0.974121,1.82 0.341797,0.9827 0.341797,2.0337 0,2.2473 -1.358643,3.5462 -1.358642,1.2988 -3.75122,1.3501 l 0,-1.3159 z"
         id="path3355"
         inkscape:connector-curvature="0" />
      <path
         d="m 96.942139,1040.9889 q 0.589599,-1.0596 1.409912,-1.5637 0.820312,-0.5042 1.931149,-0.5042 1.49536,0 2.30713,1.051 0.81177,1.0425 0.81177,2.9737 l 0,5.7763 -1.58081,0 0,-5.7251 q 0,-1.3757 -0.48706,-2.0422 -0.48706,-0.6665 -1.486818,-0.6665 -1.221924,0 -1.931152,0.8118 -0.709229,0.8117 -0.709229,2.2131 l 0,5.4089 -1.58081,0 0,-5.7251 q 0,-1.3842 -0.487061,-2.0422 -0.48706,-0.6665 -1.503906,-0.6665 -1.204834,0 -1.914063,0.8203 -0.709228,0.8118 -0.709228,2.2046 l 0,5.4089 -1.580811,0 0,-9.5703 1.580811,0 0,1.4868 q 0.53833,-0.8801 1.290283,-1.2988 0.751953,-0.4187 1.785889,-0.4187 1.04248,0 1.768799,0.5298 0.734863,0.5298 1.085205,1.5381 z"
         id="path3357"
         inkscape:connector-curvature="0" />
      <path
         d="m 108.06763,1047.2865 0,5.0757 -1.58081,0 0,-13.2105 1.58081,0 0,1.4527 q 0.4956,-0.8545 1.24756,-1.2647 0.76049,-0.4187 1.81152,-0.4187 1.74316,0 2.82837,1.3843 1.09375,1.3843 1.09375,3.6401 0,2.2559 -1.09375,3.6402 -1.08521,1.3842 -2.82837,1.3842 -1.05103,0 -1.81152,-0.4101 -0.75196,-0.4187 -1.24756,-1.2732 z m 5.34912,-3.3411 q 0,-1.7346 -0.71778,-2.7173 -0.70922,-0.9912 -1.95678,-0.9912 -1.24756,0 -1.96533,0.9912 -0.70923,0.9827 -0.70923,2.7173 0,1.7347 0.70923,2.7259 0.71777,0.9826 1.96533,0.9826 1.24756,0 1.95678,-0.9826 0.71778,-0.9912 0.71778,-2.7259 z"
         id="path3359"
         inkscape:connector-curvature="0" />
      <path
         d="m 117.65503,1039.1517 1.57226,0 0,9.5703 -1.57226,0 0,-9.5703 z m 0,-3.7256 1.57226,0 0,1.991 -1.57226,0 0,-1.991 z"
         id="path3361"
         inkscape:connector-curvature="0" />
      <path
         d="m 121.71387,1043.2277 4.60571,0 0,1.4013 -4.60571,0 0,-1.4013 z"
         id="path3363"
         inkscape:connector-curvature="0" />
      <path
         d="m 134.93286,1039.4337 0,1.4868 q -0.6665,-0.3418 -1.38428,-0.5127 -0.71777,-0.1709 -1.48681,-0.1709 -1.17066,0 -1.76026,0.3589 -0.58105,0.3589 -0.58105,1.0767 0,0.5469 0.4187,0.863 0.4187,0.3076 1.68335,0.5896 l 0.53833,0.1197 q 1.6748,0.3588 2.37549,1.0168 0.70923,0.6494 0.70923,1.8201 0,1.333 -1.05957,2.1106 -1.05103,0.7775 -2.89673,0.7775 -0.76905,0 -1.60645,-0.1538 -0.82885,-0.1452 -1.75171,-0.4443 l 0,-1.6235 q 0.87159,0.4528 1.71753,0.6836 0.84595,0.2221 1.67481,0.2221 1.11084,0 1.70898,-0.3759 0.59815,-0.3846 0.59815,-1.0767 0,-0.6409 -0.43579,-0.9827 -0.42725,-0.3418 -1.88843,-0.6579 l -0.54688,-0.1282 q -1.46118,-0.3076 -2.11059,-0.9399 -0.64942,-0.6409 -0.64942,-1.7518 0,-1.3501 0.95703,-2.0849 0.95704,-0.7349 2.71729,-0.7349 0.87158,0 1.64062,0.1282 0.76905,0.1282 1.41846,0.3845 z"
         id="path3365"
         inkscape:connector-curvature="0" />
      <path
         d="m 137.04346,1039.1517 1.57226,0 1.96533,7.4683 1.95679,-7.4683 1.85425,0 1.96533,7.4683 1.95679,-7.4683 1.57226,0 -2.50366,9.5703 -1.85425,0 -2.05932,-7.8442 -2.06787,7.8442 -1.85425,0 -2.50366,-9.5703 z"
         id="path3367"
         inkscape:connector-curvature="0" />
      <path
         d="m 158.38013,1039.4337 0,1.4868 q -0.66651,-0.3418 -1.38428,-0.5127 -0.71777,-0.1709 -1.48682,-0.1709 -1.17065,0 -1.76025,0.3589 -0.58106,0.3589 -0.58106,1.0767 0,0.5469 0.41871,0.863 0.4187,0.3076 1.68335,0.5896 l 0.53833,0.1197 q 1.6748,0.3588 2.37548,1.0168 0.70923,0.6494 0.70923,1.8201 0,1.333 -1.05957,2.1106 -1.05102,0.7775 -2.89673,0.7775 -0.76904,0 -1.60644,-0.1538 -0.82886,-0.1452 -1.75171,-0.4443 l 0,-1.6235 q 0.87158,0.4528 1.71753,0.6836 0.84595,0.2221 1.6748,0.2221 1.11084,0 1.70899,-0.3759 0.59814,-0.3846 0.59814,-1.0767 0,-0.6409 -0.43579,-0.9827 -0.42725,-0.3418 -1.88843,-0.6579 l -0.54687,-0.1282 q -1.46118,-0.3076 -2.1106,-0.9399 -0.64941,-0.6409 -0.64941,-1.7518 0,-1.3501 0.95703,-2.0849 0.95703,-0.7349 2.71728,-0.7349 0.87159,0 1.64063,0.1282 0.76904,0.1282 1.41846,0.3845 z"
         id="path3369"
         inkscape:connector-curvature="0" />
      <path
         d="m 161.6272,1046.5516 1.80298,0 0,2.1704 -1.80298,0 0,-2.1704 z"
         id="path3371"
         inkscape:connector-curvature="0" />
      <path
         d="m 170.68481,1040.254 q -1.26464,0 -1.99951,0.9912 -0.73486,0.9827 -0.73486,2.7002 0,1.7176 0.72632,2.7088 0.73486,0.9826 2.00805,0.9826 1.25611,0 1.99097,-0.9912 0.73486,-0.9912 0.73486,-2.7002 0,-1.7004 -0.73486,-2.6916 -0.73486,-0.9998 -1.99097,-0.9998 z m 0,-1.333 q 2.05079,0 3.22144,1.333 1.17065,1.333 1.17065,3.6914 0,2.3499 -1.17065,3.6914 -1.17065,1.333 -3.22144,1.333 -2.05932,0 -3.22998,-1.333 -1.16211,-1.3415 -1.16211,-3.6914 0,-2.3584 1.16211,-3.6914 1.17066,-1.333 3.22998,-1.333 z"
         id="path3373"
         inkscape:connector-curvature="0" />
      <path
         d="m 183.22021,1040.6215 q -0.26489,-0.1538 -0.58105,-0.2222 -0.30762,-0.077 -0.68359,-0.077 -1.33301,0 -2.05078,0.8716 -0.70923,0.863 -0.70923,2.4865 l 0,5.0415 -1.58081,0 0,-9.5703 1.58081,0 0,1.4868 q 0.4956,-0.8715 1.29028,-1.2902 0.79468,-0.4273 1.93115,-0.4273 0.16236,0 0.35889,0.026 0.19653,0.017 0.43579,0.06 l 0.009,1.615 z"
         id="path3375"
         inkscape:connector-curvature="0" />
      <path
         d="m 190.87646,1043.8258 q 0,-1.709 -0.70922,-2.6489 -0.70069,-0.94 -1.97388,-0.94 -1.26465,0 -1.97388,0.94 -0.70068,0.9399 -0.70068,2.6489 0,1.7004 0.70068,2.6404 0.70923,0.9399 1.97388,0.9399 1.27319,0 1.97388,-0.9399 0.70922,-0.94 0.70922,-2.6404 z m 1.57227,3.7085 q 0,2.4438 -1.0852,3.6316 -1.08521,1.1963 -3.32398,1.1963 -0.82886,0 -1.56372,-0.1282 -0.73486,-0.1196 -1.427,-0.376 l 0,-1.5295 q 0.69214,0.376 1.36719,0.5554 0.67504,0.1795 1.37573,0.1795 1.54663,0 2.31567,-0.8118 0.76904,-0.8032 0.76904,-2.4353 l 0,-0.7776 q -0.48706,0.8459 -1.24755,1.2646 -0.7605,0.4187 -1.82007,0.4187 -1.76026,0 -2.83692,-1.3415 -1.07666,-1.3416 -1.07666,-3.5547 0,-2.2217 1.07666,-3.5632 1.07666,-1.3416 2.83692,-1.3416 1.05957,0 1.82007,0.4187 0.76049,0.4187 1.24755,1.2647 l 0,-1.4527 1.57227,0 0,8.3826 z"
         id="path3377"
         inkscape:connector-curvature="0" />
    </g>
  </g>
</svg>
