<?xml version="1.0" encoding="UTF-8" standalone="no"?>
<!-- Created with Inkscape (http://www.inkscape.org/) -->

<svg
   width="68.134338mm"
   height="4.0969071mm"
   viewBox="0 0 241.42088 14.5166"
   id="svg2"
   version="1.1"
   inkscape:version="1.1.1 (3bf5ae0d25, 2021-09-20)"
   sodipodi:docname="email.svg"
   xmlns:inkscape="http://www.inkscape.org/namespaces/inkscape"
   xmlns:sodipodi="http://sodipodi.sourceforge.net/DTD/sodipodi-0.dtd"
   xmlns="http://www.w3.org/2000/svg"
   xmlns:svg="http://www.w3.org/2000/svg"
   xmlns:rdf="http://www.w3.org/1999/02/22-rdf-syntax-ns#"
   xmlns:cc="http://creativecommons.org/ns#"
   xmlns:dc="http://purl.org/dc/elements/1.1/">
  <defs
     id="defs4" />
  <sodipodi:namedview
     id="base"
     pagecolor="#ffffff"
     bordercolor="#666666"
     borderopacity="1.0"
     inkscape:pageopacity="0.0"
     inkscape:pageshadow="2"
     inkscape:zoom="5.2288793"
     inkscape:cx="96.196521"
     inkscape:cy="98.969582"
     inkscape:document-units="px"
     inkscape:current-layer="text3336"
     showgrid="false"
     fit-margin-top="0"
     fit-margin-left="0"
     fit-margin-right="0"
     fit-margin-bottom="0"
     inkscape:window-width="3840"
     inkscape:window-height="2091"
     inkscape:window-x="0"
     inkscape:window-y="32"
     inkscape:window-maximized="1"
     inkscape:pagecheckerboard="0" />
  <metadata
     id="metadata7">
    <rdf:RDF>
      <cc:Work
         rdf:about="">
        <dc:format>image/svg+xml</dc:format>
        <dc:type
           rdf:resource="http://purl.org/dc/dcmitype/StillImage" />
      </cc:Work>
    </rdf:RDF>
  </metadata>
  <g
     inkscape:label="Layer 1"
     inkscape:groupmode="layer"
     id="layer1"
     transform="translate(-0.8410302,-1037.0526)">
    <g
       style="font-style:normal;font-weight:normal;font-size:17.5px;line-height:125%;font-family:sans-serif;letter-spacing:0px;word-spacing:0px;fill:#000000;fill-opacity:1;stroke:none;stroke-width:1px;stroke-linecap:butt;stroke-linejoin:miter;stroke-opacity:1"
       id="text3336">
      <path
         d="m 6.8249169,1041.4911 v -4.4385 h 1.3476563 v 11.3965 H 6.8249169 v -1.2305 q -0.4248047,0.7324 -1.0766601,1.0913 -0.6445313,0.3516 -1.5527344,0.3516 -1.4868164,0 -2.4243164,-1.1865 -0.9301758,-1.1865 -0.9301758,-3.1201 0,-1.9336 0.9301758,-3.1202 0.9375,-1.1865 2.4243164,-1.1865 0.9082031,0 1.5527344,0.3589 0.6518554,0.3516 1.0766601,1.084 z m -4.5922851,2.8638 q 0,1.4868 0.6079101,2.3364 0.6152344,0.8423 1.6845703,0.8423 1.069336,0 1.6845703,-0.8423 0.6152344,-0.8496 0.6152344,-2.3364 0,-1.4869 -0.6152344,-2.3291 -0.6152343,-0.8497 -1.6845703,-0.8497 -1.0693359,0 -1.6845703,0.8497 -0.6079101,0.8422 -0.6079101,2.3291 z"
         style="font-size:15px;line-height:1.25;font-family:sans-serif;-inkscape-font-specification:sans-serif;stroke-width:0.9375px"
         id="path18641" />
      <path
         d="m 14.676479,1044.3256 q -1.6333,0 -2.263183,0.3735 -0.629883,0.3735 -0.629883,1.2744 0,0.7178 0.46875,1.1426 0.476074,0.4175 1.289063,0.4175 1.120605,0 1.794433,-0.791 0.681152,-0.7984 0.681152,-2.1167 v -0.3003 z m 2.687989,-0.5567 v 4.6802 h -1.347657 v -1.2451 q -0.461425,0.747 -1.149902,1.1059 -0.688476,0.3516 -1.68457,0.3516 -1.259766,0 -2.006836,-0.7031 -0.739746,-0.7105 -0.739746,-1.897 0,-1.3843 0.922851,-2.0874 0.930176,-0.7031 2.768555,-0.7031 h 1.889648 v -0.1319 q 0,-0.9301 -0.615234,-1.4355 -0.60791,-0.5127 -1.713867,-0.5127 -0.703125,0 -1.369629,0.1685 -0.666504,0.1684 -1.281738,0.5053 v -1.2451 q 0.739746,-0.2856 1.435547,-0.4248 0.6958,-0.1465 1.35498,-0.1465 1.779785,0 2.658691,0.9229 0.878907,0.9228 0.878907,2.7978 z"
         style="font-size:15px;line-height:1.25;font-family:sans-serif;-inkscape-font-specification:sans-serif;stroke-width:0.9375px"
         id="path18643" />
      <path
         d="m 26.527065,1041.8207 q 0.505371,-0.9082 1.208496,-1.3404 0.703125,-0.4321 1.655274,-0.4321 1.281738,0 1.977539,0.9009 0.695801,0.8936 0.695801,2.5488 v 4.9512 h -1.354981 v -4.9072 q 0,-1.1792 -0.41748,-1.7505 -0.417481,-0.5713 -1.274414,-0.5713 -1.047364,0 -1.655274,0.6958 -0.60791,0.6958 -0.60791,1.897 v 4.6362 h -1.35498 v -4.9072 q 0,-1.1866 -0.417481,-1.7505 -0.41748,-0.5713 -1.289062,-0.5713 -1.032715,0 -1.640625,0.7031 -0.60791,0.6958 -0.60791,1.8897 v 4.6362 h -1.354981 v -8.2031 h 1.354981 v 1.2744 q 0.461425,-0.7544 1.105957,-1.1133 0.644531,-0.3589 1.530761,-0.3589 0.893555,0 1.516114,0.4541 0.629882,0.4541 0.930175,1.3184 z"
         style="font-size:15px;line-height:1.25;font-family:sans-serif;-inkscape-font-specification:sans-serif;stroke-width:0.9375px"
         id="path18645" />
      <path
         d="m 34.752163,1040.246 h 1.347656 v 8.2031 h -1.347656 z m 0,-3.1934 h 1.347656 v 1.7066 h -1.347656 z"
         style="font-size:15px;line-height:1.25;font-family:sans-serif;-inkscape-font-specification:sans-serif;stroke-width:0.9375px"
         id="path18647" />
      <path
         d="m 45.936245,1044.0106 v 0.6592 h -6.196289 q 0.08789,1.3916 0.834961,2.124 0.754394,0.7251 2.094726,0.7251 0.776368,0 1.501465,-0.1904 0.732422,-0.1904 1.450196,-0.5713 v 1.2744 q -0.725098,0.3076 -1.486817,0.4688 -0.761719,0.1611 -1.54541,0.1611 -1.962891,0 -3.112793,-1.1426 -1.142578,-1.1426 -1.142578,-3.0908 0,-2.0142 1.083984,-3.1934 1.091309,-1.1865 2.937012,-1.1865 1.655274,0 2.614746,1.0694 0.966797,1.062 0.966797,2.893 z m -1.347656,-0.3955 q -0.01465,-1.1059 -0.622559,-1.7651 -0.600586,-0.6592 -1.596679,-0.6592 -1.12793,0 -1.809083,0.6372 -0.673828,0.6372 -0.776367,1.7944 z"
         style="font-size:15px;line-height:1.25;font-family:sans-serif;-inkscape-font-specification:sans-serif;stroke-width:0.9375px"
         id="path18649" />
      <path
         d="m 54.967007,1043.4979 v 4.9512 h -1.347656 v -4.9072 q 0,-1.1646 -0.454102,-1.7432 -0.454102,-0.5786 -1.362305,-0.5786 -1.091308,0 -1.721191,0.6958 -0.629883,0.6958 -0.629883,1.897 v 4.6362 h -1.35498 v -8.2031 h 1.35498 v 1.2744 q 0.483398,-0.7398 1.135254,-1.106 0.65918,-0.3662 1.516113,-0.3662 1.413574,0 2.138672,0.8789 0.725098,0.8716 0.725098,2.5708 z"
         style="font-size:15px;line-height:1.25;font-family:sans-serif;-inkscape-font-specification:sans-serif;stroke-width:0.9375px"
         id="path18651" />
      <path
         d="m 57.845425,1046.5887 h 1.54541 v 1.8604 h -1.54541 z"
         style="font-size:15px;line-height:1.25;font-family:sans-serif;-inkscape-font-specification:sans-serif;stroke-width:0.9375px"
         id="path18653" />
      <path
         d="m 61.837124,1040.246 h 6.401367 v 1.2304 l -5.068359,5.896 h 5.068359 v 1.0767 h -6.584473 v -1.2305 l 5.06836,-5.896 h -4.885254 z"
         style="font-size:15px;line-height:1.25;font-family:sans-serif;-inkscape-font-specification:sans-serif;stroke-width:0.9375px"
         id="path18655" />
      <path
         d="m 70.157436,1045.2118 v -4.9658 h 1.347657 v 4.9145 q 0,1.1646 0.454101,1.7505 0.454102,0.5786 1.362305,0.5786 1.091309,0 1.721191,-0.6958 0.637207,-0.6958 0.637207,-1.8969 v -4.6509 h 1.347657 v 8.2031 h -1.347657 v -1.2598 q -0.490722,0.7471 -1.142578,1.1133 -0.644531,0.3589 -1.501465,0.3589 -1.413574,0 -2.145996,-0.8789 -0.732422,-0.8789 -0.732422,-2.5708 z m 3.391114,-5.1636 z"
         style="font-size:15px;line-height:1.25;font-family:sans-serif;-inkscape-font-specification:sans-serif;stroke-width:0.9375px"
         id="path18657" />
      <path
         d="m 89.009976,1037.0526 v 1.1206 h -1.289063 q -0.725098,0 -1.010742,0.293 -0.27832,0.293 -0.27832,1.0547 v 0.7251 h 2.219238 v 1.0473 h -2.219238 v 7.1558 H 85.07687 v -7.1558 h -3.69873 v 7.1558 h -1.354981 v -7.1558 h -1.289062 v -1.0473 h 1.289062 v -0.5713 q 0,-1.3696 0.637207,-1.9922 0.637207,-0.6299 2.021485,-0.6299 h 1.274414 v 1.1206 h -1.289063 q -0.725098,0 -1.010742,0.293 -0.27832,0.293 -0.27832,1.0547 v 0.7251 h 3.69873 v -0.5713 q 0,-1.3696 0.637207,-1.9922 0.637207,-0.6299 2.021484,-0.6299 z"
         style="font-size:15px;line-height:1.25;font-family:sans-serif;-inkscape-font-specification:sans-serif;stroke-width:0.9375px"
         id="path18659" />
      <path
         d="m 97.154507,1044.0106 v 0.6592 h -6.196289 q 0.08789,1.3916 0.834961,2.124 0.754394,0.7251 2.094726,0.7251 0.776367,0 1.501465,-0.1904 0.732422,-0.1904 1.450195,-0.5713 v 1.2744 q -0.725097,0.3076 -1.486816,0.4688 -0.761719,0.1611 -1.54541,0.1611 -1.962891,0 -3.112793,-1.1426 -1.142578,-1.1426 -1.142578,-3.0908 0,-2.0142 1.083984,-3.1934 1.091309,-1.1865 2.937012,-1.1865 1.655273,0 2.614746,1.0694 0.966797,1.062 0.966797,2.893 z m -1.347656,-0.3955 q -0.01465,-1.1059 -0.622559,-1.7651 -0.600586,-0.6592 -1.59668,-0.6592 -1.127929,0 -1.809082,0.6372 -0.673828,0.6372 -0.776367,1.7944 z"
         style="font-size:15px;line-height:1.25;font-family:sans-serif;-inkscape-font-specification:sans-serif;stroke-width:0.9375px"
         id="path18661" />
      <path
         d="m 104.11984,1041.5057 q -0.22705,-0.1318 -0.49805,-0.1904 -0.26367,-0.066 -0.58594,-0.066 -1.14257,0 -1.75781,0.7471 -0.60791,0.7397 -0.60791,2.1313 v 4.3213 h -1.354979 v -8.2031 h 1.354979 v 1.2744 q 0.42481,-0.7471 1.10596,-1.106 0.68115,-0.3662 1.65527,-0.3662 0.13916,0 0.30762,0.022 0.16846,0.015 0.37353,0.051 z"
         style="font-size:15px;line-height:1.25;font-family:sans-serif;-inkscape-font-specification:sans-serif;stroke-width:0.9375px"
         id="path18663" />
      <path
         d="m 112.22042,1044.0106 v 0.6592 h -6.19628 q 0.0879,1.3916 0.83496,2.124 0.75439,0.7251 2.09472,0.7251 0.77637,0 1.50147,-0.1904 0.73242,-0.1904 1.45019,-0.5713 v 1.2744 q -0.72509,0.3076 -1.48681,0.4688 -0.76172,0.1611 -1.54541,0.1611 -1.96289,0 -3.1128,-1.1426 -1.14257,-1.1426 -1.14257,-3.0908 0,-2.0142 1.08398,-3.1934 1.09131,-1.1865 2.93701,-1.1865 1.65528,0 2.61475,1.0694 0.96679,1.062 0.96679,2.893 z m -1.34765,-0.3955 q -0.0147,-1.1059 -0.62256,-1.7651 -0.60059,-0.6592 -1.59668,-0.6592 -1.12793,0 -1.80908,0.6372 -0.67383,0.6372 -0.77637,1.7944 z"
         style="font-size:15px;line-height:1.25;font-family:sans-serif;-inkscape-font-specification:sans-serif;stroke-width:0.9375px"
         id="path18665" />
      <path
         d="m 117.84542,1049.2108 q -0.57128,1.4649 -1.11328,1.9116 -0.54199,0.4468 -1.45019,0.4468 h -1.07666 v -1.1279 h 0.79101 q 0.55664,0 0.86426,-0.2637 0.30762,-0.2637 0.68115,-1.2451 l 0.2417,-0.6152 -3.31787,-8.0713 h 1.42822 l 2.56348,6.416 2.56348,-6.416 h 1.42822 z"
         style="font-size:15px;line-height:1.25;font-family:sans-serif;-inkscape-font-specification:sans-serif;stroke-width:0.9375px"
         id="path18667" />
      <path
         d="m 127.47677,1044.516 q 0,1.0474 0.52002,1.6479 0.52002,0.5933 1.42822,0.5933 0.90088,0 1.41358,-0.6006 0.52002,-0.6006 0.52002,-1.6406 0,-1.0254 -0.52735,-1.626 -0.52734,-0.6079 -1.42089,-0.6079 -0.88623,0 -1.41358,0.6006 -0.52002,0.6006 -0.52002,1.6333 z m 3.9917,2.1899 q -0.43945,0.564 -1.01074,0.835 -0.56397,0.2637 -1.31836,0.2637 -1.25977,0 -2.05078,-0.9082 -0.78369,-0.9156 -0.78369,-2.3804 0,-1.4649 0.79101,-2.3804 0.79102,-0.9155 2.04346,-0.9155 0.75439,0 1.32568,0.2783 0.57129,0.271 1.00342,0.8276 v -0.9594 h 1.04736 v 5.3906 q 1.06934,-0.1611 1.66993,-0.9741 0.60791,-0.8203 0.60791,-2.1167 0,-0.7837 -0.23438,-1.4722 -0.22705,-0.6885 -0.6958,-1.2744 -0.76172,-0.9595 -1.86035,-1.4648 -1.09131,-0.5127 -2.38037,-0.5127 -0.90088,0 -1.72852,0.2417 -0.82763,0.2343 -1.53076,0.7031 -1.1499,0.7471 -1.80176,1.9629 -0.64453,1.2085 -0.64453,2.622 0,1.1646 0.41748,2.1827 0.42481,1.018 1.22315,1.7944 0.76904,0.7617 1.77978,1.1572 1.01074,0.4029 2.16065,0.4029 0.94482,0 1.85302,-0.3223 0.91553,-0.315 1.67725,-0.9082 l 0.65918,0.813 q -0.91553,0.7104 -1.99951,1.084 -1.07666,0.3808 -2.18994,0.3808 -1.35498,0 -2.55616,-0.4834 -1.20117,-0.4761 -2.13867,-1.3916 -0.9375,-0.9155 -1.42822,-2.1167 -0.49072,-1.2085 -0.49072,-2.5928 0,-1.333 0.49804,-2.5415 0.49805,-1.2085 1.4209,-2.124 0.94483,-0.9302 2.18262,-1.4209 1.23779,-0.498 2.62207,-0.498 1.55273,0 2.87842,0.6372 1.33301,0.6372 2.23388,1.8091 0.54932,0.7177 0.83497,1.56 0.29296,0.8423 0.29296,1.7432 0,1.9263 -1.16455,3.0395 -1.16455,1.1133 -3.21533,1.1573 z"
         style="font-size:15px;line-height:1.25;font-family:sans-serif;-inkscape-font-specification:sans-serif;stroke-width:0.9375px"
         id="path18669" />
      <path
         d="m 142.03732,1044.3256 q -1.6333,0 -2.26318,0.3735 -0.62989,0.3735 -0.62989,1.2744 0,0.7178 0.46875,1.1426 0.47608,0.4175 1.28907,0.4175 1.1206,0 1.79443,-0.791 0.68115,-0.7984 0.68115,-2.1167 v -0.3003 z m 2.68799,-0.5567 v 4.6802 h -1.34766 v -1.2451 q -0.46142,0.747 -1.1499,1.1059 -0.68848,0.3516 -1.68457,0.3516 -1.25977,0 -2.00684,-0.7031 -0.73974,-0.7105 -0.73974,-1.897 0,-1.3843 0.92285,-2.0874 0.93017,-0.7031 2.76855,-0.7031 h 1.88965 v -0.1319 q 0,-0.9301 -0.61523,-1.4355 -0.60791,-0.5127 -1.71387,-0.5127 -0.70313,0 -1.36963,0.1685 -0.6665,0.1684 -1.28174,0.5053 v -1.2451 q 0.73975,-0.2856 1.43555,-0.4248 0.6958,-0.1465 1.35498,-0.1465 1.77979,0 2.65869,0.9229 0.87891,0.9228 0.87891,2.7978 z"
         style="font-size:15px;line-height:1.25;font-family:sans-serif;-inkscape-font-specification:sans-serif;stroke-width:0.9375px"
         id="path18671" />
      <path
         d="m 147.50119,1037.0526 h 1.34765 v 11.3965 h -1.34765 z"
         style="font-size:15px;line-height:1.25;font-family:sans-serif;-inkscape-font-specification:sans-serif;stroke-width:0.9375px"
         id="path18673" />
      <path
         d="m 151.52951,1045.2118 v -4.9658 h 1.34765 v 4.9145 q 0,1.1646 0.4541,1.7505 0.45411,0.5786 1.36231,0.5786 1.09131,0 1.72119,-0.6958 0.63721,-0.6958 0.63721,-1.8969 v -4.6509 h 1.34765 v 8.2031 h -1.34765 v -1.2598 q -0.49072,0.7471 -1.14258,1.1133 -0.64453,0.3589 -1.50147,0.3589 -1.41357,0 -2.14599,-0.8789 -0.73242,-0.8789 -0.73242,-2.5708 z m 3.39111,-5.1636 z"
         style="font-size:15px;line-height:1.25;font-family:sans-serif;-inkscape-font-specification:sans-serif;stroke-width:0.9375px"
         id="path18675" />
      <path
         d="m 167.56222,1041.8207 q 0.50537,-0.9082 1.2085,-1.3404 0.70312,-0.4321 1.65527,-0.4321 1.28174,0 1.97754,0.9009 0.6958,0.8936 0.6958,2.5488 v 4.9512 h -1.35498 v -4.9072 q 0,-1.1792 -0.41748,-1.7505 -0.41748,-0.5713 -1.27441,-0.5713 -1.04737,0 -1.65528,0.6958 -0.60791,0.6958 -0.60791,1.897 v 4.6362 h -1.35498 v -4.9072 q 0,-1.1866 -0.41748,-1.7505 -0.41748,-0.5713 -1.28906,-0.5713 -1.03272,0 -1.64063,0.7031 -0.60791,0.6958 -0.60791,1.8897 v 4.6362 h -1.35498 v -8.2031 h 1.35498 v 1.2744 q 0.46143,-0.7544 1.10596,-1.1133 0.64453,-0.3589 1.53076,-0.3589 0.89356,0 1.51612,0.4541 0.62988,0.4541 0.93017,1.3184 z"
         style="font-size:15px;line-height:1.25;font-family:sans-serif;-inkscape-font-specification:sans-serif;stroke-width:0.9375px"
         id="path18677" />
      <path
         d="m 182.60617,1043.4979 v 4.9512 h -1.34766 v -4.9072 q 0,-1.1646 -0.4541,-1.7432 -0.4541,-0.5786 -1.36231,-0.5786 -1.0913,0 -1.72119,0.6958 -0.62988,0.6958 -0.62988,1.897 v 4.6362 h -1.35498 v -8.2031 h 1.35498 v 1.2744 q 0.4834,-0.7398 1.13525,-1.106 0.65918,-0.3662 1.51612,-0.3662 1.41357,0 2.13867,0.8789 0.7251,0.8716 0.7251,2.5708 z"
         style="font-size:15px;line-height:1.25;font-family:sans-serif;-inkscape-font-specification:sans-serif;stroke-width:0.9375px"
         id="path18679" />
      <path
         d="m 185.29416,1040.246 h 1.34765 v 8.2031 h -1.34765 z m 0,-3.1934 h 1.34765 v 1.7066 h -1.34765 z"
         style="font-size:15px;line-height:1.25;font-family:sans-serif;-inkscape-font-specification:sans-serif;stroke-width:0.9375px"
         id="path18681" />
      <path
         d="m 189.65207,1046.5887 h 1.54541 v 1.8604 h -1.54541 z"
         style="font-size:15px;line-height:1.25;font-family:sans-serif;-inkscape-font-specification:sans-serif;stroke-width:0.9375px"
         id="path18683" />
      <path
         d="m 201.2463,1044.0106 v 0.6592 h -6.19629 q 0.0879,1.3916 0.83497,2.124 0.75439,0.7251 2.09472,0.7251 0.77637,0 1.50147,-0.1904 0.73242,-0.1904 1.45019,-0.5713 v 1.2744 q -0.7251,0.3076 -1.48681,0.4688 -0.76172,0.1611 -1.54541,0.1611 -1.96289,0 -3.1128,-1.1426 -1.14258,-1.1426 -1.14258,-3.0908 0,-2.0142 1.08399,-3.1934 1.09131,-1.1865 2.93701,-1.1865 1.65527,0 2.61475,1.0694 0.96679,1.062 0.96679,2.893 z m -1.34765,-0.3955 q -0.0147,-1.1059 -0.62256,-1.7651 -0.60059,-0.6592 -1.59668,-0.6592 -1.12793,0 -1.80908,0.6372 -0.67383,0.6372 -0.77637,1.7944 z"
         style="font-size:15px;line-height:1.25;font-family:sans-serif;-inkscape-font-specification:sans-serif;stroke-width:0.9375px"
         id="path18685" />
      <path
         d="m 204.76193,1047.2186 v 4.3506 h -1.35498 v -11.3232 h 1.35498 v 1.2451 q 0.4248,-0.7324 1.06933,-1.084 0.65186,-0.3589 1.55274,-0.3589 1.49414,0 2.42432,1.1865 0.9375,1.1866 0.9375,3.1202 0,1.9336 -0.9375,3.1201 -0.93018,1.1865 -2.42432,1.1865 -0.90088,0 -1.55274,-0.3516 -0.64453,-0.3589 -1.06933,-1.0913 z m 4.58496,-2.8637 q 0,-1.4869 -0.61523,-2.3291 -0.60791,-0.8497 -1.67725,-0.8497 -1.06934,0 -1.68457,0.8497 -0.60791,0.8422 -0.60791,2.3291 0,1.4868 0.60791,2.3364 0.61523,0.8423 1.68457,0.8423 1.06934,0 1.67725,-0.8423 0.61523,-0.8496 0.61523,-2.3364 z"
         style="font-size:15px;line-height:1.25;font-family:sans-serif;-inkscape-font-specification:sans-serif;stroke-width:0.9375px"
         id="path18687" />
      <path
         d="m 215.85812,1037.0526 h 3.75 v 11.3965 h -1.35498 v -10.2759 h -2.40967 q -0.7251,0 -1.01074,0.293 -0.27832,0.293 -0.27832,1.0547 v 0.7251 h 2.21924 v 1.0473 h -2.21924 v 7.1558 h -1.35498 v -7.1558 h -1.28906 v -1.0473 h 1.28906 v -0.5713 q 0,-1.3696 0.63721,-1.9922 0.6372,-0.6299 2.02148,-0.6299 z"
         style="font-size:15px;line-height:1.25;font-family:sans-serif;-inkscape-font-specification:sans-serif;stroke-width:0.9375px"
         id="path18689" />
      <path
         d="m 222.61837,1046.5887 h 1.54541 v 1.8604 h -1.54541 z"
         style="font-size:15px;line-height:1.25;font-family:sans-serif;-inkscape-font-specification:sans-serif;stroke-width:0.9375px"
         id="path18691" />
      <path
         d="m 233.09933,1040.5609 v 1.2598 q -0.57129,-0.315 -1.1499,-0.4688 -0.57129,-0.1611 -1.15723,-0.1611 -1.31103,0 -2.03613,0.835 -0.7251,0.8276 -0.7251,2.3291 0,1.5014 0.7251,2.3364 0.7251,0.8276 2.03613,0.8276 0.58594,0 1.15723,-0.1538 0.57861,-0.1611 1.1499,-0.4761 v 1.2452 q -0.56396,0.2636 -1.17187,0.3955 -0.60059,0.1318 -1.28174,0.1318 -1.85303,0 -2.94434,-1.1646 -1.09131,-1.1645 -1.09131,-3.142 0,-2.0069 1.09864,-3.1568 1.10595,-1.1499 3.0249,-1.1499 0.62256,0 1.21582,0.1319 0.59326,0.1245 1.1499,0.3808 z"
         style="font-size:15px;line-height:1.25;font-family:sans-serif;-inkscape-font-specification:sans-serif;stroke-width:0.9375px"
         id="path18693" />
      <path
         d="m 242.26193,1043.4979 v 4.9512 h -1.34766 v -4.9072 q 0,-1.1646 -0.4541,-1.7432 -0.4541,-0.5786 -1.3623,-0.5786 -1.09131,0 -1.7212,0.6958 -0.62988,0.6958 -0.62988,1.897 v 4.6362 h -1.35498 v -11.3965 h 1.35498 v 4.4678 q 0.4834,-0.7398 1.13526,-1.106 0.65918,-0.3662 1.51611,-0.3662 1.41357,0 2.13867,0.8789 0.7251,0.8716 0.7251,2.5708 z"
         style="font-size:15px;line-height:1.25;font-family:sans-serif;-inkscape-font-specification:sans-serif;stroke-width:0.9375px"
         id="path18695" />
    </g>
  </g>
</svg>
